%TF.GenerationSoftware,KiCad,Pcbnew,8.0.0*%
%TF.CreationDate,2024-06-21T00:18:55+02:00*%
%TF.ProjectId,Audio-Controller,41756469-6f2d-4436-9f6e-74726f6c6c65,rev?*%
%TF.SameCoordinates,Original*%
%TF.FileFunction,Legend,Bot*%
%TF.FilePolarity,Positive*%
%FSLAX46Y46*%
G04 Gerber Fmt 4.6, Leading zero omitted, Abs format (unit mm)*
G04 Created by KiCad (PCBNEW 8.0.0) date 2024-06-21 00:18:55*
%MOMM*%
%LPD*%
G01*
G04 APERTURE LIST*
%ADD10C,0.200000*%
%ADD11C,2.000000*%
%ADD12C,3.500000*%
%ADD13R,1.600000X1.600000*%
%ADD14O,1.600000X1.600000*%
G04 APERTURE END LIST*
D10*
X100630326Y-103867219D02*
X100630326Y-102867219D01*
X100630326Y-102867219D02*
X100392231Y-102867219D01*
X100392231Y-102867219D02*
X100249374Y-102914838D01*
X100249374Y-102914838D02*
X100154136Y-103010076D01*
X100154136Y-103010076D02*
X100106517Y-103105314D01*
X100106517Y-103105314D02*
X100058898Y-103295790D01*
X100058898Y-103295790D02*
X100058898Y-103438647D01*
X100058898Y-103438647D02*
X100106517Y-103629123D01*
X100106517Y-103629123D02*
X100154136Y-103724361D01*
X100154136Y-103724361D02*
X100249374Y-103819600D01*
X100249374Y-103819600D02*
X100392231Y-103867219D01*
X100392231Y-103867219D02*
X100630326Y-103867219D01*
X99249374Y-103819600D02*
X99344612Y-103867219D01*
X99344612Y-103867219D02*
X99535088Y-103867219D01*
X99535088Y-103867219D02*
X99630326Y-103819600D01*
X99630326Y-103819600D02*
X99677945Y-103724361D01*
X99677945Y-103724361D02*
X99677945Y-103343409D01*
X99677945Y-103343409D02*
X99630326Y-103248171D01*
X99630326Y-103248171D02*
X99535088Y-103200552D01*
X99535088Y-103200552D02*
X99344612Y-103200552D01*
X99344612Y-103200552D02*
X99249374Y-103248171D01*
X99249374Y-103248171D02*
X99201755Y-103343409D01*
X99201755Y-103343409D02*
X99201755Y-103438647D01*
X99201755Y-103438647D02*
X99677945Y-103533885D01*
X98392231Y-103819600D02*
X98487469Y-103867219D01*
X98487469Y-103867219D02*
X98677945Y-103867219D01*
X98677945Y-103867219D02*
X98773183Y-103819600D01*
X98773183Y-103819600D02*
X98820802Y-103724361D01*
X98820802Y-103724361D02*
X98820802Y-103343409D01*
X98820802Y-103343409D02*
X98773183Y-103248171D01*
X98773183Y-103248171D02*
X98677945Y-103200552D01*
X98677945Y-103200552D02*
X98487469Y-103200552D01*
X98487469Y-103200552D02*
X98392231Y-103248171D01*
X98392231Y-103248171D02*
X98344612Y-103343409D01*
X98344612Y-103343409D02*
X98344612Y-103438647D01*
X98344612Y-103438647D02*
X98820802Y-103533885D01*
X97630326Y-102867219D02*
X97630326Y-103581504D01*
X97630326Y-103581504D02*
X97677945Y-103724361D01*
X97677945Y-103724361D02*
X97773183Y-103819600D01*
X97773183Y-103819600D02*
X97916040Y-103867219D01*
X97916040Y-103867219D02*
X98011278Y-103867219D01*
X96535087Y-102867219D02*
X96201754Y-103867219D01*
X96201754Y-103867219D02*
X95868421Y-102867219D01*
X95392230Y-103867219D02*
X95487468Y-103819600D01*
X95487468Y-103819600D02*
X95535087Y-103771980D01*
X95535087Y-103771980D02*
X95582706Y-103676742D01*
X95582706Y-103676742D02*
X95582706Y-103391028D01*
X95582706Y-103391028D02*
X95535087Y-103295790D01*
X95535087Y-103295790D02*
X95487468Y-103248171D01*
X95487468Y-103248171D02*
X95392230Y-103200552D01*
X95392230Y-103200552D02*
X95249373Y-103200552D01*
X95249373Y-103200552D02*
X95154135Y-103248171D01*
X95154135Y-103248171D02*
X95106516Y-103295790D01*
X95106516Y-103295790D02*
X95058897Y-103391028D01*
X95058897Y-103391028D02*
X95058897Y-103676742D01*
X95058897Y-103676742D02*
X95106516Y-103771980D01*
X95106516Y-103771980D02*
X95154135Y-103819600D01*
X95154135Y-103819600D02*
X95249373Y-103867219D01*
X95249373Y-103867219D02*
X95392230Y-103867219D01*
X94487468Y-103867219D02*
X94582706Y-103819600D01*
X94582706Y-103819600D02*
X94630325Y-103724361D01*
X94630325Y-103724361D02*
X94630325Y-102867219D01*
X93677944Y-103200552D02*
X93677944Y-103867219D01*
X94106515Y-103200552D02*
X94106515Y-103724361D01*
X94106515Y-103724361D02*
X94058896Y-103819600D01*
X94058896Y-103819600D02*
X93963658Y-103867219D01*
X93963658Y-103867219D02*
X93820801Y-103867219D01*
X93820801Y-103867219D02*
X93725563Y-103819600D01*
X93725563Y-103819600D02*
X93677944Y-103771980D01*
X93201753Y-103867219D02*
X93201753Y-103200552D01*
X93201753Y-103295790D02*
X93154134Y-103248171D01*
X93154134Y-103248171D02*
X93058896Y-103200552D01*
X93058896Y-103200552D02*
X92916039Y-103200552D01*
X92916039Y-103200552D02*
X92820801Y-103248171D01*
X92820801Y-103248171D02*
X92773182Y-103343409D01*
X92773182Y-103343409D02*
X92773182Y-103867219D01*
X92773182Y-103343409D02*
X92725563Y-103248171D01*
X92725563Y-103248171D02*
X92630325Y-103200552D01*
X92630325Y-103200552D02*
X92487468Y-103200552D01*
X92487468Y-103200552D02*
X92392229Y-103248171D01*
X92392229Y-103248171D02*
X92344610Y-103343409D01*
X92344610Y-103343409D02*
X92344610Y-103867219D01*
X91487468Y-103819600D02*
X91582706Y-103867219D01*
X91582706Y-103867219D02*
X91773182Y-103867219D01*
X91773182Y-103867219D02*
X91868420Y-103819600D01*
X91868420Y-103819600D02*
X91916039Y-103724361D01*
X91916039Y-103724361D02*
X91916039Y-103343409D01*
X91916039Y-103343409D02*
X91868420Y-103248171D01*
X91868420Y-103248171D02*
X91773182Y-103200552D01*
X91773182Y-103200552D02*
X91582706Y-103200552D01*
X91582706Y-103200552D02*
X91487468Y-103248171D01*
X91487468Y-103248171D02*
X91439849Y-103343409D01*
X91439849Y-103343409D02*
X91439849Y-103438647D01*
X91439849Y-103438647D02*
X91916039Y-103533885D01*
X90249372Y-103867219D02*
X90249372Y-102867219D01*
X90249372Y-102867219D02*
X89916039Y-103581504D01*
X89916039Y-103581504D02*
X89582706Y-102867219D01*
X89582706Y-102867219D02*
X89582706Y-103867219D01*
X89106515Y-103867219D02*
X89106515Y-103200552D01*
X89106515Y-102867219D02*
X89154134Y-102914838D01*
X89154134Y-102914838D02*
X89106515Y-102962457D01*
X89106515Y-102962457D02*
X89058896Y-102914838D01*
X89058896Y-102914838D02*
X89106515Y-102867219D01*
X89106515Y-102867219D02*
X89106515Y-102962457D01*
X88725563Y-103867219D02*
X88201754Y-103200552D01*
X88725563Y-103200552D02*
X88201754Y-103867219D01*
X87439849Y-103819600D02*
X87535087Y-103867219D01*
X87535087Y-103867219D02*
X87725563Y-103867219D01*
X87725563Y-103867219D02*
X87820801Y-103819600D01*
X87820801Y-103819600D02*
X87868420Y-103724361D01*
X87868420Y-103724361D02*
X87868420Y-103343409D01*
X87868420Y-103343409D02*
X87820801Y-103248171D01*
X87820801Y-103248171D02*
X87725563Y-103200552D01*
X87725563Y-103200552D02*
X87535087Y-103200552D01*
X87535087Y-103200552D02*
X87439849Y-103248171D01*
X87439849Y-103248171D02*
X87392230Y-103343409D01*
X87392230Y-103343409D02*
X87392230Y-103438647D01*
X87392230Y-103438647D02*
X87868420Y-103533885D01*
X86963658Y-103867219D02*
X86963658Y-103200552D01*
X86963658Y-103391028D02*
X86916039Y-103295790D01*
X86916039Y-103295790D02*
X86868420Y-103248171D01*
X86868420Y-103248171D02*
X86773182Y-103200552D01*
X86773182Y-103200552D02*
X86677944Y-103200552D01*
X85582705Y-103867219D02*
X85582705Y-102867219D01*
X85582705Y-102867219D02*
X85201753Y-102867219D01*
X85201753Y-102867219D02*
X85106515Y-102914838D01*
X85106515Y-102914838D02*
X85058896Y-102962457D01*
X85058896Y-102962457D02*
X85011277Y-103057695D01*
X85011277Y-103057695D02*
X85011277Y-103200552D01*
X85011277Y-103200552D02*
X85058896Y-103295790D01*
X85058896Y-103295790D02*
X85106515Y-103343409D01*
X85106515Y-103343409D02*
X85201753Y-103391028D01*
X85201753Y-103391028D02*
X85582705Y-103391028D01*
X84011277Y-103771980D02*
X84058896Y-103819600D01*
X84058896Y-103819600D02*
X84201753Y-103867219D01*
X84201753Y-103867219D02*
X84296991Y-103867219D01*
X84296991Y-103867219D02*
X84439848Y-103819600D01*
X84439848Y-103819600D02*
X84535086Y-103724361D01*
X84535086Y-103724361D02*
X84582705Y-103629123D01*
X84582705Y-103629123D02*
X84630324Y-103438647D01*
X84630324Y-103438647D02*
X84630324Y-103295790D01*
X84630324Y-103295790D02*
X84582705Y-103105314D01*
X84582705Y-103105314D02*
X84535086Y-103010076D01*
X84535086Y-103010076D02*
X84439848Y-102914838D01*
X84439848Y-102914838D02*
X84296991Y-102867219D01*
X84296991Y-102867219D02*
X84201753Y-102867219D01*
X84201753Y-102867219D02*
X84058896Y-102914838D01*
X84058896Y-102914838D02*
X84011277Y-102962457D01*
X83249372Y-103343409D02*
X83106515Y-103391028D01*
X83106515Y-103391028D02*
X83058896Y-103438647D01*
X83058896Y-103438647D02*
X83011277Y-103533885D01*
X83011277Y-103533885D02*
X83011277Y-103676742D01*
X83011277Y-103676742D02*
X83058896Y-103771980D01*
X83058896Y-103771980D02*
X83106515Y-103819600D01*
X83106515Y-103819600D02*
X83201753Y-103867219D01*
X83201753Y-103867219D02*
X83582705Y-103867219D01*
X83582705Y-103867219D02*
X83582705Y-102867219D01*
X83582705Y-102867219D02*
X83249372Y-102867219D01*
X83249372Y-102867219D02*
X83154134Y-102914838D01*
X83154134Y-102914838D02*
X83106515Y-102962457D01*
X83106515Y-102962457D02*
X83058896Y-103057695D01*
X83058896Y-103057695D02*
X83058896Y-103152933D01*
X83058896Y-103152933D02*
X83106515Y-103248171D01*
X83106515Y-103248171D02*
X83154134Y-103295790D01*
X83154134Y-103295790D02*
X83249372Y-103343409D01*
X83249372Y-103343409D02*
X83582705Y-103343409D01*
X81820800Y-103867219D02*
X81820800Y-102867219D01*
X81820800Y-103248171D02*
X81725562Y-103200552D01*
X81725562Y-103200552D02*
X81535086Y-103200552D01*
X81535086Y-103200552D02*
X81439848Y-103248171D01*
X81439848Y-103248171D02*
X81392229Y-103295790D01*
X81392229Y-103295790D02*
X81344610Y-103391028D01*
X81344610Y-103391028D02*
X81344610Y-103676742D01*
X81344610Y-103676742D02*
X81392229Y-103771980D01*
X81392229Y-103771980D02*
X81439848Y-103819600D01*
X81439848Y-103819600D02*
X81535086Y-103867219D01*
X81535086Y-103867219D02*
X81725562Y-103867219D01*
X81725562Y-103867219D02*
X81820800Y-103819600D01*
X81011276Y-103200552D02*
X80773181Y-103867219D01*
X80535086Y-103200552D02*
X80773181Y-103867219D01*
X80773181Y-103867219D02*
X80868419Y-104105314D01*
X80868419Y-104105314D02*
X80916038Y-104152933D01*
X80916038Y-104152933D02*
X81011276Y-104200552D01*
X79392228Y-103867219D02*
X79392228Y-102867219D01*
X79392228Y-102867219D02*
X79058895Y-103581504D01*
X79058895Y-103581504D02*
X78725562Y-102867219D01*
X78725562Y-102867219D02*
X78725562Y-103867219D01*
X77820800Y-103819600D02*
X77916038Y-103867219D01*
X77916038Y-103867219D02*
X78106514Y-103867219D01*
X78106514Y-103867219D02*
X78201752Y-103819600D01*
X78201752Y-103819600D02*
X78249371Y-103771980D01*
X78249371Y-103771980D02*
X78296990Y-103676742D01*
X78296990Y-103676742D02*
X78296990Y-103391028D01*
X78296990Y-103391028D02*
X78249371Y-103295790D01*
X78249371Y-103295790D02*
X78201752Y-103248171D01*
X78201752Y-103248171D02*
X78106514Y-103200552D01*
X78106514Y-103200552D02*
X77916038Y-103200552D01*
X77916038Y-103200552D02*
X77820800Y-103248171D01*
X77392228Y-103867219D02*
X77392228Y-102867219D01*
X77392228Y-102867219D02*
X76820800Y-103867219D01*
X76820800Y-103867219D02*
X76820800Y-102867219D01*
X76344609Y-103867219D02*
X76344609Y-103200552D01*
X76344609Y-102867219D02*
X76392228Y-102914838D01*
X76392228Y-102914838D02*
X76344609Y-102962457D01*
X76344609Y-102962457D02*
X76296990Y-102914838D01*
X76296990Y-102914838D02*
X76344609Y-102867219D01*
X76344609Y-102867219D02*
X76344609Y-102962457D01*
X75868419Y-103867219D02*
X75868419Y-102867219D01*
X75773181Y-103486266D02*
X75487467Y-103867219D01*
X75487467Y-103200552D02*
X75868419Y-103581504D01*
X74439847Y-102867219D02*
X74106514Y-103867219D01*
X74106514Y-103867219D02*
X73773181Y-102867219D01*
X73058895Y-103819600D02*
X73154133Y-103867219D01*
X73154133Y-103867219D02*
X73344609Y-103867219D01*
X73344609Y-103867219D02*
X73439847Y-103819600D01*
X73439847Y-103819600D02*
X73487466Y-103724361D01*
X73487466Y-103724361D02*
X73487466Y-103343409D01*
X73487466Y-103343409D02*
X73439847Y-103248171D01*
X73439847Y-103248171D02*
X73344609Y-103200552D01*
X73344609Y-103200552D02*
X73154133Y-103200552D01*
X73154133Y-103200552D02*
X73058895Y-103248171D01*
X73058895Y-103248171D02*
X73011276Y-103343409D01*
X73011276Y-103343409D02*
X73011276Y-103438647D01*
X73011276Y-103438647D02*
X73487466Y-103533885D01*
X72582704Y-103867219D02*
X72582704Y-103200552D01*
X72582704Y-103391028D02*
X72535085Y-103295790D01*
X72535085Y-103295790D02*
X72487466Y-103248171D01*
X72487466Y-103248171D02*
X72392228Y-103200552D01*
X72392228Y-103200552D02*
X72296990Y-103200552D01*
X72011275Y-103819600D02*
X71916037Y-103867219D01*
X71916037Y-103867219D02*
X71725561Y-103867219D01*
X71725561Y-103867219D02*
X71630323Y-103819600D01*
X71630323Y-103819600D02*
X71582704Y-103724361D01*
X71582704Y-103724361D02*
X71582704Y-103676742D01*
X71582704Y-103676742D02*
X71630323Y-103581504D01*
X71630323Y-103581504D02*
X71725561Y-103533885D01*
X71725561Y-103533885D02*
X71868418Y-103533885D01*
X71868418Y-103533885D02*
X71963656Y-103486266D01*
X71963656Y-103486266D02*
X72011275Y-103391028D01*
X72011275Y-103391028D02*
X72011275Y-103343409D01*
X72011275Y-103343409D02*
X71963656Y-103248171D01*
X71963656Y-103248171D02*
X71868418Y-103200552D01*
X71868418Y-103200552D02*
X71725561Y-103200552D01*
X71725561Y-103200552D02*
X71630323Y-103248171D01*
X71154132Y-103867219D02*
X71154132Y-103200552D01*
X71154132Y-102867219D02*
X71201751Y-102914838D01*
X71201751Y-102914838D02*
X71154132Y-102962457D01*
X71154132Y-102962457D02*
X71106513Y-102914838D01*
X71106513Y-102914838D02*
X71154132Y-102867219D01*
X71154132Y-102867219D02*
X71154132Y-102962457D01*
X70535085Y-103867219D02*
X70630323Y-103819600D01*
X70630323Y-103819600D02*
X70677942Y-103771980D01*
X70677942Y-103771980D02*
X70725561Y-103676742D01*
X70725561Y-103676742D02*
X70725561Y-103391028D01*
X70725561Y-103391028D02*
X70677942Y-103295790D01*
X70677942Y-103295790D02*
X70630323Y-103248171D01*
X70630323Y-103248171D02*
X70535085Y-103200552D01*
X70535085Y-103200552D02*
X70392228Y-103200552D01*
X70392228Y-103200552D02*
X70296990Y-103248171D01*
X70296990Y-103248171D02*
X70249371Y-103295790D01*
X70249371Y-103295790D02*
X70201752Y-103391028D01*
X70201752Y-103391028D02*
X70201752Y-103676742D01*
X70201752Y-103676742D02*
X70249371Y-103771980D01*
X70249371Y-103771980D02*
X70296990Y-103819600D01*
X70296990Y-103819600D02*
X70392228Y-103867219D01*
X70392228Y-103867219D02*
X70535085Y-103867219D01*
X69773180Y-103200552D02*
X69773180Y-103867219D01*
X69773180Y-103295790D02*
X69725561Y-103248171D01*
X69725561Y-103248171D02*
X69630323Y-103200552D01*
X69630323Y-103200552D02*
X69487466Y-103200552D01*
X69487466Y-103200552D02*
X69392228Y-103248171D01*
X69392228Y-103248171D02*
X69344609Y-103343409D01*
X69344609Y-103343409D02*
X69344609Y-103867219D01*
X67582704Y-103867219D02*
X68154132Y-103867219D01*
X67868418Y-103867219D02*
X67868418Y-102867219D01*
X67868418Y-102867219D02*
X67963656Y-103010076D01*
X67963656Y-103010076D02*
X68058894Y-103105314D01*
X68058894Y-103105314D02*
X68154132Y-103152933D01*
X67154132Y-103771980D02*
X67106513Y-103819600D01*
X67106513Y-103819600D02*
X67154132Y-103867219D01*
X67154132Y-103867219D02*
X67201751Y-103819600D01*
X67201751Y-103819600D02*
X67154132Y-103771980D01*
X67154132Y-103771980D02*
X67154132Y-103867219D01*
X66487466Y-102867219D02*
X66392228Y-102867219D01*
X66392228Y-102867219D02*
X66296990Y-102914838D01*
X66296990Y-102914838D02*
X66249371Y-102962457D01*
X66249371Y-102962457D02*
X66201752Y-103057695D01*
X66201752Y-103057695D02*
X66154133Y-103248171D01*
X66154133Y-103248171D02*
X66154133Y-103486266D01*
X66154133Y-103486266D02*
X66201752Y-103676742D01*
X66201752Y-103676742D02*
X66249371Y-103771980D01*
X66249371Y-103771980D02*
X66296990Y-103819600D01*
X66296990Y-103819600D02*
X66392228Y-103867219D01*
X66392228Y-103867219D02*
X66487466Y-103867219D01*
X66487466Y-103867219D02*
X66582704Y-103819600D01*
X66582704Y-103819600D02*
X66630323Y-103771980D01*
X66630323Y-103771980D02*
X66677942Y-103676742D01*
X66677942Y-103676742D02*
X66725561Y-103486266D01*
X66725561Y-103486266D02*
X66725561Y-103248171D01*
X66725561Y-103248171D02*
X66677942Y-103057695D01*
X66677942Y-103057695D02*
X66630323Y-102962457D01*
X66630323Y-102962457D02*
X66582704Y-102914838D01*
X66582704Y-102914838D02*
X66487466Y-102867219D01*
%LPC*%
D11*
%TO.C,Double_Slider_Potentiometer5*%
X110500000Y-98000000D03*
X113262000Y-98000000D03*
X116024000Y-98000000D03*
X118500000Y-98000000D03*
X113388000Y-27000000D03*
X118650000Y-27000000D03*
D12*
X114500000Y-87000000D03*
X114500000Y-39600000D03*
%TD*%
D13*
%TO.C,A1*%
X92000000Y-55860000D03*
D14*
X92000000Y-53320000D03*
X92000000Y-50780000D03*
X92000000Y-48240000D03*
X92000000Y-45700000D03*
X92000000Y-43160000D03*
X92000000Y-40620000D03*
X92000000Y-38080000D03*
X92000000Y-35540000D03*
X92000000Y-33000000D03*
X92000000Y-30460000D03*
X92000000Y-27920000D03*
X92000000Y-25380000D03*
X92000000Y-22840000D03*
X92000000Y-20300000D03*
X76760000Y-20300000D03*
X76760000Y-22840000D03*
X76760000Y-25380000D03*
X76760000Y-27920000D03*
X76760000Y-30460000D03*
X76760000Y-33000000D03*
X76760000Y-35540000D03*
X76760000Y-38080000D03*
X76760000Y-40620000D03*
X76760000Y-43160000D03*
X76760000Y-45700000D03*
X76760000Y-48240000D03*
X76760000Y-50780000D03*
X76760000Y-53320000D03*
X76760000Y-55860000D03*
%TD*%
D11*
%TO.C,Double_Slider_Potentiometer2*%
X65500000Y-98000000D03*
X68262000Y-98000000D03*
X71024000Y-98000000D03*
X73500000Y-98000000D03*
X68388000Y-27000000D03*
X73650000Y-27000000D03*
D12*
X69500000Y-87000000D03*
X69500000Y-39600000D03*
%TD*%
D11*
%TO.C,Double_Slider_Potentiometer1*%
X50425000Y-97900000D03*
X53187000Y-97900000D03*
X55949000Y-97900000D03*
X58425000Y-97900000D03*
X53313000Y-26900000D03*
X58575000Y-26900000D03*
D12*
X54425000Y-86900000D03*
X54425000Y-39500000D03*
%TD*%
D11*
%TO.C,Double_Slider_Potentiometer4*%
X95425000Y-97900000D03*
X98187000Y-97900000D03*
X100949000Y-97900000D03*
X103425000Y-97900000D03*
X98313000Y-26900000D03*
X103575000Y-26900000D03*
D12*
X99425000Y-86900000D03*
X99425000Y-39500000D03*
%TD*%
D11*
%TO.C,Double_Slider_Potentiometer3*%
X80500000Y-97900000D03*
X83262000Y-97900000D03*
X86024000Y-97900000D03*
X88500000Y-97900000D03*
X83388000Y-26900000D03*
X88650000Y-26900000D03*
D12*
X84500000Y-86900000D03*
X84500000Y-39500000D03*
%TD*%
%LPD*%
M02*
