M48
; DRILL file {KiCad 8.0.0} date 2024-07-15T16:45:49+0200
; FORMAT={-:-/ absolute / metric / decimal}
; #@! TF.CreationDate,2024-07-15T16:45:49+02:00
; #@! TF.GenerationSoftware,Kicad,Pcbnew,8.0.0
; #@! TF.FileFunction,Plated,1,2,PTH
FMAT,2
METRIC
; #@! TA.AperFunction,Plated,PTH,ViaDrill
T1C0.300
; #@! TA.AperFunction,Plated,PTH,ComponentDrill
T2C1.000
; #@! TA.AperFunction,Plated,PTH,ComponentDrill
T3C2.000
%
G90
G05
T1
X49.0Y-115.5
X53.0Y-107.5
X62.0Y-31.5
X67.5Y-113.5
X82.0Y-48.0
X82.5Y-113.5
X97.5Y-113.5
X106.444Y-20.056
X112.5Y-113.5
T2
X50.425Y-97.9
X53.187Y-97.9
X53.313Y-26.9
X55.949Y-97.9
X58.425Y-97.9
X58.575Y-26.9
X65.5Y-98.0
X68.262Y-98.0
X68.388Y-27.0
X71.024Y-98.0
X73.5Y-98.0
X73.65Y-27.0
X76.76Y-20.3
X76.76Y-22.84
X76.76Y-25.38
X76.76Y-27.92
X76.76Y-30.46
X76.76Y-33.0
X76.76Y-35.54
X76.76Y-38.08
X76.76Y-40.62
X76.76Y-43.16
X76.76Y-45.7
X76.76Y-48.24
X76.76Y-50.78
X76.76Y-53.32
X76.76Y-55.86
X80.5Y-97.9
X83.262Y-97.9
X83.388Y-26.9
X86.024Y-97.9
X88.5Y-97.9
X88.65Y-26.9
X92.0Y-20.3
X92.0Y-22.84
X92.0Y-25.38
X92.0Y-27.92
X92.0Y-30.46
X92.0Y-33.0
X92.0Y-35.54
X92.0Y-38.08
X92.0Y-40.62
X92.0Y-43.16
X92.0Y-45.7
X92.0Y-48.24
X92.0Y-50.78
X92.0Y-53.32
X92.0Y-55.86
X95.425Y-97.9
X98.187Y-97.9
X98.313Y-26.9
X100.949Y-97.9
X103.425Y-97.9
X103.575Y-26.9
X110.5Y-98.0
X113.262Y-98.0
X113.388Y-27.0
X116.024Y-98.0
X118.5Y-98.0
X118.65Y-27.0
T3
X54.425Y-39.5
X54.425Y-86.9
X69.5Y-39.6
X69.5Y-87.0
X84.5Y-39.5
X84.5Y-86.9
X99.425Y-39.5
X99.425Y-86.9
X114.5Y-39.6
X114.5Y-87.0
M30
