%TF.GenerationSoftware,KiCad,Pcbnew,8.0.0*%
%TF.CreationDate,2024-07-15T16:58:46+02:00*%
%TF.ProjectId,Audio-Controller V2.1.kicad_pcb,41756469-6f2d-4436-9f6e-74726f6c6c65,rev?*%
%TF.SameCoordinates,Original*%
%TF.FileFunction,Drillmap*%
%TF.FilePolarity,Positive*%
%FSLAX45Y45*%
G04 Gerber Fmt 4.5, Leading zero omitted, Abs format (unit mm)*
G04 Created by KiCad (PCBNEW 8.0.0) date 2024-07-15 16:58:46*
%MOMM*%
%LPD*%
G01*
G04 APERTURE LIST*
%ADD10C,0.200000*%
G04 APERTURE END LIST*
D10*
X5255000Y-10400000D02*
G75*
G02*
X4945000Y-10400000I-155000J0D01*
G01*
X4945000Y-10400000D02*
G75*
G02*
X5255000Y-10400000I155000J0D01*
G01*
X5260000Y-1950000D02*
G75*
G02*
X4950000Y-1950000I-155000J0D01*
G01*
X4950000Y-1950000D02*
G75*
G02*
X5260000Y-1950000I155000J0D01*
G01*
X4800000Y-1650000D02*
X12100000Y-1650000D01*
X12100000Y-11650000D01*
X4800000Y-11650000D01*
X4800000Y-1650000D01*
X11955000Y-10400000D02*
G75*
G02*
X11645000Y-10400000I-155000J0D01*
G01*
X11645000Y-10400000D02*
G75*
G02*
X11955000Y-10400000I155000J0D01*
G01*
X11960000Y-1950000D02*
G75*
G02*
X11650000Y-1950000I-155000J0D01*
G01*
X11650000Y-1950000D02*
G75*
G02*
X11960000Y-1950000I155000J0D01*
G01*
X5050777Y-11971484D02*
X5050777Y-11771484D01*
X5050777Y-11771484D02*
X5098396Y-11771484D01*
X5098396Y-11771484D02*
X5126967Y-11781008D01*
X5126967Y-11781008D02*
X5146015Y-11800055D01*
X5146015Y-11800055D02*
X5155539Y-11819103D01*
X5155539Y-11819103D02*
X5165063Y-11857198D01*
X5165063Y-11857198D02*
X5165063Y-11885769D01*
X5165063Y-11885769D02*
X5155539Y-11923865D01*
X5155539Y-11923865D02*
X5146015Y-11942912D01*
X5146015Y-11942912D02*
X5126967Y-11961960D01*
X5126967Y-11961960D02*
X5098396Y-11971484D01*
X5098396Y-11971484D02*
X5050777Y-11971484D01*
X5250777Y-11971484D02*
X5250777Y-11838150D01*
X5250777Y-11876246D02*
X5260301Y-11857198D01*
X5260301Y-11857198D02*
X5269824Y-11847674D01*
X5269824Y-11847674D02*
X5288872Y-11838150D01*
X5288872Y-11838150D02*
X5307920Y-11838150D01*
X5374586Y-11971484D02*
X5374586Y-11838150D01*
X5374586Y-11771484D02*
X5365063Y-11781008D01*
X5365063Y-11781008D02*
X5374586Y-11790531D01*
X5374586Y-11790531D02*
X5384110Y-11781008D01*
X5384110Y-11781008D02*
X5374586Y-11771484D01*
X5374586Y-11771484D02*
X5374586Y-11790531D01*
X5498396Y-11971484D02*
X5479348Y-11961960D01*
X5479348Y-11961960D02*
X5469824Y-11942912D01*
X5469824Y-11942912D02*
X5469824Y-11771484D01*
X5603158Y-11971484D02*
X5584110Y-11961960D01*
X5584110Y-11961960D02*
X5574586Y-11942912D01*
X5574586Y-11942912D02*
X5574586Y-11771484D01*
X5831729Y-11971484D02*
X5831729Y-11771484D01*
X5831729Y-11771484D02*
X5898396Y-11914341D01*
X5898396Y-11914341D02*
X5965062Y-11771484D01*
X5965062Y-11771484D02*
X5965062Y-11971484D01*
X6146015Y-11971484D02*
X6146015Y-11866722D01*
X6146015Y-11866722D02*
X6136491Y-11847674D01*
X6136491Y-11847674D02*
X6117443Y-11838150D01*
X6117443Y-11838150D02*
X6079348Y-11838150D01*
X6079348Y-11838150D02*
X6060301Y-11847674D01*
X6146015Y-11961960D02*
X6126967Y-11971484D01*
X6126967Y-11971484D02*
X6079348Y-11971484D01*
X6079348Y-11971484D02*
X6060301Y-11961960D01*
X6060301Y-11961960D02*
X6050777Y-11942912D01*
X6050777Y-11942912D02*
X6050777Y-11923865D01*
X6050777Y-11923865D02*
X6060301Y-11904817D01*
X6060301Y-11904817D02*
X6079348Y-11895293D01*
X6079348Y-11895293D02*
X6126967Y-11895293D01*
X6126967Y-11895293D02*
X6146015Y-11885769D01*
X6241253Y-11838150D02*
X6241253Y-12038150D01*
X6241253Y-11847674D02*
X6260301Y-11838150D01*
X6260301Y-11838150D02*
X6298396Y-11838150D01*
X6298396Y-11838150D02*
X6317443Y-11847674D01*
X6317443Y-11847674D02*
X6326967Y-11857198D01*
X6326967Y-11857198D02*
X6336491Y-11876246D01*
X6336491Y-11876246D02*
X6336491Y-11933388D01*
X6336491Y-11933388D02*
X6326967Y-11952436D01*
X6326967Y-11952436D02*
X6317443Y-11961960D01*
X6317443Y-11961960D02*
X6298396Y-11971484D01*
X6298396Y-11971484D02*
X6260301Y-11971484D01*
X6260301Y-11971484D02*
X6241253Y-11961960D01*
X6422205Y-11952436D02*
X6431729Y-11961960D01*
X6431729Y-11961960D02*
X6422205Y-11971484D01*
X6422205Y-11971484D02*
X6412682Y-11961960D01*
X6412682Y-11961960D02*
X6422205Y-11952436D01*
X6422205Y-11952436D02*
X6422205Y-11971484D01*
X6422205Y-11847674D02*
X6431729Y-11857198D01*
X6431729Y-11857198D02*
X6422205Y-11866722D01*
X6422205Y-11866722D02*
X6412682Y-11857198D01*
X6412682Y-11857198D02*
X6422205Y-11847674D01*
X6422205Y-11847674D02*
X6422205Y-11866722D01*
M02*
