%TF.GenerationSoftware,KiCad,Pcbnew,8.0.0*%
%TF.CreationDate,2024-06-21T00:18:55+02:00*%
%TF.ProjectId,Audio-Controller,41756469-6f2d-4436-9f6e-74726f6c6c65,rev?*%
%TF.SameCoordinates,Original*%
%TF.FileFunction,Legend,Top*%
%TF.FilePolarity,Positive*%
%FSLAX46Y46*%
G04 Gerber Fmt 4.6, Leading zero omitted, Abs format (unit mm)*
G04 Created by KiCad (PCBNEW 8.0.0) date 2024-06-21 00:18:55*
%MOMM*%
%LPD*%
G01*
G04 APERTURE LIST*
%ADD10C,0.200000*%
%ADD11C,0.100000*%
%ADD12C,0.150000*%
%ADD13C,0.120000*%
%ADD14C,2.000000*%
%ADD15C,3.500000*%
%ADD16R,1.600000X1.600000*%
%ADD17O,1.600000X1.600000*%
G04 APERTURE END LIST*
D10*
X66369673Y-103867219D02*
X66369673Y-102867219D01*
X66369673Y-102867219D02*
X66607768Y-102867219D01*
X66607768Y-102867219D02*
X66750625Y-102914838D01*
X66750625Y-102914838D02*
X66845863Y-103010076D01*
X66845863Y-103010076D02*
X66893482Y-103105314D01*
X66893482Y-103105314D02*
X66941101Y-103295790D01*
X66941101Y-103295790D02*
X66941101Y-103438647D01*
X66941101Y-103438647D02*
X66893482Y-103629123D01*
X66893482Y-103629123D02*
X66845863Y-103724361D01*
X66845863Y-103724361D02*
X66750625Y-103819600D01*
X66750625Y-103819600D02*
X66607768Y-103867219D01*
X66607768Y-103867219D02*
X66369673Y-103867219D01*
X67750625Y-103819600D02*
X67655387Y-103867219D01*
X67655387Y-103867219D02*
X67464911Y-103867219D01*
X67464911Y-103867219D02*
X67369673Y-103819600D01*
X67369673Y-103819600D02*
X67322054Y-103724361D01*
X67322054Y-103724361D02*
X67322054Y-103343409D01*
X67322054Y-103343409D02*
X67369673Y-103248171D01*
X67369673Y-103248171D02*
X67464911Y-103200552D01*
X67464911Y-103200552D02*
X67655387Y-103200552D01*
X67655387Y-103200552D02*
X67750625Y-103248171D01*
X67750625Y-103248171D02*
X67798244Y-103343409D01*
X67798244Y-103343409D02*
X67798244Y-103438647D01*
X67798244Y-103438647D02*
X67322054Y-103533885D01*
X68607768Y-103819600D02*
X68512530Y-103867219D01*
X68512530Y-103867219D02*
X68322054Y-103867219D01*
X68322054Y-103867219D02*
X68226816Y-103819600D01*
X68226816Y-103819600D02*
X68179197Y-103724361D01*
X68179197Y-103724361D02*
X68179197Y-103343409D01*
X68179197Y-103343409D02*
X68226816Y-103248171D01*
X68226816Y-103248171D02*
X68322054Y-103200552D01*
X68322054Y-103200552D02*
X68512530Y-103200552D01*
X68512530Y-103200552D02*
X68607768Y-103248171D01*
X68607768Y-103248171D02*
X68655387Y-103343409D01*
X68655387Y-103343409D02*
X68655387Y-103438647D01*
X68655387Y-103438647D02*
X68179197Y-103533885D01*
X69369673Y-102867219D02*
X69369673Y-103581504D01*
X69369673Y-103581504D02*
X69322054Y-103724361D01*
X69322054Y-103724361D02*
X69226816Y-103819600D01*
X69226816Y-103819600D02*
X69083959Y-103867219D01*
X69083959Y-103867219D02*
X68988721Y-103867219D01*
X70464912Y-102867219D02*
X70798245Y-103867219D01*
X70798245Y-103867219D02*
X71131578Y-102867219D01*
X71607769Y-103867219D02*
X71512531Y-103819600D01*
X71512531Y-103819600D02*
X71464912Y-103771980D01*
X71464912Y-103771980D02*
X71417293Y-103676742D01*
X71417293Y-103676742D02*
X71417293Y-103391028D01*
X71417293Y-103391028D02*
X71464912Y-103295790D01*
X71464912Y-103295790D02*
X71512531Y-103248171D01*
X71512531Y-103248171D02*
X71607769Y-103200552D01*
X71607769Y-103200552D02*
X71750626Y-103200552D01*
X71750626Y-103200552D02*
X71845864Y-103248171D01*
X71845864Y-103248171D02*
X71893483Y-103295790D01*
X71893483Y-103295790D02*
X71941102Y-103391028D01*
X71941102Y-103391028D02*
X71941102Y-103676742D01*
X71941102Y-103676742D02*
X71893483Y-103771980D01*
X71893483Y-103771980D02*
X71845864Y-103819600D01*
X71845864Y-103819600D02*
X71750626Y-103867219D01*
X71750626Y-103867219D02*
X71607769Y-103867219D01*
X72512531Y-103867219D02*
X72417293Y-103819600D01*
X72417293Y-103819600D02*
X72369674Y-103724361D01*
X72369674Y-103724361D02*
X72369674Y-102867219D01*
X73322055Y-103200552D02*
X73322055Y-103867219D01*
X72893484Y-103200552D02*
X72893484Y-103724361D01*
X72893484Y-103724361D02*
X72941103Y-103819600D01*
X72941103Y-103819600D02*
X73036341Y-103867219D01*
X73036341Y-103867219D02*
X73179198Y-103867219D01*
X73179198Y-103867219D02*
X73274436Y-103819600D01*
X73274436Y-103819600D02*
X73322055Y-103771980D01*
X73798246Y-103867219D02*
X73798246Y-103200552D01*
X73798246Y-103295790D02*
X73845865Y-103248171D01*
X73845865Y-103248171D02*
X73941103Y-103200552D01*
X73941103Y-103200552D02*
X74083960Y-103200552D01*
X74083960Y-103200552D02*
X74179198Y-103248171D01*
X74179198Y-103248171D02*
X74226817Y-103343409D01*
X74226817Y-103343409D02*
X74226817Y-103867219D01*
X74226817Y-103343409D02*
X74274436Y-103248171D01*
X74274436Y-103248171D02*
X74369674Y-103200552D01*
X74369674Y-103200552D02*
X74512531Y-103200552D01*
X74512531Y-103200552D02*
X74607770Y-103248171D01*
X74607770Y-103248171D02*
X74655389Y-103343409D01*
X74655389Y-103343409D02*
X74655389Y-103867219D01*
X75512531Y-103819600D02*
X75417293Y-103867219D01*
X75417293Y-103867219D02*
X75226817Y-103867219D01*
X75226817Y-103867219D02*
X75131579Y-103819600D01*
X75131579Y-103819600D02*
X75083960Y-103724361D01*
X75083960Y-103724361D02*
X75083960Y-103343409D01*
X75083960Y-103343409D02*
X75131579Y-103248171D01*
X75131579Y-103248171D02*
X75226817Y-103200552D01*
X75226817Y-103200552D02*
X75417293Y-103200552D01*
X75417293Y-103200552D02*
X75512531Y-103248171D01*
X75512531Y-103248171D02*
X75560150Y-103343409D01*
X75560150Y-103343409D02*
X75560150Y-103438647D01*
X75560150Y-103438647D02*
X75083960Y-103533885D01*
X76750627Y-103867219D02*
X76750627Y-102867219D01*
X76750627Y-102867219D02*
X77083960Y-103581504D01*
X77083960Y-103581504D02*
X77417293Y-102867219D01*
X77417293Y-102867219D02*
X77417293Y-103867219D01*
X77893484Y-103867219D02*
X77893484Y-103200552D01*
X77893484Y-102867219D02*
X77845865Y-102914838D01*
X77845865Y-102914838D02*
X77893484Y-102962457D01*
X77893484Y-102962457D02*
X77941103Y-102914838D01*
X77941103Y-102914838D02*
X77893484Y-102867219D01*
X77893484Y-102867219D02*
X77893484Y-102962457D01*
X78274436Y-103867219D02*
X78798245Y-103200552D01*
X78274436Y-103200552D02*
X78798245Y-103867219D01*
X79560150Y-103819600D02*
X79464912Y-103867219D01*
X79464912Y-103867219D02*
X79274436Y-103867219D01*
X79274436Y-103867219D02*
X79179198Y-103819600D01*
X79179198Y-103819600D02*
X79131579Y-103724361D01*
X79131579Y-103724361D02*
X79131579Y-103343409D01*
X79131579Y-103343409D02*
X79179198Y-103248171D01*
X79179198Y-103248171D02*
X79274436Y-103200552D01*
X79274436Y-103200552D02*
X79464912Y-103200552D01*
X79464912Y-103200552D02*
X79560150Y-103248171D01*
X79560150Y-103248171D02*
X79607769Y-103343409D01*
X79607769Y-103343409D02*
X79607769Y-103438647D01*
X79607769Y-103438647D02*
X79131579Y-103533885D01*
X80036341Y-103867219D02*
X80036341Y-103200552D01*
X80036341Y-103391028D02*
X80083960Y-103295790D01*
X80083960Y-103295790D02*
X80131579Y-103248171D01*
X80131579Y-103248171D02*
X80226817Y-103200552D01*
X80226817Y-103200552D02*
X80322055Y-103200552D01*
X81417294Y-103867219D02*
X81417294Y-102867219D01*
X81417294Y-102867219D02*
X81798246Y-102867219D01*
X81798246Y-102867219D02*
X81893484Y-102914838D01*
X81893484Y-102914838D02*
X81941103Y-102962457D01*
X81941103Y-102962457D02*
X81988722Y-103057695D01*
X81988722Y-103057695D02*
X81988722Y-103200552D01*
X81988722Y-103200552D02*
X81941103Y-103295790D01*
X81941103Y-103295790D02*
X81893484Y-103343409D01*
X81893484Y-103343409D02*
X81798246Y-103391028D01*
X81798246Y-103391028D02*
X81417294Y-103391028D01*
X82988722Y-103771980D02*
X82941103Y-103819600D01*
X82941103Y-103819600D02*
X82798246Y-103867219D01*
X82798246Y-103867219D02*
X82703008Y-103867219D01*
X82703008Y-103867219D02*
X82560151Y-103819600D01*
X82560151Y-103819600D02*
X82464913Y-103724361D01*
X82464913Y-103724361D02*
X82417294Y-103629123D01*
X82417294Y-103629123D02*
X82369675Y-103438647D01*
X82369675Y-103438647D02*
X82369675Y-103295790D01*
X82369675Y-103295790D02*
X82417294Y-103105314D01*
X82417294Y-103105314D02*
X82464913Y-103010076D01*
X82464913Y-103010076D02*
X82560151Y-102914838D01*
X82560151Y-102914838D02*
X82703008Y-102867219D01*
X82703008Y-102867219D02*
X82798246Y-102867219D01*
X82798246Y-102867219D02*
X82941103Y-102914838D01*
X82941103Y-102914838D02*
X82988722Y-102962457D01*
X83750627Y-103343409D02*
X83893484Y-103391028D01*
X83893484Y-103391028D02*
X83941103Y-103438647D01*
X83941103Y-103438647D02*
X83988722Y-103533885D01*
X83988722Y-103533885D02*
X83988722Y-103676742D01*
X83988722Y-103676742D02*
X83941103Y-103771980D01*
X83941103Y-103771980D02*
X83893484Y-103819600D01*
X83893484Y-103819600D02*
X83798246Y-103867219D01*
X83798246Y-103867219D02*
X83417294Y-103867219D01*
X83417294Y-103867219D02*
X83417294Y-102867219D01*
X83417294Y-102867219D02*
X83750627Y-102867219D01*
X83750627Y-102867219D02*
X83845865Y-102914838D01*
X83845865Y-102914838D02*
X83893484Y-102962457D01*
X83893484Y-102962457D02*
X83941103Y-103057695D01*
X83941103Y-103057695D02*
X83941103Y-103152933D01*
X83941103Y-103152933D02*
X83893484Y-103248171D01*
X83893484Y-103248171D02*
X83845865Y-103295790D01*
X83845865Y-103295790D02*
X83750627Y-103343409D01*
X83750627Y-103343409D02*
X83417294Y-103343409D01*
X85179199Y-103867219D02*
X85179199Y-102867219D01*
X85179199Y-103248171D02*
X85274437Y-103200552D01*
X85274437Y-103200552D02*
X85464913Y-103200552D01*
X85464913Y-103200552D02*
X85560151Y-103248171D01*
X85560151Y-103248171D02*
X85607770Y-103295790D01*
X85607770Y-103295790D02*
X85655389Y-103391028D01*
X85655389Y-103391028D02*
X85655389Y-103676742D01*
X85655389Y-103676742D02*
X85607770Y-103771980D01*
X85607770Y-103771980D02*
X85560151Y-103819600D01*
X85560151Y-103819600D02*
X85464913Y-103867219D01*
X85464913Y-103867219D02*
X85274437Y-103867219D01*
X85274437Y-103867219D02*
X85179199Y-103819600D01*
X85988723Y-103200552D02*
X86226818Y-103867219D01*
X86464913Y-103200552D02*
X86226818Y-103867219D01*
X86226818Y-103867219D02*
X86131580Y-104105314D01*
X86131580Y-104105314D02*
X86083961Y-104152933D01*
X86083961Y-104152933D02*
X85988723Y-104200552D01*
X87607771Y-103867219D02*
X87607771Y-102867219D01*
X87607771Y-102867219D02*
X87941104Y-103581504D01*
X87941104Y-103581504D02*
X88274437Y-102867219D01*
X88274437Y-102867219D02*
X88274437Y-103867219D01*
X89179199Y-103819600D02*
X89083961Y-103867219D01*
X89083961Y-103867219D02*
X88893485Y-103867219D01*
X88893485Y-103867219D02*
X88798247Y-103819600D01*
X88798247Y-103819600D02*
X88750628Y-103771980D01*
X88750628Y-103771980D02*
X88703009Y-103676742D01*
X88703009Y-103676742D02*
X88703009Y-103391028D01*
X88703009Y-103391028D02*
X88750628Y-103295790D01*
X88750628Y-103295790D02*
X88798247Y-103248171D01*
X88798247Y-103248171D02*
X88893485Y-103200552D01*
X88893485Y-103200552D02*
X89083961Y-103200552D01*
X89083961Y-103200552D02*
X89179199Y-103248171D01*
X89607771Y-103867219D02*
X89607771Y-102867219D01*
X89607771Y-102867219D02*
X90179199Y-103867219D01*
X90179199Y-103867219D02*
X90179199Y-102867219D01*
X90655390Y-103867219D02*
X90655390Y-103200552D01*
X90655390Y-102867219D02*
X90607771Y-102914838D01*
X90607771Y-102914838D02*
X90655390Y-102962457D01*
X90655390Y-102962457D02*
X90703009Y-102914838D01*
X90703009Y-102914838D02*
X90655390Y-102867219D01*
X90655390Y-102867219D02*
X90655390Y-102962457D01*
X91131580Y-103867219D02*
X91131580Y-102867219D01*
X91226818Y-103486266D02*
X91512532Y-103867219D01*
X91512532Y-103200552D02*
X91131580Y-103581504D01*
X92560152Y-102867219D02*
X92893485Y-103867219D01*
X92893485Y-103867219D02*
X93226818Y-102867219D01*
X93941104Y-103819600D02*
X93845866Y-103867219D01*
X93845866Y-103867219D02*
X93655390Y-103867219D01*
X93655390Y-103867219D02*
X93560152Y-103819600D01*
X93560152Y-103819600D02*
X93512533Y-103724361D01*
X93512533Y-103724361D02*
X93512533Y-103343409D01*
X93512533Y-103343409D02*
X93560152Y-103248171D01*
X93560152Y-103248171D02*
X93655390Y-103200552D01*
X93655390Y-103200552D02*
X93845866Y-103200552D01*
X93845866Y-103200552D02*
X93941104Y-103248171D01*
X93941104Y-103248171D02*
X93988723Y-103343409D01*
X93988723Y-103343409D02*
X93988723Y-103438647D01*
X93988723Y-103438647D02*
X93512533Y-103533885D01*
X94417295Y-103867219D02*
X94417295Y-103200552D01*
X94417295Y-103391028D02*
X94464914Y-103295790D01*
X94464914Y-103295790D02*
X94512533Y-103248171D01*
X94512533Y-103248171D02*
X94607771Y-103200552D01*
X94607771Y-103200552D02*
X94703009Y-103200552D01*
X94988724Y-103819600D02*
X95083962Y-103867219D01*
X95083962Y-103867219D02*
X95274438Y-103867219D01*
X95274438Y-103867219D02*
X95369676Y-103819600D01*
X95369676Y-103819600D02*
X95417295Y-103724361D01*
X95417295Y-103724361D02*
X95417295Y-103676742D01*
X95417295Y-103676742D02*
X95369676Y-103581504D01*
X95369676Y-103581504D02*
X95274438Y-103533885D01*
X95274438Y-103533885D02*
X95131581Y-103533885D01*
X95131581Y-103533885D02*
X95036343Y-103486266D01*
X95036343Y-103486266D02*
X94988724Y-103391028D01*
X94988724Y-103391028D02*
X94988724Y-103343409D01*
X94988724Y-103343409D02*
X95036343Y-103248171D01*
X95036343Y-103248171D02*
X95131581Y-103200552D01*
X95131581Y-103200552D02*
X95274438Y-103200552D01*
X95274438Y-103200552D02*
X95369676Y-103248171D01*
X95845867Y-103867219D02*
X95845867Y-103200552D01*
X95845867Y-102867219D02*
X95798248Y-102914838D01*
X95798248Y-102914838D02*
X95845867Y-102962457D01*
X95845867Y-102962457D02*
X95893486Y-102914838D01*
X95893486Y-102914838D02*
X95845867Y-102867219D01*
X95845867Y-102867219D02*
X95845867Y-102962457D01*
X96464914Y-103867219D02*
X96369676Y-103819600D01*
X96369676Y-103819600D02*
X96322057Y-103771980D01*
X96322057Y-103771980D02*
X96274438Y-103676742D01*
X96274438Y-103676742D02*
X96274438Y-103391028D01*
X96274438Y-103391028D02*
X96322057Y-103295790D01*
X96322057Y-103295790D02*
X96369676Y-103248171D01*
X96369676Y-103248171D02*
X96464914Y-103200552D01*
X96464914Y-103200552D02*
X96607771Y-103200552D01*
X96607771Y-103200552D02*
X96703009Y-103248171D01*
X96703009Y-103248171D02*
X96750628Y-103295790D01*
X96750628Y-103295790D02*
X96798247Y-103391028D01*
X96798247Y-103391028D02*
X96798247Y-103676742D01*
X96798247Y-103676742D02*
X96750628Y-103771980D01*
X96750628Y-103771980D02*
X96703009Y-103819600D01*
X96703009Y-103819600D02*
X96607771Y-103867219D01*
X96607771Y-103867219D02*
X96464914Y-103867219D01*
X97226819Y-103200552D02*
X97226819Y-103867219D01*
X97226819Y-103295790D02*
X97274438Y-103248171D01*
X97274438Y-103248171D02*
X97369676Y-103200552D01*
X97369676Y-103200552D02*
X97512533Y-103200552D01*
X97512533Y-103200552D02*
X97607771Y-103248171D01*
X97607771Y-103248171D02*
X97655390Y-103343409D01*
X97655390Y-103343409D02*
X97655390Y-103867219D01*
X99417295Y-103867219D02*
X98845867Y-103867219D01*
X99131581Y-103867219D02*
X99131581Y-102867219D01*
X99131581Y-102867219D02*
X99036343Y-103010076D01*
X99036343Y-103010076D02*
X98941105Y-103105314D01*
X98941105Y-103105314D02*
X98845867Y-103152933D01*
X99845867Y-103771980D02*
X99893486Y-103819600D01*
X99893486Y-103819600D02*
X99845867Y-103867219D01*
X99845867Y-103867219D02*
X99798248Y-103819600D01*
X99798248Y-103819600D02*
X99845867Y-103771980D01*
X99845867Y-103771980D02*
X99845867Y-103867219D01*
X100512533Y-102867219D02*
X100607771Y-102867219D01*
X100607771Y-102867219D02*
X100703009Y-102914838D01*
X100703009Y-102914838D02*
X100750628Y-102962457D01*
X100750628Y-102962457D02*
X100798247Y-103057695D01*
X100798247Y-103057695D02*
X100845866Y-103248171D01*
X100845866Y-103248171D02*
X100845866Y-103486266D01*
X100845866Y-103486266D02*
X100798247Y-103676742D01*
X100798247Y-103676742D02*
X100750628Y-103771980D01*
X100750628Y-103771980D02*
X100703009Y-103819600D01*
X100703009Y-103819600D02*
X100607771Y-103867219D01*
X100607771Y-103867219D02*
X100512533Y-103867219D01*
X100512533Y-103867219D02*
X100417295Y-103819600D01*
X100417295Y-103819600D02*
X100369676Y-103771980D01*
X100369676Y-103771980D02*
X100322057Y-103676742D01*
X100322057Y-103676742D02*
X100274438Y-103486266D01*
X100274438Y-103486266D02*
X100274438Y-103248171D01*
X100274438Y-103248171D02*
X100322057Y-103057695D01*
X100322057Y-103057695D02*
X100369676Y-102962457D01*
X100369676Y-102962457D02*
X100417295Y-102914838D01*
X100417295Y-102914838D02*
X100512533Y-102867219D01*
D11*
X114957419Y-78928572D02*
X113957419Y-78928572D01*
X113957419Y-78928572D02*
X113957419Y-78690477D01*
X113957419Y-78690477D02*
X114005038Y-78547620D01*
X114005038Y-78547620D02*
X114100276Y-78452382D01*
X114100276Y-78452382D02*
X114195514Y-78404763D01*
X114195514Y-78404763D02*
X114385990Y-78357144D01*
X114385990Y-78357144D02*
X114528847Y-78357144D01*
X114528847Y-78357144D02*
X114719323Y-78404763D01*
X114719323Y-78404763D02*
X114814561Y-78452382D01*
X114814561Y-78452382D02*
X114909800Y-78547620D01*
X114909800Y-78547620D02*
X114957419Y-78690477D01*
X114957419Y-78690477D02*
X114957419Y-78928572D01*
X114957419Y-77785715D02*
X114909800Y-77880953D01*
X114909800Y-77880953D02*
X114862180Y-77928572D01*
X114862180Y-77928572D02*
X114766942Y-77976191D01*
X114766942Y-77976191D02*
X114481228Y-77976191D01*
X114481228Y-77976191D02*
X114385990Y-77928572D01*
X114385990Y-77928572D02*
X114338371Y-77880953D01*
X114338371Y-77880953D02*
X114290752Y-77785715D01*
X114290752Y-77785715D02*
X114290752Y-77642858D01*
X114290752Y-77642858D02*
X114338371Y-77547620D01*
X114338371Y-77547620D02*
X114385990Y-77500001D01*
X114385990Y-77500001D02*
X114481228Y-77452382D01*
X114481228Y-77452382D02*
X114766942Y-77452382D01*
X114766942Y-77452382D02*
X114862180Y-77500001D01*
X114862180Y-77500001D02*
X114909800Y-77547620D01*
X114909800Y-77547620D02*
X114957419Y-77642858D01*
X114957419Y-77642858D02*
X114957419Y-77785715D01*
X114290752Y-76595239D02*
X114957419Y-76595239D01*
X114290752Y-77023810D02*
X114814561Y-77023810D01*
X114814561Y-77023810D02*
X114909800Y-76976191D01*
X114909800Y-76976191D02*
X114957419Y-76880953D01*
X114957419Y-76880953D02*
X114957419Y-76738096D01*
X114957419Y-76738096D02*
X114909800Y-76642858D01*
X114909800Y-76642858D02*
X114862180Y-76595239D01*
X114957419Y-76119048D02*
X113957419Y-76119048D01*
X114338371Y-76119048D02*
X114290752Y-76023810D01*
X114290752Y-76023810D02*
X114290752Y-75833334D01*
X114290752Y-75833334D02*
X114338371Y-75738096D01*
X114338371Y-75738096D02*
X114385990Y-75690477D01*
X114385990Y-75690477D02*
X114481228Y-75642858D01*
X114481228Y-75642858D02*
X114766942Y-75642858D01*
X114766942Y-75642858D02*
X114862180Y-75690477D01*
X114862180Y-75690477D02*
X114909800Y-75738096D01*
X114909800Y-75738096D02*
X114957419Y-75833334D01*
X114957419Y-75833334D02*
X114957419Y-76023810D01*
X114957419Y-76023810D02*
X114909800Y-76119048D01*
X114957419Y-75071429D02*
X114909800Y-75166667D01*
X114909800Y-75166667D02*
X114814561Y-75214286D01*
X114814561Y-75214286D02*
X113957419Y-75214286D01*
X114909800Y-74309524D02*
X114957419Y-74404762D01*
X114957419Y-74404762D02*
X114957419Y-74595238D01*
X114957419Y-74595238D02*
X114909800Y-74690476D01*
X114909800Y-74690476D02*
X114814561Y-74738095D01*
X114814561Y-74738095D02*
X114433609Y-74738095D01*
X114433609Y-74738095D02*
X114338371Y-74690476D01*
X114338371Y-74690476D02*
X114290752Y-74595238D01*
X114290752Y-74595238D02*
X114290752Y-74404762D01*
X114290752Y-74404762D02*
X114338371Y-74309524D01*
X114338371Y-74309524D02*
X114433609Y-74261905D01*
X114433609Y-74261905D02*
X114528847Y-74261905D01*
X114528847Y-74261905D02*
X114624085Y-74738095D01*
X115052657Y-74071429D02*
X115052657Y-73309524D01*
X114909800Y-73119047D02*
X114957419Y-72976190D01*
X114957419Y-72976190D02*
X114957419Y-72738095D01*
X114957419Y-72738095D02*
X114909800Y-72642857D01*
X114909800Y-72642857D02*
X114862180Y-72595238D01*
X114862180Y-72595238D02*
X114766942Y-72547619D01*
X114766942Y-72547619D02*
X114671704Y-72547619D01*
X114671704Y-72547619D02*
X114576466Y-72595238D01*
X114576466Y-72595238D02*
X114528847Y-72642857D01*
X114528847Y-72642857D02*
X114481228Y-72738095D01*
X114481228Y-72738095D02*
X114433609Y-72928571D01*
X114433609Y-72928571D02*
X114385990Y-73023809D01*
X114385990Y-73023809D02*
X114338371Y-73071428D01*
X114338371Y-73071428D02*
X114243133Y-73119047D01*
X114243133Y-73119047D02*
X114147895Y-73119047D01*
X114147895Y-73119047D02*
X114052657Y-73071428D01*
X114052657Y-73071428D02*
X114005038Y-73023809D01*
X114005038Y-73023809D02*
X113957419Y-72928571D01*
X113957419Y-72928571D02*
X113957419Y-72690476D01*
X113957419Y-72690476D02*
X114005038Y-72547619D01*
X114957419Y-71976190D02*
X114909800Y-72071428D01*
X114909800Y-72071428D02*
X114814561Y-72119047D01*
X114814561Y-72119047D02*
X113957419Y-72119047D01*
X114957419Y-71595237D02*
X114290752Y-71595237D01*
X113957419Y-71595237D02*
X114005038Y-71642856D01*
X114005038Y-71642856D02*
X114052657Y-71595237D01*
X114052657Y-71595237D02*
X114005038Y-71547618D01*
X114005038Y-71547618D02*
X113957419Y-71595237D01*
X113957419Y-71595237D02*
X114052657Y-71595237D01*
X114957419Y-70690476D02*
X113957419Y-70690476D01*
X114909800Y-70690476D02*
X114957419Y-70785714D01*
X114957419Y-70785714D02*
X114957419Y-70976190D01*
X114957419Y-70976190D02*
X114909800Y-71071428D01*
X114909800Y-71071428D02*
X114862180Y-71119047D01*
X114862180Y-71119047D02*
X114766942Y-71166666D01*
X114766942Y-71166666D02*
X114481228Y-71166666D01*
X114481228Y-71166666D02*
X114385990Y-71119047D01*
X114385990Y-71119047D02*
X114338371Y-71071428D01*
X114338371Y-71071428D02*
X114290752Y-70976190D01*
X114290752Y-70976190D02*
X114290752Y-70785714D01*
X114290752Y-70785714D02*
X114338371Y-70690476D01*
X114909800Y-69833333D02*
X114957419Y-69928571D01*
X114957419Y-69928571D02*
X114957419Y-70119047D01*
X114957419Y-70119047D02*
X114909800Y-70214285D01*
X114909800Y-70214285D02*
X114814561Y-70261904D01*
X114814561Y-70261904D02*
X114433609Y-70261904D01*
X114433609Y-70261904D02*
X114338371Y-70214285D01*
X114338371Y-70214285D02*
X114290752Y-70119047D01*
X114290752Y-70119047D02*
X114290752Y-69928571D01*
X114290752Y-69928571D02*
X114338371Y-69833333D01*
X114338371Y-69833333D02*
X114433609Y-69785714D01*
X114433609Y-69785714D02*
X114528847Y-69785714D01*
X114528847Y-69785714D02*
X114624085Y-70261904D01*
X114957419Y-69357142D02*
X114290752Y-69357142D01*
X114481228Y-69357142D02*
X114385990Y-69309523D01*
X114385990Y-69309523D02*
X114338371Y-69261904D01*
X114338371Y-69261904D02*
X114290752Y-69166666D01*
X114290752Y-69166666D02*
X114290752Y-69071428D01*
X115052657Y-68976190D02*
X115052657Y-68214285D01*
X114957419Y-67976189D02*
X113957419Y-67976189D01*
X113957419Y-67976189D02*
X113957419Y-67595237D01*
X113957419Y-67595237D02*
X114005038Y-67499999D01*
X114005038Y-67499999D02*
X114052657Y-67452380D01*
X114052657Y-67452380D02*
X114147895Y-67404761D01*
X114147895Y-67404761D02*
X114290752Y-67404761D01*
X114290752Y-67404761D02*
X114385990Y-67452380D01*
X114385990Y-67452380D02*
X114433609Y-67499999D01*
X114433609Y-67499999D02*
X114481228Y-67595237D01*
X114481228Y-67595237D02*
X114481228Y-67976189D01*
X114957419Y-66833332D02*
X114909800Y-66928570D01*
X114909800Y-66928570D02*
X114862180Y-66976189D01*
X114862180Y-66976189D02*
X114766942Y-67023808D01*
X114766942Y-67023808D02*
X114481228Y-67023808D01*
X114481228Y-67023808D02*
X114385990Y-66976189D01*
X114385990Y-66976189D02*
X114338371Y-66928570D01*
X114338371Y-66928570D02*
X114290752Y-66833332D01*
X114290752Y-66833332D02*
X114290752Y-66690475D01*
X114290752Y-66690475D02*
X114338371Y-66595237D01*
X114338371Y-66595237D02*
X114385990Y-66547618D01*
X114385990Y-66547618D02*
X114481228Y-66499999D01*
X114481228Y-66499999D02*
X114766942Y-66499999D01*
X114766942Y-66499999D02*
X114862180Y-66547618D01*
X114862180Y-66547618D02*
X114909800Y-66595237D01*
X114909800Y-66595237D02*
X114957419Y-66690475D01*
X114957419Y-66690475D02*
X114957419Y-66833332D01*
X114290752Y-66214284D02*
X114290752Y-65833332D01*
X113957419Y-66071427D02*
X114814561Y-66071427D01*
X114814561Y-66071427D02*
X114909800Y-66023808D01*
X114909800Y-66023808D02*
X114957419Y-65928570D01*
X114957419Y-65928570D02*
X114957419Y-65833332D01*
X114909800Y-65119046D02*
X114957419Y-65214284D01*
X114957419Y-65214284D02*
X114957419Y-65404760D01*
X114957419Y-65404760D02*
X114909800Y-65499998D01*
X114909800Y-65499998D02*
X114814561Y-65547617D01*
X114814561Y-65547617D02*
X114433609Y-65547617D01*
X114433609Y-65547617D02*
X114338371Y-65499998D01*
X114338371Y-65499998D02*
X114290752Y-65404760D01*
X114290752Y-65404760D02*
X114290752Y-65214284D01*
X114290752Y-65214284D02*
X114338371Y-65119046D01*
X114338371Y-65119046D02*
X114433609Y-65071427D01*
X114433609Y-65071427D02*
X114528847Y-65071427D01*
X114528847Y-65071427D02*
X114624085Y-65547617D01*
X114290752Y-64642855D02*
X114957419Y-64642855D01*
X114385990Y-64642855D02*
X114338371Y-64595236D01*
X114338371Y-64595236D02*
X114290752Y-64499998D01*
X114290752Y-64499998D02*
X114290752Y-64357141D01*
X114290752Y-64357141D02*
X114338371Y-64261903D01*
X114338371Y-64261903D02*
X114433609Y-64214284D01*
X114433609Y-64214284D02*
X114957419Y-64214284D01*
X114290752Y-63880950D02*
X114290752Y-63499998D01*
X113957419Y-63738093D02*
X114814561Y-63738093D01*
X114814561Y-63738093D02*
X114909800Y-63690474D01*
X114909800Y-63690474D02*
X114957419Y-63595236D01*
X114957419Y-63595236D02*
X114957419Y-63499998D01*
X114957419Y-63166664D02*
X114290752Y-63166664D01*
X113957419Y-63166664D02*
X114005038Y-63214283D01*
X114005038Y-63214283D02*
X114052657Y-63166664D01*
X114052657Y-63166664D02*
X114005038Y-63119045D01*
X114005038Y-63119045D02*
X113957419Y-63166664D01*
X113957419Y-63166664D02*
X114052657Y-63166664D01*
X114957419Y-62547617D02*
X114909800Y-62642855D01*
X114909800Y-62642855D02*
X114862180Y-62690474D01*
X114862180Y-62690474D02*
X114766942Y-62738093D01*
X114766942Y-62738093D02*
X114481228Y-62738093D01*
X114481228Y-62738093D02*
X114385990Y-62690474D01*
X114385990Y-62690474D02*
X114338371Y-62642855D01*
X114338371Y-62642855D02*
X114290752Y-62547617D01*
X114290752Y-62547617D02*
X114290752Y-62404760D01*
X114290752Y-62404760D02*
X114338371Y-62309522D01*
X114338371Y-62309522D02*
X114385990Y-62261903D01*
X114385990Y-62261903D02*
X114481228Y-62214284D01*
X114481228Y-62214284D02*
X114766942Y-62214284D01*
X114766942Y-62214284D02*
X114862180Y-62261903D01*
X114862180Y-62261903D02*
X114909800Y-62309522D01*
X114909800Y-62309522D02*
X114957419Y-62404760D01*
X114957419Y-62404760D02*
X114957419Y-62547617D01*
X114957419Y-61785712D02*
X114290752Y-61785712D01*
X114385990Y-61785712D02*
X114338371Y-61738093D01*
X114338371Y-61738093D02*
X114290752Y-61642855D01*
X114290752Y-61642855D02*
X114290752Y-61499998D01*
X114290752Y-61499998D02*
X114338371Y-61404760D01*
X114338371Y-61404760D02*
X114433609Y-61357141D01*
X114433609Y-61357141D02*
X114957419Y-61357141D01*
X114433609Y-61357141D02*
X114338371Y-61309522D01*
X114338371Y-61309522D02*
X114290752Y-61214284D01*
X114290752Y-61214284D02*
X114290752Y-61071427D01*
X114290752Y-61071427D02*
X114338371Y-60976188D01*
X114338371Y-60976188D02*
X114433609Y-60928569D01*
X114433609Y-60928569D02*
X114957419Y-60928569D01*
X114909800Y-60071427D02*
X114957419Y-60166665D01*
X114957419Y-60166665D02*
X114957419Y-60357141D01*
X114957419Y-60357141D02*
X114909800Y-60452379D01*
X114909800Y-60452379D02*
X114814561Y-60499998D01*
X114814561Y-60499998D02*
X114433609Y-60499998D01*
X114433609Y-60499998D02*
X114338371Y-60452379D01*
X114338371Y-60452379D02*
X114290752Y-60357141D01*
X114290752Y-60357141D02*
X114290752Y-60166665D01*
X114290752Y-60166665D02*
X114338371Y-60071427D01*
X114338371Y-60071427D02*
X114433609Y-60023808D01*
X114433609Y-60023808D02*
X114528847Y-60023808D01*
X114528847Y-60023808D02*
X114624085Y-60499998D01*
X114290752Y-59738093D02*
X114290752Y-59357141D01*
X113957419Y-59595236D02*
X114814561Y-59595236D01*
X114814561Y-59595236D02*
X114909800Y-59547617D01*
X114909800Y-59547617D02*
X114957419Y-59452379D01*
X114957419Y-59452379D02*
X114957419Y-59357141D01*
X114909800Y-58642855D02*
X114957419Y-58738093D01*
X114957419Y-58738093D02*
X114957419Y-58928569D01*
X114957419Y-58928569D02*
X114909800Y-59023807D01*
X114909800Y-59023807D02*
X114814561Y-59071426D01*
X114814561Y-59071426D02*
X114433609Y-59071426D01*
X114433609Y-59071426D02*
X114338371Y-59023807D01*
X114338371Y-59023807D02*
X114290752Y-58928569D01*
X114290752Y-58928569D02*
X114290752Y-58738093D01*
X114290752Y-58738093D02*
X114338371Y-58642855D01*
X114338371Y-58642855D02*
X114433609Y-58595236D01*
X114433609Y-58595236D02*
X114528847Y-58595236D01*
X114528847Y-58595236D02*
X114624085Y-59071426D01*
X114957419Y-58166664D02*
X114290752Y-58166664D01*
X114481228Y-58166664D02*
X114385990Y-58119045D01*
X114385990Y-58119045D02*
X114338371Y-58071426D01*
X114338371Y-58071426D02*
X114290752Y-57976188D01*
X114290752Y-57976188D02*
X114290752Y-57880950D01*
X113957419Y-57071426D02*
X113957419Y-57547616D01*
X113957419Y-57547616D02*
X114433609Y-57595235D01*
X114433609Y-57595235D02*
X114385990Y-57547616D01*
X114385990Y-57547616D02*
X114338371Y-57452378D01*
X114338371Y-57452378D02*
X114338371Y-57214283D01*
X114338371Y-57214283D02*
X114385990Y-57119045D01*
X114385990Y-57119045D02*
X114433609Y-57071426D01*
X114433609Y-57071426D02*
X114528847Y-57023807D01*
X114528847Y-57023807D02*
X114766942Y-57023807D01*
X114766942Y-57023807D02*
X114862180Y-57071426D01*
X114862180Y-57071426D02*
X114909800Y-57119045D01*
X114909800Y-57119045D02*
X114957419Y-57214283D01*
X114957419Y-57214283D02*
X114957419Y-57452378D01*
X114957419Y-57452378D02*
X114909800Y-57547616D01*
X114909800Y-57547616D02*
X114862180Y-57595235D01*
D12*
X83665714Y-61109104D02*
X84141904Y-61109104D01*
X83570476Y-61394819D02*
X83903809Y-60394819D01*
X83903809Y-60394819D02*
X84237142Y-61394819D01*
X85094285Y-61394819D02*
X84522857Y-61394819D01*
X84808571Y-61394819D02*
X84808571Y-60394819D01*
X84808571Y-60394819D02*
X84713333Y-60537676D01*
X84713333Y-60537676D02*
X84618095Y-60632914D01*
X84618095Y-60632914D02*
X84522857Y-60680533D01*
X85641904Y-20845180D02*
X85641904Y-20035657D01*
X85641904Y-20035657D02*
X85594285Y-19940419D01*
X85594285Y-19940419D02*
X85546666Y-19892800D01*
X85546666Y-19892800D02*
X85451428Y-19845180D01*
X85451428Y-19845180D02*
X85260952Y-19845180D01*
X85260952Y-19845180D02*
X85165714Y-19892800D01*
X85165714Y-19892800D02*
X85118095Y-19940419D01*
X85118095Y-19940419D02*
X85070476Y-20035657D01*
X85070476Y-20035657D02*
X85070476Y-20845180D01*
X84641904Y-19892800D02*
X84499047Y-19845180D01*
X84499047Y-19845180D02*
X84260952Y-19845180D01*
X84260952Y-19845180D02*
X84165714Y-19892800D01*
X84165714Y-19892800D02*
X84118095Y-19940419D01*
X84118095Y-19940419D02*
X84070476Y-20035657D01*
X84070476Y-20035657D02*
X84070476Y-20130895D01*
X84070476Y-20130895D02*
X84118095Y-20226133D01*
X84118095Y-20226133D02*
X84165714Y-20273752D01*
X84165714Y-20273752D02*
X84260952Y-20321371D01*
X84260952Y-20321371D02*
X84451428Y-20368990D01*
X84451428Y-20368990D02*
X84546666Y-20416609D01*
X84546666Y-20416609D02*
X84594285Y-20464228D01*
X84594285Y-20464228D02*
X84641904Y-20559466D01*
X84641904Y-20559466D02*
X84641904Y-20654704D01*
X84641904Y-20654704D02*
X84594285Y-20749942D01*
X84594285Y-20749942D02*
X84546666Y-20797561D01*
X84546666Y-20797561D02*
X84451428Y-20845180D01*
X84451428Y-20845180D02*
X84213333Y-20845180D01*
X84213333Y-20845180D02*
X84070476Y-20797561D01*
X83308571Y-20368990D02*
X83165714Y-20321371D01*
X83165714Y-20321371D02*
X83118095Y-20273752D01*
X83118095Y-20273752D02*
X83070476Y-20178514D01*
X83070476Y-20178514D02*
X83070476Y-20035657D01*
X83070476Y-20035657D02*
X83118095Y-19940419D01*
X83118095Y-19940419D02*
X83165714Y-19892800D01*
X83165714Y-19892800D02*
X83260952Y-19845180D01*
X83260952Y-19845180D02*
X83641904Y-19845180D01*
X83641904Y-19845180D02*
X83641904Y-20845180D01*
X83641904Y-20845180D02*
X83308571Y-20845180D01*
X83308571Y-20845180D02*
X83213333Y-20797561D01*
X83213333Y-20797561D02*
X83165714Y-20749942D01*
X83165714Y-20749942D02*
X83118095Y-20654704D01*
X83118095Y-20654704D02*
X83118095Y-20559466D01*
X83118095Y-20559466D02*
X83165714Y-20464228D01*
X83165714Y-20464228D02*
X83213333Y-20416609D01*
X83213333Y-20416609D02*
X83308571Y-20368990D01*
X83308571Y-20368990D02*
X83641904Y-20368990D01*
D11*
X69957419Y-78928572D02*
X68957419Y-78928572D01*
X68957419Y-78928572D02*
X68957419Y-78690477D01*
X68957419Y-78690477D02*
X69005038Y-78547620D01*
X69005038Y-78547620D02*
X69100276Y-78452382D01*
X69100276Y-78452382D02*
X69195514Y-78404763D01*
X69195514Y-78404763D02*
X69385990Y-78357144D01*
X69385990Y-78357144D02*
X69528847Y-78357144D01*
X69528847Y-78357144D02*
X69719323Y-78404763D01*
X69719323Y-78404763D02*
X69814561Y-78452382D01*
X69814561Y-78452382D02*
X69909800Y-78547620D01*
X69909800Y-78547620D02*
X69957419Y-78690477D01*
X69957419Y-78690477D02*
X69957419Y-78928572D01*
X69957419Y-77785715D02*
X69909800Y-77880953D01*
X69909800Y-77880953D02*
X69862180Y-77928572D01*
X69862180Y-77928572D02*
X69766942Y-77976191D01*
X69766942Y-77976191D02*
X69481228Y-77976191D01*
X69481228Y-77976191D02*
X69385990Y-77928572D01*
X69385990Y-77928572D02*
X69338371Y-77880953D01*
X69338371Y-77880953D02*
X69290752Y-77785715D01*
X69290752Y-77785715D02*
X69290752Y-77642858D01*
X69290752Y-77642858D02*
X69338371Y-77547620D01*
X69338371Y-77547620D02*
X69385990Y-77500001D01*
X69385990Y-77500001D02*
X69481228Y-77452382D01*
X69481228Y-77452382D02*
X69766942Y-77452382D01*
X69766942Y-77452382D02*
X69862180Y-77500001D01*
X69862180Y-77500001D02*
X69909800Y-77547620D01*
X69909800Y-77547620D02*
X69957419Y-77642858D01*
X69957419Y-77642858D02*
X69957419Y-77785715D01*
X69290752Y-76595239D02*
X69957419Y-76595239D01*
X69290752Y-77023810D02*
X69814561Y-77023810D01*
X69814561Y-77023810D02*
X69909800Y-76976191D01*
X69909800Y-76976191D02*
X69957419Y-76880953D01*
X69957419Y-76880953D02*
X69957419Y-76738096D01*
X69957419Y-76738096D02*
X69909800Y-76642858D01*
X69909800Y-76642858D02*
X69862180Y-76595239D01*
X69957419Y-76119048D02*
X68957419Y-76119048D01*
X69338371Y-76119048D02*
X69290752Y-76023810D01*
X69290752Y-76023810D02*
X69290752Y-75833334D01*
X69290752Y-75833334D02*
X69338371Y-75738096D01*
X69338371Y-75738096D02*
X69385990Y-75690477D01*
X69385990Y-75690477D02*
X69481228Y-75642858D01*
X69481228Y-75642858D02*
X69766942Y-75642858D01*
X69766942Y-75642858D02*
X69862180Y-75690477D01*
X69862180Y-75690477D02*
X69909800Y-75738096D01*
X69909800Y-75738096D02*
X69957419Y-75833334D01*
X69957419Y-75833334D02*
X69957419Y-76023810D01*
X69957419Y-76023810D02*
X69909800Y-76119048D01*
X69957419Y-75071429D02*
X69909800Y-75166667D01*
X69909800Y-75166667D02*
X69814561Y-75214286D01*
X69814561Y-75214286D02*
X68957419Y-75214286D01*
X69909800Y-74309524D02*
X69957419Y-74404762D01*
X69957419Y-74404762D02*
X69957419Y-74595238D01*
X69957419Y-74595238D02*
X69909800Y-74690476D01*
X69909800Y-74690476D02*
X69814561Y-74738095D01*
X69814561Y-74738095D02*
X69433609Y-74738095D01*
X69433609Y-74738095D02*
X69338371Y-74690476D01*
X69338371Y-74690476D02*
X69290752Y-74595238D01*
X69290752Y-74595238D02*
X69290752Y-74404762D01*
X69290752Y-74404762D02*
X69338371Y-74309524D01*
X69338371Y-74309524D02*
X69433609Y-74261905D01*
X69433609Y-74261905D02*
X69528847Y-74261905D01*
X69528847Y-74261905D02*
X69624085Y-74738095D01*
X70052657Y-74071429D02*
X70052657Y-73309524D01*
X69909800Y-73119047D02*
X69957419Y-72976190D01*
X69957419Y-72976190D02*
X69957419Y-72738095D01*
X69957419Y-72738095D02*
X69909800Y-72642857D01*
X69909800Y-72642857D02*
X69862180Y-72595238D01*
X69862180Y-72595238D02*
X69766942Y-72547619D01*
X69766942Y-72547619D02*
X69671704Y-72547619D01*
X69671704Y-72547619D02*
X69576466Y-72595238D01*
X69576466Y-72595238D02*
X69528847Y-72642857D01*
X69528847Y-72642857D02*
X69481228Y-72738095D01*
X69481228Y-72738095D02*
X69433609Y-72928571D01*
X69433609Y-72928571D02*
X69385990Y-73023809D01*
X69385990Y-73023809D02*
X69338371Y-73071428D01*
X69338371Y-73071428D02*
X69243133Y-73119047D01*
X69243133Y-73119047D02*
X69147895Y-73119047D01*
X69147895Y-73119047D02*
X69052657Y-73071428D01*
X69052657Y-73071428D02*
X69005038Y-73023809D01*
X69005038Y-73023809D02*
X68957419Y-72928571D01*
X68957419Y-72928571D02*
X68957419Y-72690476D01*
X68957419Y-72690476D02*
X69005038Y-72547619D01*
X69957419Y-71976190D02*
X69909800Y-72071428D01*
X69909800Y-72071428D02*
X69814561Y-72119047D01*
X69814561Y-72119047D02*
X68957419Y-72119047D01*
X69957419Y-71595237D02*
X69290752Y-71595237D01*
X68957419Y-71595237D02*
X69005038Y-71642856D01*
X69005038Y-71642856D02*
X69052657Y-71595237D01*
X69052657Y-71595237D02*
X69005038Y-71547618D01*
X69005038Y-71547618D02*
X68957419Y-71595237D01*
X68957419Y-71595237D02*
X69052657Y-71595237D01*
X69957419Y-70690476D02*
X68957419Y-70690476D01*
X69909800Y-70690476D02*
X69957419Y-70785714D01*
X69957419Y-70785714D02*
X69957419Y-70976190D01*
X69957419Y-70976190D02*
X69909800Y-71071428D01*
X69909800Y-71071428D02*
X69862180Y-71119047D01*
X69862180Y-71119047D02*
X69766942Y-71166666D01*
X69766942Y-71166666D02*
X69481228Y-71166666D01*
X69481228Y-71166666D02*
X69385990Y-71119047D01*
X69385990Y-71119047D02*
X69338371Y-71071428D01*
X69338371Y-71071428D02*
X69290752Y-70976190D01*
X69290752Y-70976190D02*
X69290752Y-70785714D01*
X69290752Y-70785714D02*
X69338371Y-70690476D01*
X69909800Y-69833333D02*
X69957419Y-69928571D01*
X69957419Y-69928571D02*
X69957419Y-70119047D01*
X69957419Y-70119047D02*
X69909800Y-70214285D01*
X69909800Y-70214285D02*
X69814561Y-70261904D01*
X69814561Y-70261904D02*
X69433609Y-70261904D01*
X69433609Y-70261904D02*
X69338371Y-70214285D01*
X69338371Y-70214285D02*
X69290752Y-70119047D01*
X69290752Y-70119047D02*
X69290752Y-69928571D01*
X69290752Y-69928571D02*
X69338371Y-69833333D01*
X69338371Y-69833333D02*
X69433609Y-69785714D01*
X69433609Y-69785714D02*
X69528847Y-69785714D01*
X69528847Y-69785714D02*
X69624085Y-70261904D01*
X69957419Y-69357142D02*
X69290752Y-69357142D01*
X69481228Y-69357142D02*
X69385990Y-69309523D01*
X69385990Y-69309523D02*
X69338371Y-69261904D01*
X69338371Y-69261904D02*
X69290752Y-69166666D01*
X69290752Y-69166666D02*
X69290752Y-69071428D01*
X70052657Y-68976190D02*
X70052657Y-68214285D01*
X69957419Y-67976189D02*
X68957419Y-67976189D01*
X68957419Y-67976189D02*
X68957419Y-67595237D01*
X68957419Y-67595237D02*
X69005038Y-67499999D01*
X69005038Y-67499999D02*
X69052657Y-67452380D01*
X69052657Y-67452380D02*
X69147895Y-67404761D01*
X69147895Y-67404761D02*
X69290752Y-67404761D01*
X69290752Y-67404761D02*
X69385990Y-67452380D01*
X69385990Y-67452380D02*
X69433609Y-67499999D01*
X69433609Y-67499999D02*
X69481228Y-67595237D01*
X69481228Y-67595237D02*
X69481228Y-67976189D01*
X69957419Y-66833332D02*
X69909800Y-66928570D01*
X69909800Y-66928570D02*
X69862180Y-66976189D01*
X69862180Y-66976189D02*
X69766942Y-67023808D01*
X69766942Y-67023808D02*
X69481228Y-67023808D01*
X69481228Y-67023808D02*
X69385990Y-66976189D01*
X69385990Y-66976189D02*
X69338371Y-66928570D01*
X69338371Y-66928570D02*
X69290752Y-66833332D01*
X69290752Y-66833332D02*
X69290752Y-66690475D01*
X69290752Y-66690475D02*
X69338371Y-66595237D01*
X69338371Y-66595237D02*
X69385990Y-66547618D01*
X69385990Y-66547618D02*
X69481228Y-66499999D01*
X69481228Y-66499999D02*
X69766942Y-66499999D01*
X69766942Y-66499999D02*
X69862180Y-66547618D01*
X69862180Y-66547618D02*
X69909800Y-66595237D01*
X69909800Y-66595237D02*
X69957419Y-66690475D01*
X69957419Y-66690475D02*
X69957419Y-66833332D01*
X69290752Y-66214284D02*
X69290752Y-65833332D01*
X68957419Y-66071427D02*
X69814561Y-66071427D01*
X69814561Y-66071427D02*
X69909800Y-66023808D01*
X69909800Y-66023808D02*
X69957419Y-65928570D01*
X69957419Y-65928570D02*
X69957419Y-65833332D01*
X69909800Y-65119046D02*
X69957419Y-65214284D01*
X69957419Y-65214284D02*
X69957419Y-65404760D01*
X69957419Y-65404760D02*
X69909800Y-65499998D01*
X69909800Y-65499998D02*
X69814561Y-65547617D01*
X69814561Y-65547617D02*
X69433609Y-65547617D01*
X69433609Y-65547617D02*
X69338371Y-65499998D01*
X69338371Y-65499998D02*
X69290752Y-65404760D01*
X69290752Y-65404760D02*
X69290752Y-65214284D01*
X69290752Y-65214284D02*
X69338371Y-65119046D01*
X69338371Y-65119046D02*
X69433609Y-65071427D01*
X69433609Y-65071427D02*
X69528847Y-65071427D01*
X69528847Y-65071427D02*
X69624085Y-65547617D01*
X69290752Y-64642855D02*
X69957419Y-64642855D01*
X69385990Y-64642855D02*
X69338371Y-64595236D01*
X69338371Y-64595236D02*
X69290752Y-64499998D01*
X69290752Y-64499998D02*
X69290752Y-64357141D01*
X69290752Y-64357141D02*
X69338371Y-64261903D01*
X69338371Y-64261903D02*
X69433609Y-64214284D01*
X69433609Y-64214284D02*
X69957419Y-64214284D01*
X69290752Y-63880950D02*
X69290752Y-63499998D01*
X68957419Y-63738093D02*
X69814561Y-63738093D01*
X69814561Y-63738093D02*
X69909800Y-63690474D01*
X69909800Y-63690474D02*
X69957419Y-63595236D01*
X69957419Y-63595236D02*
X69957419Y-63499998D01*
X69957419Y-63166664D02*
X69290752Y-63166664D01*
X68957419Y-63166664D02*
X69005038Y-63214283D01*
X69005038Y-63214283D02*
X69052657Y-63166664D01*
X69052657Y-63166664D02*
X69005038Y-63119045D01*
X69005038Y-63119045D02*
X68957419Y-63166664D01*
X68957419Y-63166664D02*
X69052657Y-63166664D01*
X69957419Y-62547617D02*
X69909800Y-62642855D01*
X69909800Y-62642855D02*
X69862180Y-62690474D01*
X69862180Y-62690474D02*
X69766942Y-62738093D01*
X69766942Y-62738093D02*
X69481228Y-62738093D01*
X69481228Y-62738093D02*
X69385990Y-62690474D01*
X69385990Y-62690474D02*
X69338371Y-62642855D01*
X69338371Y-62642855D02*
X69290752Y-62547617D01*
X69290752Y-62547617D02*
X69290752Y-62404760D01*
X69290752Y-62404760D02*
X69338371Y-62309522D01*
X69338371Y-62309522D02*
X69385990Y-62261903D01*
X69385990Y-62261903D02*
X69481228Y-62214284D01*
X69481228Y-62214284D02*
X69766942Y-62214284D01*
X69766942Y-62214284D02*
X69862180Y-62261903D01*
X69862180Y-62261903D02*
X69909800Y-62309522D01*
X69909800Y-62309522D02*
X69957419Y-62404760D01*
X69957419Y-62404760D02*
X69957419Y-62547617D01*
X69957419Y-61785712D02*
X69290752Y-61785712D01*
X69385990Y-61785712D02*
X69338371Y-61738093D01*
X69338371Y-61738093D02*
X69290752Y-61642855D01*
X69290752Y-61642855D02*
X69290752Y-61499998D01*
X69290752Y-61499998D02*
X69338371Y-61404760D01*
X69338371Y-61404760D02*
X69433609Y-61357141D01*
X69433609Y-61357141D02*
X69957419Y-61357141D01*
X69433609Y-61357141D02*
X69338371Y-61309522D01*
X69338371Y-61309522D02*
X69290752Y-61214284D01*
X69290752Y-61214284D02*
X69290752Y-61071427D01*
X69290752Y-61071427D02*
X69338371Y-60976188D01*
X69338371Y-60976188D02*
X69433609Y-60928569D01*
X69433609Y-60928569D02*
X69957419Y-60928569D01*
X69909800Y-60071427D02*
X69957419Y-60166665D01*
X69957419Y-60166665D02*
X69957419Y-60357141D01*
X69957419Y-60357141D02*
X69909800Y-60452379D01*
X69909800Y-60452379D02*
X69814561Y-60499998D01*
X69814561Y-60499998D02*
X69433609Y-60499998D01*
X69433609Y-60499998D02*
X69338371Y-60452379D01*
X69338371Y-60452379D02*
X69290752Y-60357141D01*
X69290752Y-60357141D02*
X69290752Y-60166665D01*
X69290752Y-60166665D02*
X69338371Y-60071427D01*
X69338371Y-60071427D02*
X69433609Y-60023808D01*
X69433609Y-60023808D02*
X69528847Y-60023808D01*
X69528847Y-60023808D02*
X69624085Y-60499998D01*
X69290752Y-59738093D02*
X69290752Y-59357141D01*
X68957419Y-59595236D02*
X69814561Y-59595236D01*
X69814561Y-59595236D02*
X69909800Y-59547617D01*
X69909800Y-59547617D02*
X69957419Y-59452379D01*
X69957419Y-59452379D02*
X69957419Y-59357141D01*
X69909800Y-58642855D02*
X69957419Y-58738093D01*
X69957419Y-58738093D02*
X69957419Y-58928569D01*
X69957419Y-58928569D02*
X69909800Y-59023807D01*
X69909800Y-59023807D02*
X69814561Y-59071426D01*
X69814561Y-59071426D02*
X69433609Y-59071426D01*
X69433609Y-59071426D02*
X69338371Y-59023807D01*
X69338371Y-59023807D02*
X69290752Y-58928569D01*
X69290752Y-58928569D02*
X69290752Y-58738093D01*
X69290752Y-58738093D02*
X69338371Y-58642855D01*
X69338371Y-58642855D02*
X69433609Y-58595236D01*
X69433609Y-58595236D02*
X69528847Y-58595236D01*
X69528847Y-58595236D02*
X69624085Y-59071426D01*
X69957419Y-58166664D02*
X69290752Y-58166664D01*
X69481228Y-58166664D02*
X69385990Y-58119045D01*
X69385990Y-58119045D02*
X69338371Y-58071426D01*
X69338371Y-58071426D02*
X69290752Y-57976188D01*
X69290752Y-57976188D02*
X69290752Y-57880950D01*
X69052657Y-57595235D02*
X69005038Y-57547616D01*
X69005038Y-57547616D02*
X68957419Y-57452378D01*
X68957419Y-57452378D02*
X68957419Y-57214283D01*
X68957419Y-57214283D02*
X69005038Y-57119045D01*
X69005038Y-57119045D02*
X69052657Y-57071426D01*
X69052657Y-57071426D02*
X69147895Y-57023807D01*
X69147895Y-57023807D02*
X69243133Y-57023807D01*
X69243133Y-57023807D02*
X69385990Y-57071426D01*
X69385990Y-57071426D02*
X69957419Y-57642854D01*
X69957419Y-57642854D02*
X69957419Y-57023807D01*
X54957419Y-78928572D02*
X53957419Y-78928572D01*
X53957419Y-78928572D02*
X53957419Y-78690477D01*
X53957419Y-78690477D02*
X54005038Y-78547620D01*
X54005038Y-78547620D02*
X54100276Y-78452382D01*
X54100276Y-78452382D02*
X54195514Y-78404763D01*
X54195514Y-78404763D02*
X54385990Y-78357144D01*
X54385990Y-78357144D02*
X54528847Y-78357144D01*
X54528847Y-78357144D02*
X54719323Y-78404763D01*
X54719323Y-78404763D02*
X54814561Y-78452382D01*
X54814561Y-78452382D02*
X54909800Y-78547620D01*
X54909800Y-78547620D02*
X54957419Y-78690477D01*
X54957419Y-78690477D02*
X54957419Y-78928572D01*
X54957419Y-77785715D02*
X54909800Y-77880953D01*
X54909800Y-77880953D02*
X54862180Y-77928572D01*
X54862180Y-77928572D02*
X54766942Y-77976191D01*
X54766942Y-77976191D02*
X54481228Y-77976191D01*
X54481228Y-77976191D02*
X54385990Y-77928572D01*
X54385990Y-77928572D02*
X54338371Y-77880953D01*
X54338371Y-77880953D02*
X54290752Y-77785715D01*
X54290752Y-77785715D02*
X54290752Y-77642858D01*
X54290752Y-77642858D02*
X54338371Y-77547620D01*
X54338371Y-77547620D02*
X54385990Y-77500001D01*
X54385990Y-77500001D02*
X54481228Y-77452382D01*
X54481228Y-77452382D02*
X54766942Y-77452382D01*
X54766942Y-77452382D02*
X54862180Y-77500001D01*
X54862180Y-77500001D02*
X54909800Y-77547620D01*
X54909800Y-77547620D02*
X54957419Y-77642858D01*
X54957419Y-77642858D02*
X54957419Y-77785715D01*
X54290752Y-76595239D02*
X54957419Y-76595239D01*
X54290752Y-77023810D02*
X54814561Y-77023810D01*
X54814561Y-77023810D02*
X54909800Y-76976191D01*
X54909800Y-76976191D02*
X54957419Y-76880953D01*
X54957419Y-76880953D02*
X54957419Y-76738096D01*
X54957419Y-76738096D02*
X54909800Y-76642858D01*
X54909800Y-76642858D02*
X54862180Y-76595239D01*
X54957419Y-76119048D02*
X53957419Y-76119048D01*
X54338371Y-76119048D02*
X54290752Y-76023810D01*
X54290752Y-76023810D02*
X54290752Y-75833334D01*
X54290752Y-75833334D02*
X54338371Y-75738096D01*
X54338371Y-75738096D02*
X54385990Y-75690477D01*
X54385990Y-75690477D02*
X54481228Y-75642858D01*
X54481228Y-75642858D02*
X54766942Y-75642858D01*
X54766942Y-75642858D02*
X54862180Y-75690477D01*
X54862180Y-75690477D02*
X54909800Y-75738096D01*
X54909800Y-75738096D02*
X54957419Y-75833334D01*
X54957419Y-75833334D02*
X54957419Y-76023810D01*
X54957419Y-76023810D02*
X54909800Y-76119048D01*
X54957419Y-75071429D02*
X54909800Y-75166667D01*
X54909800Y-75166667D02*
X54814561Y-75214286D01*
X54814561Y-75214286D02*
X53957419Y-75214286D01*
X54909800Y-74309524D02*
X54957419Y-74404762D01*
X54957419Y-74404762D02*
X54957419Y-74595238D01*
X54957419Y-74595238D02*
X54909800Y-74690476D01*
X54909800Y-74690476D02*
X54814561Y-74738095D01*
X54814561Y-74738095D02*
X54433609Y-74738095D01*
X54433609Y-74738095D02*
X54338371Y-74690476D01*
X54338371Y-74690476D02*
X54290752Y-74595238D01*
X54290752Y-74595238D02*
X54290752Y-74404762D01*
X54290752Y-74404762D02*
X54338371Y-74309524D01*
X54338371Y-74309524D02*
X54433609Y-74261905D01*
X54433609Y-74261905D02*
X54528847Y-74261905D01*
X54528847Y-74261905D02*
X54624085Y-74738095D01*
X55052657Y-74071429D02*
X55052657Y-73309524D01*
X54909800Y-73119047D02*
X54957419Y-72976190D01*
X54957419Y-72976190D02*
X54957419Y-72738095D01*
X54957419Y-72738095D02*
X54909800Y-72642857D01*
X54909800Y-72642857D02*
X54862180Y-72595238D01*
X54862180Y-72595238D02*
X54766942Y-72547619D01*
X54766942Y-72547619D02*
X54671704Y-72547619D01*
X54671704Y-72547619D02*
X54576466Y-72595238D01*
X54576466Y-72595238D02*
X54528847Y-72642857D01*
X54528847Y-72642857D02*
X54481228Y-72738095D01*
X54481228Y-72738095D02*
X54433609Y-72928571D01*
X54433609Y-72928571D02*
X54385990Y-73023809D01*
X54385990Y-73023809D02*
X54338371Y-73071428D01*
X54338371Y-73071428D02*
X54243133Y-73119047D01*
X54243133Y-73119047D02*
X54147895Y-73119047D01*
X54147895Y-73119047D02*
X54052657Y-73071428D01*
X54052657Y-73071428D02*
X54005038Y-73023809D01*
X54005038Y-73023809D02*
X53957419Y-72928571D01*
X53957419Y-72928571D02*
X53957419Y-72690476D01*
X53957419Y-72690476D02*
X54005038Y-72547619D01*
X54957419Y-71976190D02*
X54909800Y-72071428D01*
X54909800Y-72071428D02*
X54814561Y-72119047D01*
X54814561Y-72119047D02*
X53957419Y-72119047D01*
X54957419Y-71595237D02*
X54290752Y-71595237D01*
X53957419Y-71595237D02*
X54005038Y-71642856D01*
X54005038Y-71642856D02*
X54052657Y-71595237D01*
X54052657Y-71595237D02*
X54005038Y-71547618D01*
X54005038Y-71547618D02*
X53957419Y-71595237D01*
X53957419Y-71595237D02*
X54052657Y-71595237D01*
X54957419Y-70690476D02*
X53957419Y-70690476D01*
X54909800Y-70690476D02*
X54957419Y-70785714D01*
X54957419Y-70785714D02*
X54957419Y-70976190D01*
X54957419Y-70976190D02*
X54909800Y-71071428D01*
X54909800Y-71071428D02*
X54862180Y-71119047D01*
X54862180Y-71119047D02*
X54766942Y-71166666D01*
X54766942Y-71166666D02*
X54481228Y-71166666D01*
X54481228Y-71166666D02*
X54385990Y-71119047D01*
X54385990Y-71119047D02*
X54338371Y-71071428D01*
X54338371Y-71071428D02*
X54290752Y-70976190D01*
X54290752Y-70976190D02*
X54290752Y-70785714D01*
X54290752Y-70785714D02*
X54338371Y-70690476D01*
X54909800Y-69833333D02*
X54957419Y-69928571D01*
X54957419Y-69928571D02*
X54957419Y-70119047D01*
X54957419Y-70119047D02*
X54909800Y-70214285D01*
X54909800Y-70214285D02*
X54814561Y-70261904D01*
X54814561Y-70261904D02*
X54433609Y-70261904D01*
X54433609Y-70261904D02*
X54338371Y-70214285D01*
X54338371Y-70214285D02*
X54290752Y-70119047D01*
X54290752Y-70119047D02*
X54290752Y-69928571D01*
X54290752Y-69928571D02*
X54338371Y-69833333D01*
X54338371Y-69833333D02*
X54433609Y-69785714D01*
X54433609Y-69785714D02*
X54528847Y-69785714D01*
X54528847Y-69785714D02*
X54624085Y-70261904D01*
X54957419Y-69357142D02*
X54290752Y-69357142D01*
X54481228Y-69357142D02*
X54385990Y-69309523D01*
X54385990Y-69309523D02*
X54338371Y-69261904D01*
X54338371Y-69261904D02*
X54290752Y-69166666D01*
X54290752Y-69166666D02*
X54290752Y-69071428D01*
X55052657Y-68976190D02*
X55052657Y-68214285D01*
X54957419Y-67976189D02*
X53957419Y-67976189D01*
X53957419Y-67976189D02*
X53957419Y-67595237D01*
X53957419Y-67595237D02*
X54005038Y-67499999D01*
X54005038Y-67499999D02*
X54052657Y-67452380D01*
X54052657Y-67452380D02*
X54147895Y-67404761D01*
X54147895Y-67404761D02*
X54290752Y-67404761D01*
X54290752Y-67404761D02*
X54385990Y-67452380D01*
X54385990Y-67452380D02*
X54433609Y-67499999D01*
X54433609Y-67499999D02*
X54481228Y-67595237D01*
X54481228Y-67595237D02*
X54481228Y-67976189D01*
X54957419Y-66833332D02*
X54909800Y-66928570D01*
X54909800Y-66928570D02*
X54862180Y-66976189D01*
X54862180Y-66976189D02*
X54766942Y-67023808D01*
X54766942Y-67023808D02*
X54481228Y-67023808D01*
X54481228Y-67023808D02*
X54385990Y-66976189D01*
X54385990Y-66976189D02*
X54338371Y-66928570D01*
X54338371Y-66928570D02*
X54290752Y-66833332D01*
X54290752Y-66833332D02*
X54290752Y-66690475D01*
X54290752Y-66690475D02*
X54338371Y-66595237D01*
X54338371Y-66595237D02*
X54385990Y-66547618D01*
X54385990Y-66547618D02*
X54481228Y-66499999D01*
X54481228Y-66499999D02*
X54766942Y-66499999D01*
X54766942Y-66499999D02*
X54862180Y-66547618D01*
X54862180Y-66547618D02*
X54909800Y-66595237D01*
X54909800Y-66595237D02*
X54957419Y-66690475D01*
X54957419Y-66690475D02*
X54957419Y-66833332D01*
X54290752Y-66214284D02*
X54290752Y-65833332D01*
X53957419Y-66071427D02*
X54814561Y-66071427D01*
X54814561Y-66071427D02*
X54909800Y-66023808D01*
X54909800Y-66023808D02*
X54957419Y-65928570D01*
X54957419Y-65928570D02*
X54957419Y-65833332D01*
X54909800Y-65119046D02*
X54957419Y-65214284D01*
X54957419Y-65214284D02*
X54957419Y-65404760D01*
X54957419Y-65404760D02*
X54909800Y-65499998D01*
X54909800Y-65499998D02*
X54814561Y-65547617D01*
X54814561Y-65547617D02*
X54433609Y-65547617D01*
X54433609Y-65547617D02*
X54338371Y-65499998D01*
X54338371Y-65499998D02*
X54290752Y-65404760D01*
X54290752Y-65404760D02*
X54290752Y-65214284D01*
X54290752Y-65214284D02*
X54338371Y-65119046D01*
X54338371Y-65119046D02*
X54433609Y-65071427D01*
X54433609Y-65071427D02*
X54528847Y-65071427D01*
X54528847Y-65071427D02*
X54624085Y-65547617D01*
X54290752Y-64642855D02*
X54957419Y-64642855D01*
X54385990Y-64642855D02*
X54338371Y-64595236D01*
X54338371Y-64595236D02*
X54290752Y-64499998D01*
X54290752Y-64499998D02*
X54290752Y-64357141D01*
X54290752Y-64357141D02*
X54338371Y-64261903D01*
X54338371Y-64261903D02*
X54433609Y-64214284D01*
X54433609Y-64214284D02*
X54957419Y-64214284D01*
X54290752Y-63880950D02*
X54290752Y-63499998D01*
X53957419Y-63738093D02*
X54814561Y-63738093D01*
X54814561Y-63738093D02*
X54909800Y-63690474D01*
X54909800Y-63690474D02*
X54957419Y-63595236D01*
X54957419Y-63595236D02*
X54957419Y-63499998D01*
X54957419Y-63166664D02*
X54290752Y-63166664D01*
X53957419Y-63166664D02*
X54005038Y-63214283D01*
X54005038Y-63214283D02*
X54052657Y-63166664D01*
X54052657Y-63166664D02*
X54005038Y-63119045D01*
X54005038Y-63119045D02*
X53957419Y-63166664D01*
X53957419Y-63166664D02*
X54052657Y-63166664D01*
X54957419Y-62547617D02*
X54909800Y-62642855D01*
X54909800Y-62642855D02*
X54862180Y-62690474D01*
X54862180Y-62690474D02*
X54766942Y-62738093D01*
X54766942Y-62738093D02*
X54481228Y-62738093D01*
X54481228Y-62738093D02*
X54385990Y-62690474D01*
X54385990Y-62690474D02*
X54338371Y-62642855D01*
X54338371Y-62642855D02*
X54290752Y-62547617D01*
X54290752Y-62547617D02*
X54290752Y-62404760D01*
X54290752Y-62404760D02*
X54338371Y-62309522D01*
X54338371Y-62309522D02*
X54385990Y-62261903D01*
X54385990Y-62261903D02*
X54481228Y-62214284D01*
X54481228Y-62214284D02*
X54766942Y-62214284D01*
X54766942Y-62214284D02*
X54862180Y-62261903D01*
X54862180Y-62261903D02*
X54909800Y-62309522D01*
X54909800Y-62309522D02*
X54957419Y-62404760D01*
X54957419Y-62404760D02*
X54957419Y-62547617D01*
X54957419Y-61785712D02*
X54290752Y-61785712D01*
X54385990Y-61785712D02*
X54338371Y-61738093D01*
X54338371Y-61738093D02*
X54290752Y-61642855D01*
X54290752Y-61642855D02*
X54290752Y-61499998D01*
X54290752Y-61499998D02*
X54338371Y-61404760D01*
X54338371Y-61404760D02*
X54433609Y-61357141D01*
X54433609Y-61357141D02*
X54957419Y-61357141D01*
X54433609Y-61357141D02*
X54338371Y-61309522D01*
X54338371Y-61309522D02*
X54290752Y-61214284D01*
X54290752Y-61214284D02*
X54290752Y-61071427D01*
X54290752Y-61071427D02*
X54338371Y-60976188D01*
X54338371Y-60976188D02*
X54433609Y-60928569D01*
X54433609Y-60928569D02*
X54957419Y-60928569D01*
X54909800Y-60071427D02*
X54957419Y-60166665D01*
X54957419Y-60166665D02*
X54957419Y-60357141D01*
X54957419Y-60357141D02*
X54909800Y-60452379D01*
X54909800Y-60452379D02*
X54814561Y-60499998D01*
X54814561Y-60499998D02*
X54433609Y-60499998D01*
X54433609Y-60499998D02*
X54338371Y-60452379D01*
X54338371Y-60452379D02*
X54290752Y-60357141D01*
X54290752Y-60357141D02*
X54290752Y-60166665D01*
X54290752Y-60166665D02*
X54338371Y-60071427D01*
X54338371Y-60071427D02*
X54433609Y-60023808D01*
X54433609Y-60023808D02*
X54528847Y-60023808D01*
X54528847Y-60023808D02*
X54624085Y-60499998D01*
X54290752Y-59738093D02*
X54290752Y-59357141D01*
X53957419Y-59595236D02*
X54814561Y-59595236D01*
X54814561Y-59595236D02*
X54909800Y-59547617D01*
X54909800Y-59547617D02*
X54957419Y-59452379D01*
X54957419Y-59452379D02*
X54957419Y-59357141D01*
X54909800Y-58642855D02*
X54957419Y-58738093D01*
X54957419Y-58738093D02*
X54957419Y-58928569D01*
X54957419Y-58928569D02*
X54909800Y-59023807D01*
X54909800Y-59023807D02*
X54814561Y-59071426D01*
X54814561Y-59071426D02*
X54433609Y-59071426D01*
X54433609Y-59071426D02*
X54338371Y-59023807D01*
X54338371Y-59023807D02*
X54290752Y-58928569D01*
X54290752Y-58928569D02*
X54290752Y-58738093D01*
X54290752Y-58738093D02*
X54338371Y-58642855D01*
X54338371Y-58642855D02*
X54433609Y-58595236D01*
X54433609Y-58595236D02*
X54528847Y-58595236D01*
X54528847Y-58595236D02*
X54624085Y-59071426D01*
X54957419Y-58166664D02*
X54290752Y-58166664D01*
X54481228Y-58166664D02*
X54385990Y-58119045D01*
X54385990Y-58119045D02*
X54338371Y-58071426D01*
X54338371Y-58071426D02*
X54290752Y-57976188D01*
X54290752Y-57976188D02*
X54290752Y-57880950D01*
X54957419Y-57023807D02*
X54957419Y-57595235D01*
X54957419Y-57309521D02*
X53957419Y-57309521D01*
X53957419Y-57309521D02*
X54100276Y-57404759D01*
X54100276Y-57404759D02*
X54195514Y-57499997D01*
X54195514Y-57499997D02*
X54243133Y-57595235D01*
X99957419Y-78928572D02*
X98957419Y-78928572D01*
X98957419Y-78928572D02*
X98957419Y-78690477D01*
X98957419Y-78690477D02*
X99005038Y-78547620D01*
X99005038Y-78547620D02*
X99100276Y-78452382D01*
X99100276Y-78452382D02*
X99195514Y-78404763D01*
X99195514Y-78404763D02*
X99385990Y-78357144D01*
X99385990Y-78357144D02*
X99528847Y-78357144D01*
X99528847Y-78357144D02*
X99719323Y-78404763D01*
X99719323Y-78404763D02*
X99814561Y-78452382D01*
X99814561Y-78452382D02*
X99909800Y-78547620D01*
X99909800Y-78547620D02*
X99957419Y-78690477D01*
X99957419Y-78690477D02*
X99957419Y-78928572D01*
X99957419Y-77785715D02*
X99909800Y-77880953D01*
X99909800Y-77880953D02*
X99862180Y-77928572D01*
X99862180Y-77928572D02*
X99766942Y-77976191D01*
X99766942Y-77976191D02*
X99481228Y-77976191D01*
X99481228Y-77976191D02*
X99385990Y-77928572D01*
X99385990Y-77928572D02*
X99338371Y-77880953D01*
X99338371Y-77880953D02*
X99290752Y-77785715D01*
X99290752Y-77785715D02*
X99290752Y-77642858D01*
X99290752Y-77642858D02*
X99338371Y-77547620D01*
X99338371Y-77547620D02*
X99385990Y-77500001D01*
X99385990Y-77500001D02*
X99481228Y-77452382D01*
X99481228Y-77452382D02*
X99766942Y-77452382D01*
X99766942Y-77452382D02*
X99862180Y-77500001D01*
X99862180Y-77500001D02*
X99909800Y-77547620D01*
X99909800Y-77547620D02*
X99957419Y-77642858D01*
X99957419Y-77642858D02*
X99957419Y-77785715D01*
X99290752Y-76595239D02*
X99957419Y-76595239D01*
X99290752Y-77023810D02*
X99814561Y-77023810D01*
X99814561Y-77023810D02*
X99909800Y-76976191D01*
X99909800Y-76976191D02*
X99957419Y-76880953D01*
X99957419Y-76880953D02*
X99957419Y-76738096D01*
X99957419Y-76738096D02*
X99909800Y-76642858D01*
X99909800Y-76642858D02*
X99862180Y-76595239D01*
X99957419Y-76119048D02*
X98957419Y-76119048D01*
X99338371Y-76119048D02*
X99290752Y-76023810D01*
X99290752Y-76023810D02*
X99290752Y-75833334D01*
X99290752Y-75833334D02*
X99338371Y-75738096D01*
X99338371Y-75738096D02*
X99385990Y-75690477D01*
X99385990Y-75690477D02*
X99481228Y-75642858D01*
X99481228Y-75642858D02*
X99766942Y-75642858D01*
X99766942Y-75642858D02*
X99862180Y-75690477D01*
X99862180Y-75690477D02*
X99909800Y-75738096D01*
X99909800Y-75738096D02*
X99957419Y-75833334D01*
X99957419Y-75833334D02*
X99957419Y-76023810D01*
X99957419Y-76023810D02*
X99909800Y-76119048D01*
X99957419Y-75071429D02*
X99909800Y-75166667D01*
X99909800Y-75166667D02*
X99814561Y-75214286D01*
X99814561Y-75214286D02*
X98957419Y-75214286D01*
X99909800Y-74309524D02*
X99957419Y-74404762D01*
X99957419Y-74404762D02*
X99957419Y-74595238D01*
X99957419Y-74595238D02*
X99909800Y-74690476D01*
X99909800Y-74690476D02*
X99814561Y-74738095D01*
X99814561Y-74738095D02*
X99433609Y-74738095D01*
X99433609Y-74738095D02*
X99338371Y-74690476D01*
X99338371Y-74690476D02*
X99290752Y-74595238D01*
X99290752Y-74595238D02*
X99290752Y-74404762D01*
X99290752Y-74404762D02*
X99338371Y-74309524D01*
X99338371Y-74309524D02*
X99433609Y-74261905D01*
X99433609Y-74261905D02*
X99528847Y-74261905D01*
X99528847Y-74261905D02*
X99624085Y-74738095D01*
X100052657Y-74071429D02*
X100052657Y-73309524D01*
X99909800Y-73119047D02*
X99957419Y-72976190D01*
X99957419Y-72976190D02*
X99957419Y-72738095D01*
X99957419Y-72738095D02*
X99909800Y-72642857D01*
X99909800Y-72642857D02*
X99862180Y-72595238D01*
X99862180Y-72595238D02*
X99766942Y-72547619D01*
X99766942Y-72547619D02*
X99671704Y-72547619D01*
X99671704Y-72547619D02*
X99576466Y-72595238D01*
X99576466Y-72595238D02*
X99528847Y-72642857D01*
X99528847Y-72642857D02*
X99481228Y-72738095D01*
X99481228Y-72738095D02*
X99433609Y-72928571D01*
X99433609Y-72928571D02*
X99385990Y-73023809D01*
X99385990Y-73023809D02*
X99338371Y-73071428D01*
X99338371Y-73071428D02*
X99243133Y-73119047D01*
X99243133Y-73119047D02*
X99147895Y-73119047D01*
X99147895Y-73119047D02*
X99052657Y-73071428D01*
X99052657Y-73071428D02*
X99005038Y-73023809D01*
X99005038Y-73023809D02*
X98957419Y-72928571D01*
X98957419Y-72928571D02*
X98957419Y-72690476D01*
X98957419Y-72690476D02*
X99005038Y-72547619D01*
X99957419Y-71976190D02*
X99909800Y-72071428D01*
X99909800Y-72071428D02*
X99814561Y-72119047D01*
X99814561Y-72119047D02*
X98957419Y-72119047D01*
X99957419Y-71595237D02*
X99290752Y-71595237D01*
X98957419Y-71595237D02*
X99005038Y-71642856D01*
X99005038Y-71642856D02*
X99052657Y-71595237D01*
X99052657Y-71595237D02*
X99005038Y-71547618D01*
X99005038Y-71547618D02*
X98957419Y-71595237D01*
X98957419Y-71595237D02*
X99052657Y-71595237D01*
X99957419Y-70690476D02*
X98957419Y-70690476D01*
X99909800Y-70690476D02*
X99957419Y-70785714D01*
X99957419Y-70785714D02*
X99957419Y-70976190D01*
X99957419Y-70976190D02*
X99909800Y-71071428D01*
X99909800Y-71071428D02*
X99862180Y-71119047D01*
X99862180Y-71119047D02*
X99766942Y-71166666D01*
X99766942Y-71166666D02*
X99481228Y-71166666D01*
X99481228Y-71166666D02*
X99385990Y-71119047D01*
X99385990Y-71119047D02*
X99338371Y-71071428D01*
X99338371Y-71071428D02*
X99290752Y-70976190D01*
X99290752Y-70976190D02*
X99290752Y-70785714D01*
X99290752Y-70785714D02*
X99338371Y-70690476D01*
X99909800Y-69833333D02*
X99957419Y-69928571D01*
X99957419Y-69928571D02*
X99957419Y-70119047D01*
X99957419Y-70119047D02*
X99909800Y-70214285D01*
X99909800Y-70214285D02*
X99814561Y-70261904D01*
X99814561Y-70261904D02*
X99433609Y-70261904D01*
X99433609Y-70261904D02*
X99338371Y-70214285D01*
X99338371Y-70214285D02*
X99290752Y-70119047D01*
X99290752Y-70119047D02*
X99290752Y-69928571D01*
X99290752Y-69928571D02*
X99338371Y-69833333D01*
X99338371Y-69833333D02*
X99433609Y-69785714D01*
X99433609Y-69785714D02*
X99528847Y-69785714D01*
X99528847Y-69785714D02*
X99624085Y-70261904D01*
X99957419Y-69357142D02*
X99290752Y-69357142D01*
X99481228Y-69357142D02*
X99385990Y-69309523D01*
X99385990Y-69309523D02*
X99338371Y-69261904D01*
X99338371Y-69261904D02*
X99290752Y-69166666D01*
X99290752Y-69166666D02*
X99290752Y-69071428D01*
X100052657Y-68976190D02*
X100052657Y-68214285D01*
X99957419Y-67976189D02*
X98957419Y-67976189D01*
X98957419Y-67976189D02*
X98957419Y-67595237D01*
X98957419Y-67595237D02*
X99005038Y-67499999D01*
X99005038Y-67499999D02*
X99052657Y-67452380D01*
X99052657Y-67452380D02*
X99147895Y-67404761D01*
X99147895Y-67404761D02*
X99290752Y-67404761D01*
X99290752Y-67404761D02*
X99385990Y-67452380D01*
X99385990Y-67452380D02*
X99433609Y-67499999D01*
X99433609Y-67499999D02*
X99481228Y-67595237D01*
X99481228Y-67595237D02*
X99481228Y-67976189D01*
X99957419Y-66833332D02*
X99909800Y-66928570D01*
X99909800Y-66928570D02*
X99862180Y-66976189D01*
X99862180Y-66976189D02*
X99766942Y-67023808D01*
X99766942Y-67023808D02*
X99481228Y-67023808D01*
X99481228Y-67023808D02*
X99385990Y-66976189D01*
X99385990Y-66976189D02*
X99338371Y-66928570D01*
X99338371Y-66928570D02*
X99290752Y-66833332D01*
X99290752Y-66833332D02*
X99290752Y-66690475D01*
X99290752Y-66690475D02*
X99338371Y-66595237D01*
X99338371Y-66595237D02*
X99385990Y-66547618D01*
X99385990Y-66547618D02*
X99481228Y-66499999D01*
X99481228Y-66499999D02*
X99766942Y-66499999D01*
X99766942Y-66499999D02*
X99862180Y-66547618D01*
X99862180Y-66547618D02*
X99909800Y-66595237D01*
X99909800Y-66595237D02*
X99957419Y-66690475D01*
X99957419Y-66690475D02*
X99957419Y-66833332D01*
X99290752Y-66214284D02*
X99290752Y-65833332D01*
X98957419Y-66071427D02*
X99814561Y-66071427D01*
X99814561Y-66071427D02*
X99909800Y-66023808D01*
X99909800Y-66023808D02*
X99957419Y-65928570D01*
X99957419Y-65928570D02*
X99957419Y-65833332D01*
X99909800Y-65119046D02*
X99957419Y-65214284D01*
X99957419Y-65214284D02*
X99957419Y-65404760D01*
X99957419Y-65404760D02*
X99909800Y-65499998D01*
X99909800Y-65499998D02*
X99814561Y-65547617D01*
X99814561Y-65547617D02*
X99433609Y-65547617D01*
X99433609Y-65547617D02*
X99338371Y-65499998D01*
X99338371Y-65499998D02*
X99290752Y-65404760D01*
X99290752Y-65404760D02*
X99290752Y-65214284D01*
X99290752Y-65214284D02*
X99338371Y-65119046D01*
X99338371Y-65119046D02*
X99433609Y-65071427D01*
X99433609Y-65071427D02*
X99528847Y-65071427D01*
X99528847Y-65071427D02*
X99624085Y-65547617D01*
X99290752Y-64642855D02*
X99957419Y-64642855D01*
X99385990Y-64642855D02*
X99338371Y-64595236D01*
X99338371Y-64595236D02*
X99290752Y-64499998D01*
X99290752Y-64499998D02*
X99290752Y-64357141D01*
X99290752Y-64357141D02*
X99338371Y-64261903D01*
X99338371Y-64261903D02*
X99433609Y-64214284D01*
X99433609Y-64214284D02*
X99957419Y-64214284D01*
X99290752Y-63880950D02*
X99290752Y-63499998D01*
X98957419Y-63738093D02*
X99814561Y-63738093D01*
X99814561Y-63738093D02*
X99909800Y-63690474D01*
X99909800Y-63690474D02*
X99957419Y-63595236D01*
X99957419Y-63595236D02*
X99957419Y-63499998D01*
X99957419Y-63166664D02*
X99290752Y-63166664D01*
X98957419Y-63166664D02*
X99005038Y-63214283D01*
X99005038Y-63214283D02*
X99052657Y-63166664D01*
X99052657Y-63166664D02*
X99005038Y-63119045D01*
X99005038Y-63119045D02*
X98957419Y-63166664D01*
X98957419Y-63166664D02*
X99052657Y-63166664D01*
X99957419Y-62547617D02*
X99909800Y-62642855D01*
X99909800Y-62642855D02*
X99862180Y-62690474D01*
X99862180Y-62690474D02*
X99766942Y-62738093D01*
X99766942Y-62738093D02*
X99481228Y-62738093D01*
X99481228Y-62738093D02*
X99385990Y-62690474D01*
X99385990Y-62690474D02*
X99338371Y-62642855D01*
X99338371Y-62642855D02*
X99290752Y-62547617D01*
X99290752Y-62547617D02*
X99290752Y-62404760D01*
X99290752Y-62404760D02*
X99338371Y-62309522D01*
X99338371Y-62309522D02*
X99385990Y-62261903D01*
X99385990Y-62261903D02*
X99481228Y-62214284D01*
X99481228Y-62214284D02*
X99766942Y-62214284D01*
X99766942Y-62214284D02*
X99862180Y-62261903D01*
X99862180Y-62261903D02*
X99909800Y-62309522D01*
X99909800Y-62309522D02*
X99957419Y-62404760D01*
X99957419Y-62404760D02*
X99957419Y-62547617D01*
X99957419Y-61785712D02*
X99290752Y-61785712D01*
X99385990Y-61785712D02*
X99338371Y-61738093D01*
X99338371Y-61738093D02*
X99290752Y-61642855D01*
X99290752Y-61642855D02*
X99290752Y-61499998D01*
X99290752Y-61499998D02*
X99338371Y-61404760D01*
X99338371Y-61404760D02*
X99433609Y-61357141D01*
X99433609Y-61357141D02*
X99957419Y-61357141D01*
X99433609Y-61357141D02*
X99338371Y-61309522D01*
X99338371Y-61309522D02*
X99290752Y-61214284D01*
X99290752Y-61214284D02*
X99290752Y-61071427D01*
X99290752Y-61071427D02*
X99338371Y-60976188D01*
X99338371Y-60976188D02*
X99433609Y-60928569D01*
X99433609Y-60928569D02*
X99957419Y-60928569D01*
X99909800Y-60071427D02*
X99957419Y-60166665D01*
X99957419Y-60166665D02*
X99957419Y-60357141D01*
X99957419Y-60357141D02*
X99909800Y-60452379D01*
X99909800Y-60452379D02*
X99814561Y-60499998D01*
X99814561Y-60499998D02*
X99433609Y-60499998D01*
X99433609Y-60499998D02*
X99338371Y-60452379D01*
X99338371Y-60452379D02*
X99290752Y-60357141D01*
X99290752Y-60357141D02*
X99290752Y-60166665D01*
X99290752Y-60166665D02*
X99338371Y-60071427D01*
X99338371Y-60071427D02*
X99433609Y-60023808D01*
X99433609Y-60023808D02*
X99528847Y-60023808D01*
X99528847Y-60023808D02*
X99624085Y-60499998D01*
X99290752Y-59738093D02*
X99290752Y-59357141D01*
X98957419Y-59595236D02*
X99814561Y-59595236D01*
X99814561Y-59595236D02*
X99909800Y-59547617D01*
X99909800Y-59547617D02*
X99957419Y-59452379D01*
X99957419Y-59452379D02*
X99957419Y-59357141D01*
X99909800Y-58642855D02*
X99957419Y-58738093D01*
X99957419Y-58738093D02*
X99957419Y-58928569D01*
X99957419Y-58928569D02*
X99909800Y-59023807D01*
X99909800Y-59023807D02*
X99814561Y-59071426D01*
X99814561Y-59071426D02*
X99433609Y-59071426D01*
X99433609Y-59071426D02*
X99338371Y-59023807D01*
X99338371Y-59023807D02*
X99290752Y-58928569D01*
X99290752Y-58928569D02*
X99290752Y-58738093D01*
X99290752Y-58738093D02*
X99338371Y-58642855D01*
X99338371Y-58642855D02*
X99433609Y-58595236D01*
X99433609Y-58595236D02*
X99528847Y-58595236D01*
X99528847Y-58595236D02*
X99624085Y-59071426D01*
X99957419Y-58166664D02*
X99290752Y-58166664D01*
X99481228Y-58166664D02*
X99385990Y-58119045D01*
X99385990Y-58119045D02*
X99338371Y-58071426D01*
X99338371Y-58071426D02*
X99290752Y-57976188D01*
X99290752Y-57976188D02*
X99290752Y-57880950D01*
X99290752Y-57119045D02*
X99957419Y-57119045D01*
X98909800Y-57357140D02*
X99624085Y-57595235D01*
X99624085Y-57595235D02*
X99624085Y-56976188D01*
X84757419Y-78928572D02*
X83757419Y-78928572D01*
X83757419Y-78928572D02*
X83757419Y-78690477D01*
X83757419Y-78690477D02*
X83805038Y-78547620D01*
X83805038Y-78547620D02*
X83900276Y-78452382D01*
X83900276Y-78452382D02*
X83995514Y-78404763D01*
X83995514Y-78404763D02*
X84185990Y-78357144D01*
X84185990Y-78357144D02*
X84328847Y-78357144D01*
X84328847Y-78357144D02*
X84519323Y-78404763D01*
X84519323Y-78404763D02*
X84614561Y-78452382D01*
X84614561Y-78452382D02*
X84709800Y-78547620D01*
X84709800Y-78547620D02*
X84757419Y-78690477D01*
X84757419Y-78690477D02*
X84757419Y-78928572D01*
X84757419Y-77785715D02*
X84709800Y-77880953D01*
X84709800Y-77880953D02*
X84662180Y-77928572D01*
X84662180Y-77928572D02*
X84566942Y-77976191D01*
X84566942Y-77976191D02*
X84281228Y-77976191D01*
X84281228Y-77976191D02*
X84185990Y-77928572D01*
X84185990Y-77928572D02*
X84138371Y-77880953D01*
X84138371Y-77880953D02*
X84090752Y-77785715D01*
X84090752Y-77785715D02*
X84090752Y-77642858D01*
X84090752Y-77642858D02*
X84138371Y-77547620D01*
X84138371Y-77547620D02*
X84185990Y-77500001D01*
X84185990Y-77500001D02*
X84281228Y-77452382D01*
X84281228Y-77452382D02*
X84566942Y-77452382D01*
X84566942Y-77452382D02*
X84662180Y-77500001D01*
X84662180Y-77500001D02*
X84709800Y-77547620D01*
X84709800Y-77547620D02*
X84757419Y-77642858D01*
X84757419Y-77642858D02*
X84757419Y-77785715D01*
X84090752Y-76595239D02*
X84757419Y-76595239D01*
X84090752Y-77023810D02*
X84614561Y-77023810D01*
X84614561Y-77023810D02*
X84709800Y-76976191D01*
X84709800Y-76976191D02*
X84757419Y-76880953D01*
X84757419Y-76880953D02*
X84757419Y-76738096D01*
X84757419Y-76738096D02*
X84709800Y-76642858D01*
X84709800Y-76642858D02*
X84662180Y-76595239D01*
X84757419Y-76119048D02*
X83757419Y-76119048D01*
X84138371Y-76119048D02*
X84090752Y-76023810D01*
X84090752Y-76023810D02*
X84090752Y-75833334D01*
X84090752Y-75833334D02*
X84138371Y-75738096D01*
X84138371Y-75738096D02*
X84185990Y-75690477D01*
X84185990Y-75690477D02*
X84281228Y-75642858D01*
X84281228Y-75642858D02*
X84566942Y-75642858D01*
X84566942Y-75642858D02*
X84662180Y-75690477D01*
X84662180Y-75690477D02*
X84709800Y-75738096D01*
X84709800Y-75738096D02*
X84757419Y-75833334D01*
X84757419Y-75833334D02*
X84757419Y-76023810D01*
X84757419Y-76023810D02*
X84709800Y-76119048D01*
X84757419Y-75071429D02*
X84709800Y-75166667D01*
X84709800Y-75166667D02*
X84614561Y-75214286D01*
X84614561Y-75214286D02*
X83757419Y-75214286D01*
X84709800Y-74309524D02*
X84757419Y-74404762D01*
X84757419Y-74404762D02*
X84757419Y-74595238D01*
X84757419Y-74595238D02*
X84709800Y-74690476D01*
X84709800Y-74690476D02*
X84614561Y-74738095D01*
X84614561Y-74738095D02*
X84233609Y-74738095D01*
X84233609Y-74738095D02*
X84138371Y-74690476D01*
X84138371Y-74690476D02*
X84090752Y-74595238D01*
X84090752Y-74595238D02*
X84090752Y-74404762D01*
X84090752Y-74404762D02*
X84138371Y-74309524D01*
X84138371Y-74309524D02*
X84233609Y-74261905D01*
X84233609Y-74261905D02*
X84328847Y-74261905D01*
X84328847Y-74261905D02*
X84424085Y-74738095D01*
X84852657Y-74071429D02*
X84852657Y-73309524D01*
X84709800Y-73119047D02*
X84757419Y-72976190D01*
X84757419Y-72976190D02*
X84757419Y-72738095D01*
X84757419Y-72738095D02*
X84709800Y-72642857D01*
X84709800Y-72642857D02*
X84662180Y-72595238D01*
X84662180Y-72595238D02*
X84566942Y-72547619D01*
X84566942Y-72547619D02*
X84471704Y-72547619D01*
X84471704Y-72547619D02*
X84376466Y-72595238D01*
X84376466Y-72595238D02*
X84328847Y-72642857D01*
X84328847Y-72642857D02*
X84281228Y-72738095D01*
X84281228Y-72738095D02*
X84233609Y-72928571D01*
X84233609Y-72928571D02*
X84185990Y-73023809D01*
X84185990Y-73023809D02*
X84138371Y-73071428D01*
X84138371Y-73071428D02*
X84043133Y-73119047D01*
X84043133Y-73119047D02*
X83947895Y-73119047D01*
X83947895Y-73119047D02*
X83852657Y-73071428D01*
X83852657Y-73071428D02*
X83805038Y-73023809D01*
X83805038Y-73023809D02*
X83757419Y-72928571D01*
X83757419Y-72928571D02*
X83757419Y-72690476D01*
X83757419Y-72690476D02*
X83805038Y-72547619D01*
X84757419Y-71976190D02*
X84709800Y-72071428D01*
X84709800Y-72071428D02*
X84614561Y-72119047D01*
X84614561Y-72119047D02*
X83757419Y-72119047D01*
X84757419Y-71595237D02*
X84090752Y-71595237D01*
X83757419Y-71595237D02*
X83805038Y-71642856D01*
X83805038Y-71642856D02*
X83852657Y-71595237D01*
X83852657Y-71595237D02*
X83805038Y-71547618D01*
X83805038Y-71547618D02*
X83757419Y-71595237D01*
X83757419Y-71595237D02*
X83852657Y-71595237D01*
X84757419Y-70690476D02*
X83757419Y-70690476D01*
X84709800Y-70690476D02*
X84757419Y-70785714D01*
X84757419Y-70785714D02*
X84757419Y-70976190D01*
X84757419Y-70976190D02*
X84709800Y-71071428D01*
X84709800Y-71071428D02*
X84662180Y-71119047D01*
X84662180Y-71119047D02*
X84566942Y-71166666D01*
X84566942Y-71166666D02*
X84281228Y-71166666D01*
X84281228Y-71166666D02*
X84185990Y-71119047D01*
X84185990Y-71119047D02*
X84138371Y-71071428D01*
X84138371Y-71071428D02*
X84090752Y-70976190D01*
X84090752Y-70976190D02*
X84090752Y-70785714D01*
X84090752Y-70785714D02*
X84138371Y-70690476D01*
X84709800Y-69833333D02*
X84757419Y-69928571D01*
X84757419Y-69928571D02*
X84757419Y-70119047D01*
X84757419Y-70119047D02*
X84709800Y-70214285D01*
X84709800Y-70214285D02*
X84614561Y-70261904D01*
X84614561Y-70261904D02*
X84233609Y-70261904D01*
X84233609Y-70261904D02*
X84138371Y-70214285D01*
X84138371Y-70214285D02*
X84090752Y-70119047D01*
X84090752Y-70119047D02*
X84090752Y-69928571D01*
X84090752Y-69928571D02*
X84138371Y-69833333D01*
X84138371Y-69833333D02*
X84233609Y-69785714D01*
X84233609Y-69785714D02*
X84328847Y-69785714D01*
X84328847Y-69785714D02*
X84424085Y-70261904D01*
X84757419Y-69357142D02*
X84090752Y-69357142D01*
X84281228Y-69357142D02*
X84185990Y-69309523D01*
X84185990Y-69309523D02*
X84138371Y-69261904D01*
X84138371Y-69261904D02*
X84090752Y-69166666D01*
X84090752Y-69166666D02*
X84090752Y-69071428D01*
X84852657Y-68976190D02*
X84852657Y-68214285D01*
X84757419Y-67976189D02*
X83757419Y-67976189D01*
X83757419Y-67976189D02*
X83757419Y-67595237D01*
X83757419Y-67595237D02*
X83805038Y-67499999D01*
X83805038Y-67499999D02*
X83852657Y-67452380D01*
X83852657Y-67452380D02*
X83947895Y-67404761D01*
X83947895Y-67404761D02*
X84090752Y-67404761D01*
X84090752Y-67404761D02*
X84185990Y-67452380D01*
X84185990Y-67452380D02*
X84233609Y-67499999D01*
X84233609Y-67499999D02*
X84281228Y-67595237D01*
X84281228Y-67595237D02*
X84281228Y-67976189D01*
X84757419Y-66833332D02*
X84709800Y-66928570D01*
X84709800Y-66928570D02*
X84662180Y-66976189D01*
X84662180Y-66976189D02*
X84566942Y-67023808D01*
X84566942Y-67023808D02*
X84281228Y-67023808D01*
X84281228Y-67023808D02*
X84185990Y-66976189D01*
X84185990Y-66976189D02*
X84138371Y-66928570D01*
X84138371Y-66928570D02*
X84090752Y-66833332D01*
X84090752Y-66833332D02*
X84090752Y-66690475D01*
X84090752Y-66690475D02*
X84138371Y-66595237D01*
X84138371Y-66595237D02*
X84185990Y-66547618D01*
X84185990Y-66547618D02*
X84281228Y-66499999D01*
X84281228Y-66499999D02*
X84566942Y-66499999D01*
X84566942Y-66499999D02*
X84662180Y-66547618D01*
X84662180Y-66547618D02*
X84709800Y-66595237D01*
X84709800Y-66595237D02*
X84757419Y-66690475D01*
X84757419Y-66690475D02*
X84757419Y-66833332D01*
X84090752Y-66214284D02*
X84090752Y-65833332D01*
X83757419Y-66071427D02*
X84614561Y-66071427D01*
X84614561Y-66071427D02*
X84709800Y-66023808D01*
X84709800Y-66023808D02*
X84757419Y-65928570D01*
X84757419Y-65928570D02*
X84757419Y-65833332D01*
X84709800Y-65119046D02*
X84757419Y-65214284D01*
X84757419Y-65214284D02*
X84757419Y-65404760D01*
X84757419Y-65404760D02*
X84709800Y-65499998D01*
X84709800Y-65499998D02*
X84614561Y-65547617D01*
X84614561Y-65547617D02*
X84233609Y-65547617D01*
X84233609Y-65547617D02*
X84138371Y-65499998D01*
X84138371Y-65499998D02*
X84090752Y-65404760D01*
X84090752Y-65404760D02*
X84090752Y-65214284D01*
X84090752Y-65214284D02*
X84138371Y-65119046D01*
X84138371Y-65119046D02*
X84233609Y-65071427D01*
X84233609Y-65071427D02*
X84328847Y-65071427D01*
X84328847Y-65071427D02*
X84424085Y-65547617D01*
X84090752Y-64642855D02*
X84757419Y-64642855D01*
X84185990Y-64642855D02*
X84138371Y-64595236D01*
X84138371Y-64595236D02*
X84090752Y-64499998D01*
X84090752Y-64499998D02*
X84090752Y-64357141D01*
X84090752Y-64357141D02*
X84138371Y-64261903D01*
X84138371Y-64261903D02*
X84233609Y-64214284D01*
X84233609Y-64214284D02*
X84757419Y-64214284D01*
X84090752Y-63880950D02*
X84090752Y-63499998D01*
X83757419Y-63738093D02*
X84614561Y-63738093D01*
X84614561Y-63738093D02*
X84709800Y-63690474D01*
X84709800Y-63690474D02*
X84757419Y-63595236D01*
X84757419Y-63595236D02*
X84757419Y-63499998D01*
X84757419Y-63166664D02*
X84090752Y-63166664D01*
X83757419Y-63166664D02*
X83805038Y-63214283D01*
X83805038Y-63214283D02*
X83852657Y-63166664D01*
X83852657Y-63166664D02*
X83805038Y-63119045D01*
X83805038Y-63119045D02*
X83757419Y-63166664D01*
X83757419Y-63166664D02*
X83852657Y-63166664D01*
X84757419Y-62547617D02*
X84709800Y-62642855D01*
X84709800Y-62642855D02*
X84662180Y-62690474D01*
X84662180Y-62690474D02*
X84566942Y-62738093D01*
X84566942Y-62738093D02*
X84281228Y-62738093D01*
X84281228Y-62738093D02*
X84185990Y-62690474D01*
X84185990Y-62690474D02*
X84138371Y-62642855D01*
X84138371Y-62642855D02*
X84090752Y-62547617D01*
X84090752Y-62547617D02*
X84090752Y-62404760D01*
X84090752Y-62404760D02*
X84138371Y-62309522D01*
X84138371Y-62309522D02*
X84185990Y-62261903D01*
X84185990Y-62261903D02*
X84281228Y-62214284D01*
X84281228Y-62214284D02*
X84566942Y-62214284D01*
X84566942Y-62214284D02*
X84662180Y-62261903D01*
X84662180Y-62261903D02*
X84709800Y-62309522D01*
X84709800Y-62309522D02*
X84757419Y-62404760D01*
X84757419Y-62404760D02*
X84757419Y-62547617D01*
X84757419Y-61785712D02*
X84090752Y-61785712D01*
X84185990Y-61785712D02*
X84138371Y-61738093D01*
X84138371Y-61738093D02*
X84090752Y-61642855D01*
X84090752Y-61642855D02*
X84090752Y-61499998D01*
X84090752Y-61499998D02*
X84138371Y-61404760D01*
X84138371Y-61404760D02*
X84233609Y-61357141D01*
X84233609Y-61357141D02*
X84757419Y-61357141D01*
X84233609Y-61357141D02*
X84138371Y-61309522D01*
X84138371Y-61309522D02*
X84090752Y-61214284D01*
X84090752Y-61214284D02*
X84090752Y-61071427D01*
X84090752Y-61071427D02*
X84138371Y-60976188D01*
X84138371Y-60976188D02*
X84233609Y-60928569D01*
X84233609Y-60928569D02*
X84757419Y-60928569D01*
X84709800Y-60071427D02*
X84757419Y-60166665D01*
X84757419Y-60166665D02*
X84757419Y-60357141D01*
X84757419Y-60357141D02*
X84709800Y-60452379D01*
X84709800Y-60452379D02*
X84614561Y-60499998D01*
X84614561Y-60499998D02*
X84233609Y-60499998D01*
X84233609Y-60499998D02*
X84138371Y-60452379D01*
X84138371Y-60452379D02*
X84090752Y-60357141D01*
X84090752Y-60357141D02*
X84090752Y-60166665D01*
X84090752Y-60166665D02*
X84138371Y-60071427D01*
X84138371Y-60071427D02*
X84233609Y-60023808D01*
X84233609Y-60023808D02*
X84328847Y-60023808D01*
X84328847Y-60023808D02*
X84424085Y-60499998D01*
X84090752Y-59738093D02*
X84090752Y-59357141D01*
X83757419Y-59595236D02*
X84614561Y-59595236D01*
X84614561Y-59595236D02*
X84709800Y-59547617D01*
X84709800Y-59547617D02*
X84757419Y-59452379D01*
X84757419Y-59452379D02*
X84757419Y-59357141D01*
X84709800Y-58642855D02*
X84757419Y-58738093D01*
X84757419Y-58738093D02*
X84757419Y-58928569D01*
X84757419Y-58928569D02*
X84709800Y-59023807D01*
X84709800Y-59023807D02*
X84614561Y-59071426D01*
X84614561Y-59071426D02*
X84233609Y-59071426D01*
X84233609Y-59071426D02*
X84138371Y-59023807D01*
X84138371Y-59023807D02*
X84090752Y-58928569D01*
X84090752Y-58928569D02*
X84090752Y-58738093D01*
X84090752Y-58738093D02*
X84138371Y-58642855D01*
X84138371Y-58642855D02*
X84233609Y-58595236D01*
X84233609Y-58595236D02*
X84328847Y-58595236D01*
X84328847Y-58595236D02*
X84424085Y-59071426D01*
X84757419Y-58166664D02*
X84090752Y-58166664D01*
X84281228Y-58166664D02*
X84185990Y-58119045D01*
X84185990Y-58119045D02*
X84138371Y-58071426D01*
X84138371Y-58071426D02*
X84090752Y-57976188D01*
X84090752Y-57976188D02*
X84090752Y-57880950D01*
X83757419Y-57642854D02*
X83757419Y-57023807D01*
X83757419Y-57023807D02*
X84138371Y-57357140D01*
X84138371Y-57357140D02*
X84138371Y-57214283D01*
X84138371Y-57214283D02*
X84185990Y-57119045D01*
X84185990Y-57119045D02*
X84233609Y-57071426D01*
X84233609Y-57071426D02*
X84328847Y-57023807D01*
X84328847Y-57023807D02*
X84566942Y-57023807D01*
X84566942Y-57023807D02*
X84662180Y-57071426D01*
X84662180Y-57071426D02*
X84709800Y-57119045D01*
X84709800Y-57119045D02*
X84757419Y-57214283D01*
X84757419Y-57214283D02*
X84757419Y-57499997D01*
X84757419Y-57499997D02*
X84709800Y-57595235D01*
X84709800Y-57595235D02*
X84662180Y-57642854D01*
%TO.C,Double_Slider_Potentiometer5*%
X109950000Y-25000000D02*
X119050000Y-25000000D01*
X119050000Y-100000000D01*
X109950000Y-100000000D01*
X109950000Y-25000000D01*
D13*
%TO.C,A1*%
X75360000Y-16360000D02*
X75360000Y-59800000D01*
X75360000Y-16360000D02*
X80440000Y-16360000D01*
X75360000Y-59800000D02*
X93400000Y-59800000D01*
X78030000Y-19030000D02*
X75360000Y-19030000D01*
X78030000Y-57130000D02*
X75360000Y-57130000D01*
X78030000Y-57130000D02*
X78030000Y-19030000D01*
X80440000Y-16360000D02*
X88320000Y-16360000D01*
X80440000Y-24240000D02*
X80440000Y-16360000D01*
X88320000Y-16360000D02*
X88320000Y-24240000D01*
X88320000Y-24240000D02*
X80440000Y-24240000D01*
X90730000Y-19030000D02*
X93400000Y-19030000D01*
X90730000Y-54590000D02*
X90730000Y-19030000D01*
X90730000Y-54590000D02*
X90730000Y-57130000D01*
X90730000Y-54590000D02*
X93400000Y-54590000D01*
X90730000Y-57130000D02*
X93400000Y-57130000D01*
X93400000Y-16360000D02*
X88320000Y-16360000D01*
X93400000Y-54590000D02*
X93400000Y-16360000D01*
X93400000Y-59800000D02*
X93400000Y-57130000D01*
%TO.C,Double_Slider_Potentiometer2*%
D11*
X64950000Y-25000000D02*
X74050000Y-25000000D01*
X74050000Y-100000000D01*
X64950000Y-100000000D01*
X64950000Y-25000000D01*
%TO.C,Double_Slider_Potentiometer1*%
X49875000Y-24900000D02*
X58975000Y-24900000D01*
X58975000Y-99900000D01*
X49875000Y-99900000D01*
X49875000Y-24900000D01*
%TO.C,Double_Slider_Potentiometer4*%
X94875000Y-24900000D02*
X103975000Y-24900000D01*
X103975000Y-99900000D01*
X94875000Y-99900000D01*
X94875000Y-24900000D01*
%TO.C,Double_Slider_Potentiometer3*%
X79950000Y-24900000D02*
X89050000Y-24900000D01*
X89050000Y-99900000D01*
X79950000Y-99900000D01*
X79950000Y-24900000D01*
%TD*%
%LPC*%
D14*
%TO.C,Double_Slider_Potentiometer5*%
X110500000Y-98000000D03*
X113262000Y-98000000D03*
X116024000Y-98000000D03*
X118500000Y-98000000D03*
X113388000Y-27000000D03*
X118650000Y-27000000D03*
D15*
X114500000Y-87000000D03*
X114500000Y-39600000D03*
%TD*%
D16*
%TO.C,A1*%
X92000000Y-55860000D03*
D17*
X92000000Y-53320000D03*
X92000000Y-50780000D03*
X92000000Y-48240000D03*
X92000000Y-45700000D03*
X92000000Y-43160000D03*
X92000000Y-40620000D03*
X92000000Y-38080000D03*
X92000000Y-35540000D03*
X92000000Y-33000000D03*
X92000000Y-30460000D03*
X92000000Y-27920000D03*
X92000000Y-25380000D03*
X92000000Y-22840000D03*
X92000000Y-20300000D03*
X76760000Y-20300000D03*
X76760000Y-22840000D03*
X76760000Y-25380000D03*
X76760000Y-27920000D03*
X76760000Y-30460000D03*
X76760000Y-33000000D03*
X76760000Y-35540000D03*
X76760000Y-38080000D03*
X76760000Y-40620000D03*
X76760000Y-43160000D03*
X76760000Y-45700000D03*
X76760000Y-48240000D03*
X76760000Y-50780000D03*
X76760000Y-53320000D03*
X76760000Y-55860000D03*
%TD*%
D14*
%TO.C,Double_Slider_Potentiometer2*%
X65500000Y-98000000D03*
X68262000Y-98000000D03*
X71024000Y-98000000D03*
X73500000Y-98000000D03*
X68388000Y-27000000D03*
X73650000Y-27000000D03*
D15*
X69500000Y-87000000D03*
X69500000Y-39600000D03*
%TD*%
D14*
%TO.C,Double_Slider_Potentiometer1*%
X50425000Y-97900000D03*
X53187000Y-97900000D03*
X55949000Y-97900000D03*
X58425000Y-97900000D03*
X53313000Y-26900000D03*
X58575000Y-26900000D03*
D15*
X54425000Y-86900000D03*
X54425000Y-39500000D03*
%TD*%
D14*
%TO.C,Double_Slider_Potentiometer4*%
X95425000Y-97900000D03*
X98187000Y-97900000D03*
X100949000Y-97900000D03*
X103425000Y-97900000D03*
X98313000Y-26900000D03*
X103575000Y-26900000D03*
D15*
X99425000Y-86900000D03*
X99425000Y-39500000D03*
%TD*%
D14*
%TO.C,Double_Slider_Potentiometer3*%
X80500000Y-97900000D03*
X83262000Y-97900000D03*
X86024000Y-97900000D03*
X88500000Y-97900000D03*
X83388000Y-26900000D03*
X88650000Y-26900000D03*
D15*
X84500000Y-86900000D03*
X84500000Y-39500000D03*
%TD*%
%LPD*%
M02*
