%TF.GenerationSoftware,KiCad,Pcbnew,8.0.0*%
%TF.CreationDate,2024-07-15T16:45:47+02:00*%
%TF.ProjectId,Audio-Controller V2.1.kicad_pcb,41756469-6f2d-4436-9f6e-74726f6c6c65,rev?*%
%TF.SameCoordinates,Original*%
%TF.FileFunction,Legend,Bot*%
%TF.FilePolarity,Positive*%
%FSLAX46Y46*%
G04 Gerber Fmt 4.6, Leading zero omitted, Abs format (unit mm)*
G04 Created by KiCad (PCBNEW 8.0.0) date 2024-07-15 16:45:47*
%MOMM*%
%LPD*%
G01*
G04 APERTURE LIST*
%ADD10C,0.200000*%
%ADD11C,2.000000*%
%ADD12C,3.500000*%
%ADD13R,1.600000X1.600000*%
%ADD14O,1.600000X1.600000*%
G04 APERTURE END LIST*
D10*
X106630326Y-107867219D02*
X106630326Y-106867219D01*
X106630326Y-106867219D02*
X106392231Y-106867219D01*
X106392231Y-106867219D02*
X106249374Y-106914838D01*
X106249374Y-106914838D02*
X106154136Y-107010076D01*
X106154136Y-107010076D02*
X106106517Y-107105314D01*
X106106517Y-107105314D02*
X106058898Y-107295790D01*
X106058898Y-107295790D02*
X106058898Y-107438647D01*
X106058898Y-107438647D02*
X106106517Y-107629123D01*
X106106517Y-107629123D02*
X106154136Y-107724361D01*
X106154136Y-107724361D02*
X106249374Y-107819600D01*
X106249374Y-107819600D02*
X106392231Y-107867219D01*
X106392231Y-107867219D02*
X106630326Y-107867219D01*
X105249374Y-107819600D02*
X105344612Y-107867219D01*
X105344612Y-107867219D02*
X105535088Y-107867219D01*
X105535088Y-107867219D02*
X105630326Y-107819600D01*
X105630326Y-107819600D02*
X105677945Y-107724361D01*
X105677945Y-107724361D02*
X105677945Y-107343409D01*
X105677945Y-107343409D02*
X105630326Y-107248171D01*
X105630326Y-107248171D02*
X105535088Y-107200552D01*
X105535088Y-107200552D02*
X105344612Y-107200552D01*
X105344612Y-107200552D02*
X105249374Y-107248171D01*
X105249374Y-107248171D02*
X105201755Y-107343409D01*
X105201755Y-107343409D02*
X105201755Y-107438647D01*
X105201755Y-107438647D02*
X105677945Y-107533885D01*
X104392231Y-107819600D02*
X104487469Y-107867219D01*
X104487469Y-107867219D02*
X104677945Y-107867219D01*
X104677945Y-107867219D02*
X104773183Y-107819600D01*
X104773183Y-107819600D02*
X104820802Y-107724361D01*
X104820802Y-107724361D02*
X104820802Y-107343409D01*
X104820802Y-107343409D02*
X104773183Y-107248171D01*
X104773183Y-107248171D02*
X104677945Y-107200552D01*
X104677945Y-107200552D02*
X104487469Y-107200552D01*
X104487469Y-107200552D02*
X104392231Y-107248171D01*
X104392231Y-107248171D02*
X104344612Y-107343409D01*
X104344612Y-107343409D02*
X104344612Y-107438647D01*
X104344612Y-107438647D02*
X104820802Y-107533885D01*
X103630326Y-106867219D02*
X103630326Y-107581504D01*
X103630326Y-107581504D02*
X103677945Y-107724361D01*
X103677945Y-107724361D02*
X103773183Y-107819600D01*
X103773183Y-107819600D02*
X103916040Y-107867219D01*
X103916040Y-107867219D02*
X104011278Y-107867219D01*
X102535087Y-106867219D02*
X102201754Y-107867219D01*
X102201754Y-107867219D02*
X101868421Y-106867219D01*
X101392230Y-107867219D02*
X101487468Y-107819600D01*
X101487468Y-107819600D02*
X101535087Y-107771980D01*
X101535087Y-107771980D02*
X101582706Y-107676742D01*
X101582706Y-107676742D02*
X101582706Y-107391028D01*
X101582706Y-107391028D02*
X101535087Y-107295790D01*
X101535087Y-107295790D02*
X101487468Y-107248171D01*
X101487468Y-107248171D02*
X101392230Y-107200552D01*
X101392230Y-107200552D02*
X101249373Y-107200552D01*
X101249373Y-107200552D02*
X101154135Y-107248171D01*
X101154135Y-107248171D02*
X101106516Y-107295790D01*
X101106516Y-107295790D02*
X101058897Y-107391028D01*
X101058897Y-107391028D02*
X101058897Y-107676742D01*
X101058897Y-107676742D02*
X101106516Y-107771980D01*
X101106516Y-107771980D02*
X101154135Y-107819600D01*
X101154135Y-107819600D02*
X101249373Y-107867219D01*
X101249373Y-107867219D02*
X101392230Y-107867219D01*
X100487468Y-107867219D02*
X100582706Y-107819600D01*
X100582706Y-107819600D02*
X100630325Y-107724361D01*
X100630325Y-107724361D02*
X100630325Y-106867219D01*
X99677944Y-107200552D02*
X99677944Y-107867219D01*
X100106515Y-107200552D02*
X100106515Y-107724361D01*
X100106515Y-107724361D02*
X100058896Y-107819600D01*
X100058896Y-107819600D02*
X99963658Y-107867219D01*
X99963658Y-107867219D02*
X99820801Y-107867219D01*
X99820801Y-107867219D02*
X99725563Y-107819600D01*
X99725563Y-107819600D02*
X99677944Y-107771980D01*
X99201753Y-107867219D02*
X99201753Y-107200552D01*
X99201753Y-107295790D02*
X99154134Y-107248171D01*
X99154134Y-107248171D02*
X99058896Y-107200552D01*
X99058896Y-107200552D02*
X98916039Y-107200552D01*
X98916039Y-107200552D02*
X98820801Y-107248171D01*
X98820801Y-107248171D02*
X98773182Y-107343409D01*
X98773182Y-107343409D02*
X98773182Y-107867219D01*
X98773182Y-107343409D02*
X98725563Y-107248171D01*
X98725563Y-107248171D02*
X98630325Y-107200552D01*
X98630325Y-107200552D02*
X98487468Y-107200552D01*
X98487468Y-107200552D02*
X98392229Y-107248171D01*
X98392229Y-107248171D02*
X98344610Y-107343409D01*
X98344610Y-107343409D02*
X98344610Y-107867219D01*
X97487468Y-107819600D02*
X97582706Y-107867219D01*
X97582706Y-107867219D02*
X97773182Y-107867219D01*
X97773182Y-107867219D02*
X97868420Y-107819600D01*
X97868420Y-107819600D02*
X97916039Y-107724361D01*
X97916039Y-107724361D02*
X97916039Y-107343409D01*
X97916039Y-107343409D02*
X97868420Y-107248171D01*
X97868420Y-107248171D02*
X97773182Y-107200552D01*
X97773182Y-107200552D02*
X97582706Y-107200552D01*
X97582706Y-107200552D02*
X97487468Y-107248171D01*
X97487468Y-107248171D02*
X97439849Y-107343409D01*
X97439849Y-107343409D02*
X97439849Y-107438647D01*
X97439849Y-107438647D02*
X97916039Y-107533885D01*
X96249372Y-107867219D02*
X96249372Y-106867219D01*
X96249372Y-106867219D02*
X95916039Y-107581504D01*
X95916039Y-107581504D02*
X95582706Y-106867219D01*
X95582706Y-106867219D02*
X95582706Y-107867219D01*
X95106515Y-107867219D02*
X95106515Y-107200552D01*
X95106515Y-106867219D02*
X95154134Y-106914838D01*
X95154134Y-106914838D02*
X95106515Y-106962457D01*
X95106515Y-106962457D02*
X95058896Y-106914838D01*
X95058896Y-106914838D02*
X95106515Y-106867219D01*
X95106515Y-106867219D02*
X95106515Y-106962457D01*
X94725563Y-107867219D02*
X94201754Y-107200552D01*
X94725563Y-107200552D02*
X94201754Y-107867219D01*
X93439849Y-107819600D02*
X93535087Y-107867219D01*
X93535087Y-107867219D02*
X93725563Y-107867219D01*
X93725563Y-107867219D02*
X93820801Y-107819600D01*
X93820801Y-107819600D02*
X93868420Y-107724361D01*
X93868420Y-107724361D02*
X93868420Y-107343409D01*
X93868420Y-107343409D02*
X93820801Y-107248171D01*
X93820801Y-107248171D02*
X93725563Y-107200552D01*
X93725563Y-107200552D02*
X93535087Y-107200552D01*
X93535087Y-107200552D02*
X93439849Y-107248171D01*
X93439849Y-107248171D02*
X93392230Y-107343409D01*
X93392230Y-107343409D02*
X93392230Y-107438647D01*
X93392230Y-107438647D02*
X93868420Y-107533885D01*
X92963658Y-107867219D02*
X92963658Y-107200552D01*
X92963658Y-107391028D02*
X92916039Y-107295790D01*
X92916039Y-107295790D02*
X92868420Y-107248171D01*
X92868420Y-107248171D02*
X92773182Y-107200552D01*
X92773182Y-107200552D02*
X92677944Y-107200552D01*
X91582705Y-107867219D02*
X91582705Y-106867219D01*
X91582705Y-106867219D02*
X91201753Y-106867219D01*
X91201753Y-106867219D02*
X91106515Y-106914838D01*
X91106515Y-106914838D02*
X91058896Y-106962457D01*
X91058896Y-106962457D02*
X91011277Y-107057695D01*
X91011277Y-107057695D02*
X91011277Y-107200552D01*
X91011277Y-107200552D02*
X91058896Y-107295790D01*
X91058896Y-107295790D02*
X91106515Y-107343409D01*
X91106515Y-107343409D02*
X91201753Y-107391028D01*
X91201753Y-107391028D02*
X91582705Y-107391028D01*
X90011277Y-107771980D02*
X90058896Y-107819600D01*
X90058896Y-107819600D02*
X90201753Y-107867219D01*
X90201753Y-107867219D02*
X90296991Y-107867219D01*
X90296991Y-107867219D02*
X90439848Y-107819600D01*
X90439848Y-107819600D02*
X90535086Y-107724361D01*
X90535086Y-107724361D02*
X90582705Y-107629123D01*
X90582705Y-107629123D02*
X90630324Y-107438647D01*
X90630324Y-107438647D02*
X90630324Y-107295790D01*
X90630324Y-107295790D02*
X90582705Y-107105314D01*
X90582705Y-107105314D02*
X90535086Y-107010076D01*
X90535086Y-107010076D02*
X90439848Y-106914838D01*
X90439848Y-106914838D02*
X90296991Y-106867219D01*
X90296991Y-106867219D02*
X90201753Y-106867219D01*
X90201753Y-106867219D02*
X90058896Y-106914838D01*
X90058896Y-106914838D02*
X90011277Y-106962457D01*
X89249372Y-107343409D02*
X89106515Y-107391028D01*
X89106515Y-107391028D02*
X89058896Y-107438647D01*
X89058896Y-107438647D02*
X89011277Y-107533885D01*
X89011277Y-107533885D02*
X89011277Y-107676742D01*
X89011277Y-107676742D02*
X89058896Y-107771980D01*
X89058896Y-107771980D02*
X89106515Y-107819600D01*
X89106515Y-107819600D02*
X89201753Y-107867219D01*
X89201753Y-107867219D02*
X89582705Y-107867219D01*
X89582705Y-107867219D02*
X89582705Y-106867219D01*
X89582705Y-106867219D02*
X89249372Y-106867219D01*
X89249372Y-106867219D02*
X89154134Y-106914838D01*
X89154134Y-106914838D02*
X89106515Y-106962457D01*
X89106515Y-106962457D02*
X89058896Y-107057695D01*
X89058896Y-107057695D02*
X89058896Y-107152933D01*
X89058896Y-107152933D02*
X89106515Y-107248171D01*
X89106515Y-107248171D02*
X89154134Y-107295790D01*
X89154134Y-107295790D02*
X89249372Y-107343409D01*
X89249372Y-107343409D02*
X89582705Y-107343409D01*
X87820800Y-107867219D02*
X87820800Y-106867219D01*
X87820800Y-107248171D02*
X87725562Y-107200552D01*
X87725562Y-107200552D02*
X87535086Y-107200552D01*
X87535086Y-107200552D02*
X87439848Y-107248171D01*
X87439848Y-107248171D02*
X87392229Y-107295790D01*
X87392229Y-107295790D02*
X87344610Y-107391028D01*
X87344610Y-107391028D02*
X87344610Y-107676742D01*
X87344610Y-107676742D02*
X87392229Y-107771980D01*
X87392229Y-107771980D02*
X87439848Y-107819600D01*
X87439848Y-107819600D02*
X87535086Y-107867219D01*
X87535086Y-107867219D02*
X87725562Y-107867219D01*
X87725562Y-107867219D02*
X87820800Y-107819600D01*
X87011276Y-107200552D02*
X86773181Y-107867219D01*
X86535086Y-107200552D02*
X86773181Y-107867219D01*
X86773181Y-107867219D02*
X86868419Y-108105314D01*
X86868419Y-108105314D02*
X86916038Y-108152933D01*
X86916038Y-108152933D02*
X87011276Y-108200552D01*
X85392228Y-107867219D02*
X85392228Y-106867219D01*
X85392228Y-106867219D02*
X85058895Y-107581504D01*
X85058895Y-107581504D02*
X84725562Y-106867219D01*
X84725562Y-106867219D02*
X84725562Y-107867219D01*
X83820800Y-107819600D02*
X83916038Y-107867219D01*
X83916038Y-107867219D02*
X84106514Y-107867219D01*
X84106514Y-107867219D02*
X84201752Y-107819600D01*
X84201752Y-107819600D02*
X84249371Y-107771980D01*
X84249371Y-107771980D02*
X84296990Y-107676742D01*
X84296990Y-107676742D02*
X84296990Y-107391028D01*
X84296990Y-107391028D02*
X84249371Y-107295790D01*
X84249371Y-107295790D02*
X84201752Y-107248171D01*
X84201752Y-107248171D02*
X84106514Y-107200552D01*
X84106514Y-107200552D02*
X83916038Y-107200552D01*
X83916038Y-107200552D02*
X83820800Y-107248171D01*
X83392228Y-107867219D02*
X83392228Y-106867219D01*
X83392228Y-106867219D02*
X82820800Y-107867219D01*
X82820800Y-107867219D02*
X82820800Y-106867219D01*
X82344609Y-107867219D02*
X82344609Y-107200552D01*
X82344609Y-106867219D02*
X82392228Y-106914838D01*
X82392228Y-106914838D02*
X82344609Y-106962457D01*
X82344609Y-106962457D02*
X82296990Y-106914838D01*
X82296990Y-106914838D02*
X82344609Y-106867219D01*
X82344609Y-106867219D02*
X82344609Y-106962457D01*
X81868419Y-107867219D02*
X81868419Y-106867219D01*
X81773181Y-107486266D02*
X81487467Y-107867219D01*
X81487467Y-107200552D02*
X81868419Y-107581504D01*
X80439847Y-106867219D02*
X80106514Y-107867219D01*
X80106514Y-107867219D02*
X79773181Y-106867219D01*
X79058895Y-107819600D02*
X79154133Y-107867219D01*
X79154133Y-107867219D02*
X79344609Y-107867219D01*
X79344609Y-107867219D02*
X79439847Y-107819600D01*
X79439847Y-107819600D02*
X79487466Y-107724361D01*
X79487466Y-107724361D02*
X79487466Y-107343409D01*
X79487466Y-107343409D02*
X79439847Y-107248171D01*
X79439847Y-107248171D02*
X79344609Y-107200552D01*
X79344609Y-107200552D02*
X79154133Y-107200552D01*
X79154133Y-107200552D02*
X79058895Y-107248171D01*
X79058895Y-107248171D02*
X79011276Y-107343409D01*
X79011276Y-107343409D02*
X79011276Y-107438647D01*
X79011276Y-107438647D02*
X79487466Y-107533885D01*
X78582704Y-107867219D02*
X78582704Y-107200552D01*
X78582704Y-107391028D02*
X78535085Y-107295790D01*
X78535085Y-107295790D02*
X78487466Y-107248171D01*
X78487466Y-107248171D02*
X78392228Y-107200552D01*
X78392228Y-107200552D02*
X78296990Y-107200552D01*
X78011275Y-107819600D02*
X77916037Y-107867219D01*
X77916037Y-107867219D02*
X77725561Y-107867219D01*
X77725561Y-107867219D02*
X77630323Y-107819600D01*
X77630323Y-107819600D02*
X77582704Y-107724361D01*
X77582704Y-107724361D02*
X77582704Y-107676742D01*
X77582704Y-107676742D02*
X77630323Y-107581504D01*
X77630323Y-107581504D02*
X77725561Y-107533885D01*
X77725561Y-107533885D02*
X77868418Y-107533885D01*
X77868418Y-107533885D02*
X77963656Y-107486266D01*
X77963656Y-107486266D02*
X78011275Y-107391028D01*
X78011275Y-107391028D02*
X78011275Y-107343409D01*
X78011275Y-107343409D02*
X77963656Y-107248171D01*
X77963656Y-107248171D02*
X77868418Y-107200552D01*
X77868418Y-107200552D02*
X77725561Y-107200552D01*
X77725561Y-107200552D02*
X77630323Y-107248171D01*
X77154132Y-107867219D02*
X77154132Y-107200552D01*
X77154132Y-106867219D02*
X77201751Y-106914838D01*
X77201751Y-106914838D02*
X77154132Y-106962457D01*
X77154132Y-106962457D02*
X77106513Y-106914838D01*
X77106513Y-106914838D02*
X77154132Y-106867219D01*
X77154132Y-106867219D02*
X77154132Y-106962457D01*
X76535085Y-107867219D02*
X76630323Y-107819600D01*
X76630323Y-107819600D02*
X76677942Y-107771980D01*
X76677942Y-107771980D02*
X76725561Y-107676742D01*
X76725561Y-107676742D02*
X76725561Y-107391028D01*
X76725561Y-107391028D02*
X76677942Y-107295790D01*
X76677942Y-107295790D02*
X76630323Y-107248171D01*
X76630323Y-107248171D02*
X76535085Y-107200552D01*
X76535085Y-107200552D02*
X76392228Y-107200552D01*
X76392228Y-107200552D02*
X76296990Y-107248171D01*
X76296990Y-107248171D02*
X76249371Y-107295790D01*
X76249371Y-107295790D02*
X76201752Y-107391028D01*
X76201752Y-107391028D02*
X76201752Y-107676742D01*
X76201752Y-107676742D02*
X76249371Y-107771980D01*
X76249371Y-107771980D02*
X76296990Y-107819600D01*
X76296990Y-107819600D02*
X76392228Y-107867219D01*
X76392228Y-107867219D02*
X76535085Y-107867219D01*
X75773180Y-107200552D02*
X75773180Y-107867219D01*
X75773180Y-107295790D02*
X75725561Y-107248171D01*
X75725561Y-107248171D02*
X75630323Y-107200552D01*
X75630323Y-107200552D02*
X75487466Y-107200552D01*
X75487466Y-107200552D02*
X75392228Y-107248171D01*
X75392228Y-107248171D02*
X75344609Y-107343409D01*
X75344609Y-107343409D02*
X75344609Y-107867219D01*
X74154132Y-106962457D02*
X74106513Y-106914838D01*
X74106513Y-106914838D02*
X74011275Y-106867219D01*
X74011275Y-106867219D02*
X73773180Y-106867219D01*
X73773180Y-106867219D02*
X73677942Y-106914838D01*
X73677942Y-106914838D02*
X73630323Y-106962457D01*
X73630323Y-106962457D02*
X73582704Y-107057695D01*
X73582704Y-107057695D02*
X73582704Y-107152933D01*
X73582704Y-107152933D02*
X73630323Y-107295790D01*
X73630323Y-107295790D02*
X74201751Y-107867219D01*
X74201751Y-107867219D02*
X73582704Y-107867219D01*
X73154132Y-107771980D02*
X73106513Y-107819600D01*
X73106513Y-107819600D02*
X73154132Y-107867219D01*
X73154132Y-107867219D02*
X73201751Y-107819600D01*
X73201751Y-107819600D02*
X73154132Y-107771980D01*
X73154132Y-107771980D02*
X73154132Y-107867219D01*
X72154133Y-107867219D02*
X72725561Y-107867219D01*
X72439847Y-107867219D02*
X72439847Y-106867219D01*
X72439847Y-106867219D02*
X72535085Y-107010076D01*
X72535085Y-107010076D02*
X72630323Y-107105314D01*
X72630323Y-107105314D02*
X72725561Y-107152933D01*
X70392228Y-107867219D02*
X70725561Y-107391028D01*
X70963656Y-107867219D02*
X70963656Y-106867219D01*
X70963656Y-106867219D02*
X70582704Y-106867219D01*
X70582704Y-106867219D02*
X70487466Y-106914838D01*
X70487466Y-106914838D02*
X70439847Y-106962457D01*
X70439847Y-106962457D02*
X70392228Y-107057695D01*
X70392228Y-107057695D02*
X70392228Y-107200552D01*
X70392228Y-107200552D02*
X70439847Y-107295790D01*
X70439847Y-107295790D02*
X70487466Y-107343409D01*
X70487466Y-107343409D02*
X70582704Y-107391028D01*
X70582704Y-107391028D02*
X70963656Y-107391028D01*
X69439847Y-106914838D02*
X69535085Y-106867219D01*
X69535085Y-106867219D02*
X69677942Y-106867219D01*
X69677942Y-106867219D02*
X69820799Y-106914838D01*
X69820799Y-106914838D02*
X69916037Y-107010076D01*
X69916037Y-107010076D02*
X69963656Y-107105314D01*
X69963656Y-107105314D02*
X70011275Y-107295790D01*
X70011275Y-107295790D02*
X70011275Y-107438647D01*
X70011275Y-107438647D02*
X69963656Y-107629123D01*
X69963656Y-107629123D02*
X69916037Y-107724361D01*
X69916037Y-107724361D02*
X69820799Y-107819600D01*
X69820799Y-107819600D02*
X69677942Y-107867219D01*
X69677942Y-107867219D02*
X69582704Y-107867219D01*
X69582704Y-107867219D02*
X69439847Y-107819600D01*
X69439847Y-107819600D02*
X69392228Y-107771980D01*
X69392228Y-107771980D02*
X69392228Y-107438647D01*
X69392228Y-107438647D02*
X69582704Y-107438647D01*
X68630323Y-107343409D02*
X68487466Y-107391028D01*
X68487466Y-107391028D02*
X68439847Y-107438647D01*
X68439847Y-107438647D02*
X68392228Y-107533885D01*
X68392228Y-107533885D02*
X68392228Y-107676742D01*
X68392228Y-107676742D02*
X68439847Y-107771980D01*
X68439847Y-107771980D02*
X68487466Y-107819600D01*
X68487466Y-107819600D02*
X68582704Y-107867219D01*
X68582704Y-107867219D02*
X68963656Y-107867219D01*
X68963656Y-107867219D02*
X68963656Y-106867219D01*
X68963656Y-106867219D02*
X68630323Y-106867219D01*
X68630323Y-106867219D02*
X68535085Y-106914838D01*
X68535085Y-106914838D02*
X68487466Y-106962457D01*
X68487466Y-106962457D02*
X68439847Y-107057695D01*
X68439847Y-107057695D02*
X68439847Y-107152933D01*
X68439847Y-107152933D02*
X68487466Y-107248171D01*
X68487466Y-107248171D02*
X68535085Y-107295790D01*
X68535085Y-107295790D02*
X68630323Y-107343409D01*
X68630323Y-107343409D02*
X68963656Y-107343409D01*
X67201751Y-107343409D02*
X66868418Y-107343409D01*
X66725561Y-107867219D02*
X67201751Y-107867219D01*
X67201751Y-107867219D02*
X67201751Y-106867219D01*
X67201751Y-106867219D02*
X66725561Y-106867219D01*
X65868418Y-107867219D02*
X65868418Y-106867219D01*
X65868418Y-107819600D02*
X65963656Y-107867219D01*
X65963656Y-107867219D02*
X66154132Y-107867219D01*
X66154132Y-107867219D02*
X66249370Y-107819600D01*
X66249370Y-107819600D02*
X66296989Y-107771980D01*
X66296989Y-107771980D02*
X66344608Y-107676742D01*
X66344608Y-107676742D02*
X66344608Y-107391028D01*
X66344608Y-107391028D02*
X66296989Y-107295790D01*
X66296989Y-107295790D02*
X66249370Y-107248171D01*
X66249370Y-107248171D02*
X66154132Y-107200552D01*
X66154132Y-107200552D02*
X65963656Y-107200552D01*
X65963656Y-107200552D02*
X65868418Y-107248171D01*
X65392227Y-107867219D02*
X65392227Y-107200552D01*
X65392227Y-106867219D02*
X65439846Y-106914838D01*
X65439846Y-106914838D02*
X65392227Y-106962457D01*
X65392227Y-106962457D02*
X65344608Y-106914838D01*
X65344608Y-106914838D02*
X65392227Y-106867219D01*
X65392227Y-106867219D02*
X65392227Y-106962457D01*
X65058894Y-107200552D02*
X64677942Y-107200552D01*
X64916037Y-106867219D02*
X64916037Y-107724361D01*
X64916037Y-107724361D02*
X64868418Y-107819600D01*
X64868418Y-107819600D02*
X64773180Y-107867219D01*
X64773180Y-107867219D02*
X64677942Y-107867219D01*
X64344608Y-107867219D02*
X64344608Y-107200552D01*
X64344608Y-106867219D02*
X64392227Y-106914838D01*
X64392227Y-106914838D02*
X64344608Y-106962457D01*
X64344608Y-106962457D02*
X64296989Y-106914838D01*
X64296989Y-106914838D02*
X64344608Y-106867219D01*
X64344608Y-106867219D02*
X64344608Y-106962457D01*
X63725561Y-107867219D02*
X63820799Y-107819600D01*
X63820799Y-107819600D02*
X63868418Y-107771980D01*
X63868418Y-107771980D02*
X63916037Y-107676742D01*
X63916037Y-107676742D02*
X63916037Y-107391028D01*
X63916037Y-107391028D02*
X63868418Y-107295790D01*
X63868418Y-107295790D02*
X63820799Y-107248171D01*
X63820799Y-107248171D02*
X63725561Y-107200552D01*
X63725561Y-107200552D02*
X63582704Y-107200552D01*
X63582704Y-107200552D02*
X63487466Y-107248171D01*
X63487466Y-107248171D02*
X63439847Y-107295790D01*
X63439847Y-107295790D02*
X63392228Y-107391028D01*
X63392228Y-107391028D02*
X63392228Y-107676742D01*
X63392228Y-107676742D02*
X63439847Y-107771980D01*
X63439847Y-107771980D02*
X63487466Y-107819600D01*
X63487466Y-107819600D02*
X63582704Y-107867219D01*
X63582704Y-107867219D02*
X63725561Y-107867219D01*
X62963656Y-107200552D02*
X62963656Y-107867219D01*
X62963656Y-107295790D02*
X62916037Y-107248171D01*
X62916037Y-107248171D02*
X62820799Y-107200552D01*
X62820799Y-107200552D02*
X62677942Y-107200552D01*
X62677942Y-107200552D02*
X62582704Y-107248171D01*
X62582704Y-107248171D02*
X62535085Y-107343409D01*
X62535085Y-107343409D02*
X62535085Y-107867219D01*
X65154136Y-104867219D02*
X65630326Y-104867219D01*
X65630326Y-104867219D02*
X65630326Y-103867219D01*
X64820802Y-104343409D02*
X64487469Y-104343409D01*
X64344612Y-104867219D02*
X64820802Y-104867219D01*
X64820802Y-104867219D02*
X64820802Y-103867219D01*
X64820802Y-103867219D02*
X64344612Y-103867219D01*
X63916040Y-104867219D02*
X63916040Y-103867219D01*
X63916040Y-103867219D02*
X63677945Y-103867219D01*
X63677945Y-103867219D02*
X63535088Y-103914838D01*
X63535088Y-103914838D02*
X63439850Y-104010076D01*
X63439850Y-104010076D02*
X63392231Y-104105314D01*
X63392231Y-104105314D02*
X63344612Y-104295790D01*
X63344612Y-104295790D02*
X63344612Y-104438647D01*
X63344612Y-104438647D02*
X63392231Y-104629123D01*
X63392231Y-104629123D02*
X63439850Y-104724361D01*
X63439850Y-104724361D02*
X63535088Y-104819600D01*
X63535088Y-104819600D02*
X63677945Y-104867219D01*
X63677945Y-104867219D02*
X63916040Y-104867219D01*
X62154135Y-104867219D02*
X62154135Y-103867219D01*
X62154135Y-103867219D02*
X61773183Y-103867219D01*
X61773183Y-103867219D02*
X61677945Y-103914838D01*
X61677945Y-103914838D02*
X61630326Y-103962457D01*
X61630326Y-103962457D02*
X61582707Y-104057695D01*
X61582707Y-104057695D02*
X61582707Y-104200552D01*
X61582707Y-104200552D02*
X61630326Y-104295790D01*
X61630326Y-104295790D02*
X61677945Y-104343409D01*
X61677945Y-104343409D02*
X61773183Y-104391028D01*
X61773183Y-104391028D02*
X62154135Y-104391028D01*
X61154135Y-104867219D02*
X61154135Y-103867219D01*
X60677945Y-104867219D02*
X60677945Y-103867219D01*
X60677945Y-103867219D02*
X60106517Y-104867219D01*
X60106517Y-104867219D02*
X60106517Y-103867219D01*
X58868421Y-104343409D02*
X58106517Y-104343409D01*
X58106517Y-104629123D02*
X58868421Y-104629123D01*
X56868421Y-104867219D02*
X56868421Y-103867219D01*
X56868421Y-103867219D02*
X56630326Y-103867219D01*
X56630326Y-103867219D02*
X56487469Y-103914838D01*
X56487469Y-103914838D02*
X56392231Y-104010076D01*
X56392231Y-104010076D02*
X56344612Y-104105314D01*
X56344612Y-104105314D02*
X56296993Y-104295790D01*
X56296993Y-104295790D02*
X56296993Y-104438647D01*
X56296993Y-104438647D02*
X56344612Y-104629123D01*
X56344612Y-104629123D02*
X56392231Y-104724361D01*
X56392231Y-104724361D02*
X56487469Y-104819600D01*
X56487469Y-104819600D02*
X56630326Y-104867219D01*
X56630326Y-104867219D02*
X56868421Y-104867219D01*
X55725564Y-104295790D02*
X55820802Y-104248171D01*
X55820802Y-104248171D02*
X55868421Y-104200552D01*
X55868421Y-104200552D02*
X55916040Y-104105314D01*
X55916040Y-104105314D02*
X55916040Y-104057695D01*
X55916040Y-104057695D02*
X55868421Y-103962457D01*
X55868421Y-103962457D02*
X55820802Y-103914838D01*
X55820802Y-103914838D02*
X55725564Y-103867219D01*
X55725564Y-103867219D02*
X55535088Y-103867219D01*
X55535088Y-103867219D02*
X55439850Y-103914838D01*
X55439850Y-103914838D02*
X55392231Y-103962457D01*
X55392231Y-103962457D02*
X55344612Y-104057695D01*
X55344612Y-104057695D02*
X55344612Y-104105314D01*
X55344612Y-104105314D02*
X55392231Y-104200552D01*
X55392231Y-104200552D02*
X55439850Y-104248171D01*
X55439850Y-104248171D02*
X55535088Y-104295790D01*
X55535088Y-104295790D02*
X55725564Y-104295790D01*
X55725564Y-104295790D02*
X55820802Y-104343409D01*
X55820802Y-104343409D02*
X55868421Y-104391028D01*
X55868421Y-104391028D02*
X55916040Y-104486266D01*
X55916040Y-104486266D02*
X55916040Y-104676742D01*
X55916040Y-104676742D02*
X55868421Y-104771980D01*
X55868421Y-104771980D02*
X55820802Y-104819600D01*
X55820802Y-104819600D02*
X55725564Y-104867219D01*
X55725564Y-104867219D02*
X55535088Y-104867219D01*
X55535088Y-104867219D02*
X55439850Y-104819600D01*
X55439850Y-104819600D02*
X55392231Y-104771980D01*
X55392231Y-104771980D02*
X55344612Y-104676742D01*
X55344612Y-104676742D02*
X55344612Y-104486266D01*
X55344612Y-104486266D02*
X55392231Y-104391028D01*
X55392231Y-104391028D02*
X55439850Y-104343409D01*
X55439850Y-104343409D02*
X55535088Y-104295790D01*
%LPC*%
D11*
%TO.C,Double_Slider_Potentiometer5*%
X110500000Y-98000000D03*
X113262000Y-98000000D03*
X116024000Y-98000000D03*
X118500000Y-98000000D03*
X113388000Y-27000000D03*
X118650000Y-27000000D03*
D12*
X114500000Y-87000000D03*
X114500000Y-39600000D03*
%TD*%
D13*
%TO.C,A1*%
X92000000Y-55860000D03*
D14*
X92000000Y-53320000D03*
X92000000Y-50780000D03*
X92000000Y-48240000D03*
X92000000Y-45700000D03*
X92000000Y-43160000D03*
X92000000Y-40620000D03*
X92000000Y-38080000D03*
X92000000Y-35540000D03*
X92000000Y-33000000D03*
X92000000Y-30460000D03*
X92000000Y-27920000D03*
X92000000Y-25380000D03*
X92000000Y-22840000D03*
X92000000Y-20300000D03*
X76760000Y-20300000D03*
X76760000Y-22840000D03*
X76760000Y-25380000D03*
X76760000Y-27920000D03*
X76760000Y-30460000D03*
X76760000Y-33000000D03*
X76760000Y-35540000D03*
X76760000Y-38080000D03*
X76760000Y-40620000D03*
X76760000Y-43160000D03*
X76760000Y-45700000D03*
X76760000Y-48240000D03*
X76760000Y-50780000D03*
X76760000Y-53320000D03*
X76760000Y-55860000D03*
%TD*%
D11*
%TO.C,Double_Slider_Potentiometer2*%
X65500000Y-98000000D03*
X68262000Y-98000000D03*
X71024000Y-98000000D03*
X73500000Y-98000000D03*
X68388000Y-27000000D03*
X73650000Y-27000000D03*
D12*
X69500000Y-87000000D03*
X69500000Y-39600000D03*
%TD*%
D11*
%TO.C,Double_Slider_Potentiometer1*%
X50425000Y-97900000D03*
X53187000Y-97900000D03*
X55949000Y-97900000D03*
X58425000Y-97900000D03*
X53313000Y-26900000D03*
X58575000Y-26900000D03*
D12*
X54425000Y-86900000D03*
X54425000Y-39500000D03*
%TD*%
D11*
%TO.C,Double_Slider_Potentiometer4*%
X95425000Y-97900000D03*
X98187000Y-97900000D03*
X100949000Y-97900000D03*
X103425000Y-97900000D03*
X98313000Y-26900000D03*
X103575000Y-26900000D03*
D12*
X99425000Y-86900000D03*
X99425000Y-39500000D03*
%TD*%
D11*
%TO.C,Double_Slider_Potentiometer3*%
X80500000Y-97900000D03*
X83262000Y-97900000D03*
X86024000Y-97900000D03*
X88500000Y-97900000D03*
X83388000Y-26900000D03*
X88650000Y-26900000D03*
D12*
X84500000Y-86900000D03*
X84500000Y-39500000D03*
%TD*%
%LPD*%
M02*
