%TF.GenerationSoftware,KiCad,Pcbnew,8.0.0*%
%TF.CreationDate,2024-07-03T13:45:48+02:00*%
%TF.ProjectId,Audio-Controller V1.1,41756469-6f2d-4436-9f6e-74726f6c6c65,rev?*%
%TF.SameCoordinates,Original*%
%TF.FileFunction,Soldermask,Top*%
%TF.FilePolarity,Negative*%
%FSLAX46Y46*%
G04 Gerber Fmt 4.6, Leading zero omitted, Abs format (unit mm)*
G04 Created by KiCad (PCBNEW 8.0.0) date 2024-07-03 13:45:48*
%MOMM*%
%LPD*%
G01*
G04 APERTURE LIST*
G04 Aperture macros list*
%AMRoundRect*
0 Rectangle with rounded corners*
0 $1 Rounding radius*
0 $2 $3 $4 $5 $6 $7 $8 $9 X,Y pos of 4 corners*
0 Add a 4 corners polygon primitive as box body*
4,1,4,$2,$3,$4,$5,$6,$7,$8,$9,$2,$3,0*
0 Add four circle primitives for the rounded corners*
1,1,$1+$1,$2,$3*
1,1,$1+$1,$4,$5*
1,1,$1+$1,$6,$7*
1,1,$1+$1,$8,$9*
0 Add four rect primitives between the rounded corners*
20,1,$1+$1,$2,$3,$4,$5,0*
20,1,$1+$1,$4,$5,$6,$7,0*
20,1,$1+$1,$6,$7,$8,$9,0*
20,1,$1+$1,$8,$9,$2,$3,0*%
G04 Aperture macros list end*
%ADD10RoundRect,0.250000X-0.450000X0.350000X-0.450000X-0.350000X0.450000X-0.350000X0.450000X0.350000X0*%
%ADD11RoundRect,0.250000X0.450000X-0.325000X0.450000X0.325000X-0.450000X0.325000X-0.450000X-0.325000X0*%
%ADD12C,2.000000*%
%ADD13C,3.500000*%
%ADD14R,1.600000X1.600000*%
%ADD15O,1.600000X1.600000*%
G04 APERTURE END LIST*
D10*
%TO.C,R5*%
X116500000Y-113000000D03*
X116500000Y-115000000D03*
%TD*%
%TO.C,R4*%
X101500000Y-113000000D03*
X101500000Y-115000000D03*
%TD*%
%TO.C,R3*%
X86500000Y-113000000D03*
X86500000Y-115000000D03*
%TD*%
%TO.C,R2*%
X71500000Y-113000000D03*
X71500000Y-115000000D03*
%TD*%
%TO.C,R1*%
X56500000Y-113000000D03*
X56500000Y-115000000D03*
%TD*%
D11*
%TO.C,D5*%
X114500000Y-115025000D03*
X114500000Y-112975000D03*
%TD*%
%TO.C,D4*%
X99500000Y-115025000D03*
X99500000Y-112975000D03*
%TD*%
%TO.C,D3*%
X84500000Y-115025000D03*
X84500000Y-112975000D03*
%TD*%
%TO.C,D2*%
X69500000Y-115000000D03*
X69500000Y-112950000D03*
%TD*%
%TO.C,D1*%
X54500000Y-115025000D03*
X54500000Y-112975000D03*
%TD*%
D12*
%TO.C,Double_Slider_Potentiometer5*%
X110500000Y-98000000D03*
X113262000Y-98000000D03*
X116024000Y-98000000D03*
X118500000Y-98000000D03*
X113388000Y-27000000D03*
X118650000Y-27000000D03*
D13*
X114500000Y-87000000D03*
X114500000Y-39600000D03*
%TD*%
D14*
%TO.C,A1*%
X92000000Y-55860000D03*
D15*
X92000000Y-53320000D03*
X92000000Y-50780000D03*
X92000000Y-48240000D03*
X92000000Y-45700000D03*
X92000000Y-43160000D03*
X92000000Y-40620000D03*
X92000000Y-38080000D03*
X92000000Y-35540000D03*
X92000000Y-33000000D03*
X92000000Y-30460000D03*
X92000000Y-27920000D03*
X92000000Y-25380000D03*
X92000000Y-22840000D03*
X92000000Y-20300000D03*
X76760000Y-20300000D03*
X76760000Y-22840000D03*
X76760000Y-25380000D03*
X76760000Y-27920000D03*
X76760000Y-30460000D03*
X76760000Y-33000000D03*
X76760000Y-35540000D03*
X76760000Y-38080000D03*
X76760000Y-40620000D03*
X76760000Y-43160000D03*
X76760000Y-45700000D03*
X76760000Y-48240000D03*
X76760000Y-50780000D03*
X76760000Y-53320000D03*
X76760000Y-55860000D03*
%TD*%
D12*
%TO.C,Double_Slider_Potentiometer2*%
X65500000Y-98000000D03*
X68262000Y-98000000D03*
X71024000Y-98000000D03*
X73500000Y-98000000D03*
X68388000Y-27000000D03*
X73650000Y-27000000D03*
D13*
X69500000Y-87000000D03*
X69500000Y-39600000D03*
%TD*%
D12*
%TO.C,Double_Slider_Potentiometer1*%
X50425000Y-97900000D03*
X53187000Y-97900000D03*
X55949000Y-97900000D03*
X58425000Y-97900000D03*
X53313000Y-26900000D03*
X58575000Y-26900000D03*
D13*
X54425000Y-86900000D03*
X54425000Y-39500000D03*
%TD*%
D12*
%TO.C,Double_Slider_Potentiometer4*%
X95425000Y-97900000D03*
X98187000Y-97900000D03*
X100949000Y-97900000D03*
X103425000Y-97900000D03*
X98313000Y-26900000D03*
X103575000Y-26900000D03*
D13*
X99425000Y-86900000D03*
X99425000Y-39500000D03*
%TD*%
D12*
%TO.C,Double_Slider_Potentiometer3*%
X80500000Y-97900000D03*
X83262000Y-97900000D03*
X86024000Y-97900000D03*
X88500000Y-97900000D03*
X83388000Y-26900000D03*
X88650000Y-26900000D03*
D13*
X84500000Y-86900000D03*
X84500000Y-39500000D03*
%TD*%
M02*
