M48
; DRILL file {KiCad 8.0.0} date 2024-07-04T13:53:26+0200
; FORMAT={-:-/ absolute / inch / decimal}
; #@! TF.CreationDate,2024-07-04T13:53:26+02:00
; #@! TF.GenerationSoftware,Kicad,Pcbnew,8.0.0
; #@! TF.FileFunction,Plated,1,2,PTH
FMAT,2
INCH
; #@! TA.AperFunction,Plated,PTH,ViaDrill
T1C0.0118
; #@! TA.AperFunction,Plated,PTH,ComponentDrill
T2C0.0394
; #@! TA.AperFunction,Plated,PTH,ComponentDrill
T3C0.0787
%
G90
G05
T1
X1.9291Y-4.4685
X2.0866Y-4.2323
X2.4409Y-1.2402
X2.5197Y-4.4685
X3.1102Y-4.4685
X3.2283Y-1.8898
X3.7008Y-4.4685
X4.1907Y-0.7896
X4.2913Y-4.4685
T2
X1.9852Y-3.8543
X2.094Y-3.8543
X2.0989Y-1.0591
X2.2027Y-3.8543
X2.3002Y-3.8543
X2.3061Y-1.0591
X2.5787Y-3.8583
X2.6875Y-3.8583
X2.6924Y-1.063
X2.7962Y-3.8583
X2.8937Y-3.8583
X2.8996Y-1.063
X3.022Y-0.7992
X3.022Y-0.8992
X3.022Y-0.9992
X3.022Y-1.0992
X3.022Y-1.1992
X3.022Y-1.2992
X3.022Y-1.3992
X3.022Y-1.4992
X3.022Y-1.5992
X3.022Y-1.6992
X3.022Y-1.7992
X3.022Y-1.8992
X3.022Y-1.9992
X3.022Y-2.0992
X3.022Y-2.1992
X3.1693Y-3.8543
X3.278Y-3.8543
X3.283Y-1.0591
X3.3868Y-3.8543
X3.4843Y-3.8543
X3.4902Y-1.0591
X3.622Y-0.7992
X3.622Y-0.8992
X3.622Y-0.9992
X3.622Y-1.0992
X3.622Y-1.1992
X3.622Y-1.2992
X3.622Y-1.3992
X3.622Y-1.4992
X3.622Y-1.5992
X3.622Y-1.6992
X3.622Y-1.7992
X3.622Y-1.8992
X3.622Y-1.9992
X3.622Y-2.0992
X3.622Y-2.1992
X3.7569Y-3.8543
X3.8656Y-3.8543
X3.8706Y-1.0591
X3.9744Y-3.8543
X4.0719Y-3.8543
X4.0778Y-1.0591
X4.3504Y-3.8583
X4.4591Y-3.8583
X4.4641Y-1.063
X4.5679Y-3.8583
X4.6654Y-3.8583
X4.6713Y-1.063
T3
X2.1427Y-1.5551
X2.1427Y-3.4213
X2.7362Y-1.5591
X2.7362Y-3.4252
X3.3268Y-1.5551
X3.3268Y-3.4213
X3.9144Y-1.5551
X3.9144Y-3.4213
X4.5079Y-1.5591
X4.5079Y-3.4252
M30
