%TF.GenerationSoftware,KiCad,Pcbnew,8.0.0*%
%TF.CreationDate,2024-07-04T13:53:27+02:00*%
%TF.ProjectId,Audio-Controller V2.0,41756469-6f2d-4436-9f6e-74726f6c6c65,rev?*%
%TF.SameCoordinates,Original*%
%TF.FileFunction,Drillmap*%
%TF.FilePolarity,Positive*%
%FSLAX45Y45*%
G04 Gerber Fmt 4.5, Leading zero omitted, Abs format (unit mm)*
G04 Created by KiCad (PCBNEW 8.0.0) date 2024-07-04 13:53:27*
%MOMM*%
%LPD*%
G01*
G04 APERTURE LIST*
%ADD10C,0.200000*%
%ADD11C,0.100000*%
G04 APERTURE END LIST*
D10*
X5255000Y-10400000D02*
G75*
G02*
X4945000Y-10400000I-155000J0D01*
G01*
X4945000Y-10400000D02*
G75*
G02*
X5255000Y-10400000I155000J0D01*
G01*
X5260000Y-1950000D02*
G75*
G02*
X4950000Y-1950000I-155000J0D01*
G01*
X4950000Y-1950000D02*
G75*
G02*
X5260000Y-1950000I155000J0D01*
G01*
X4800000Y-1650000D02*
X12100000Y-1650000D01*
X12100000Y-11650000D01*
X4800000Y-11650000D01*
X4800000Y-1650000D01*
X11955000Y-10400000D02*
G75*
G02*
X11645000Y-10400000I-155000J0D01*
G01*
X11645000Y-10400000D02*
G75*
G02*
X11955000Y-10400000I155000J0D01*
G01*
X11960000Y-1950000D02*
G75*
G02*
X11650000Y-1950000I-155000J0D01*
G01*
X11650000Y-1950000D02*
G75*
G02*
X11960000Y-1950000I155000J0D01*
G01*
D11*
X4885000Y-11335000D02*
X4915000Y-11365000D01*
X4915000Y-11335000D02*
X4885000Y-11365000D01*
X5285000Y-10735000D02*
X5315000Y-10765000D01*
X5315000Y-10735000D02*
X5285000Y-10765000D01*
X6185000Y-3135000D02*
X6215000Y-3165000D01*
X6215000Y-3135000D02*
X6185000Y-3165000D01*
X6385000Y-11335000D02*
X6415000Y-11365000D01*
X6415000Y-11335000D02*
X6385000Y-11365000D01*
X7885000Y-11335000D02*
X7915000Y-11365000D01*
X7915000Y-11335000D02*
X7885000Y-11365000D01*
X8185000Y-4785000D02*
X8215000Y-4815000D01*
X8215000Y-4785000D02*
X8185000Y-4815000D01*
X9385000Y-11335000D02*
X9415000Y-11365000D01*
X9415000Y-11335000D02*
X9385000Y-11365000D01*
X10629400Y-1990600D02*
X10659400Y-2020600D01*
X10659400Y-1990600D02*
X10629400Y-2020600D01*
X10885000Y-11335000D02*
X10915000Y-11365000D01*
X10915000Y-11335000D02*
X10885000Y-11365000D01*
X5092500Y-9790000D02*
G75*
G02*
X4992500Y-9790000I-50000J0D01*
G01*
X4992500Y-9790000D02*
G75*
G02*
X5092500Y-9790000I50000J0D01*
G01*
X5368700Y-9790000D02*
G75*
G02*
X5268700Y-9790000I-50000J0D01*
G01*
X5268700Y-9790000D02*
G75*
G02*
X5368700Y-9790000I50000J0D01*
G01*
X5381300Y-2690000D02*
G75*
G02*
X5281300Y-2690000I-50000J0D01*
G01*
X5281300Y-2690000D02*
G75*
G02*
X5381300Y-2690000I50000J0D01*
G01*
X5644900Y-9790000D02*
G75*
G02*
X5544900Y-9790000I-50000J0D01*
G01*
X5544900Y-9790000D02*
G75*
G02*
X5644900Y-9790000I50000J0D01*
G01*
X5892500Y-9790000D02*
G75*
G02*
X5792500Y-9790000I-50000J0D01*
G01*
X5792500Y-9790000D02*
G75*
G02*
X5892500Y-9790000I50000J0D01*
G01*
X5907500Y-2690000D02*
G75*
G02*
X5807500Y-2690000I-50000J0D01*
G01*
X5807500Y-2690000D02*
G75*
G02*
X5907500Y-2690000I50000J0D01*
G01*
X6600000Y-9800000D02*
G75*
G02*
X6500000Y-9800000I-50000J0D01*
G01*
X6500000Y-9800000D02*
G75*
G02*
X6600000Y-9800000I50000J0D01*
G01*
X6876200Y-9800000D02*
G75*
G02*
X6776200Y-9800000I-50000J0D01*
G01*
X6776200Y-9800000D02*
G75*
G02*
X6876200Y-9800000I50000J0D01*
G01*
X6888800Y-2700000D02*
G75*
G02*
X6788800Y-2700000I-50000J0D01*
G01*
X6788800Y-2700000D02*
G75*
G02*
X6888800Y-2700000I50000J0D01*
G01*
X7152400Y-9800000D02*
G75*
G02*
X7052400Y-9800000I-50000J0D01*
G01*
X7052400Y-9800000D02*
G75*
G02*
X7152400Y-9800000I50000J0D01*
G01*
X7400000Y-9800000D02*
G75*
G02*
X7300000Y-9800000I-50000J0D01*
G01*
X7300000Y-9800000D02*
G75*
G02*
X7400000Y-9800000I50000J0D01*
G01*
X7415000Y-2700000D02*
G75*
G02*
X7315000Y-2700000I-50000J0D01*
G01*
X7315000Y-2700000D02*
G75*
G02*
X7415000Y-2700000I50000J0D01*
G01*
X7726000Y-2030000D02*
G75*
G02*
X7626000Y-2030000I-50000J0D01*
G01*
X7626000Y-2030000D02*
G75*
G02*
X7726000Y-2030000I50000J0D01*
G01*
X7726000Y-2284000D02*
G75*
G02*
X7626000Y-2284000I-50000J0D01*
G01*
X7626000Y-2284000D02*
G75*
G02*
X7726000Y-2284000I50000J0D01*
G01*
X7726000Y-2538000D02*
G75*
G02*
X7626000Y-2538000I-50000J0D01*
G01*
X7626000Y-2538000D02*
G75*
G02*
X7726000Y-2538000I50000J0D01*
G01*
X7726000Y-2792000D02*
G75*
G02*
X7626000Y-2792000I-50000J0D01*
G01*
X7626000Y-2792000D02*
G75*
G02*
X7726000Y-2792000I50000J0D01*
G01*
X7726000Y-3046000D02*
G75*
G02*
X7626000Y-3046000I-50000J0D01*
G01*
X7626000Y-3046000D02*
G75*
G02*
X7726000Y-3046000I50000J0D01*
G01*
X7726000Y-3300000D02*
G75*
G02*
X7626000Y-3300000I-50000J0D01*
G01*
X7626000Y-3300000D02*
G75*
G02*
X7726000Y-3300000I50000J0D01*
G01*
X7726000Y-3554000D02*
G75*
G02*
X7626000Y-3554000I-50000J0D01*
G01*
X7626000Y-3554000D02*
G75*
G02*
X7726000Y-3554000I50000J0D01*
G01*
X7726000Y-3808000D02*
G75*
G02*
X7626000Y-3808000I-50000J0D01*
G01*
X7626000Y-3808000D02*
G75*
G02*
X7726000Y-3808000I50000J0D01*
G01*
X7726000Y-4062000D02*
G75*
G02*
X7626000Y-4062000I-50000J0D01*
G01*
X7626000Y-4062000D02*
G75*
G02*
X7726000Y-4062000I50000J0D01*
G01*
X7726000Y-4316000D02*
G75*
G02*
X7626000Y-4316000I-50000J0D01*
G01*
X7626000Y-4316000D02*
G75*
G02*
X7726000Y-4316000I50000J0D01*
G01*
X7726000Y-4570000D02*
G75*
G02*
X7626000Y-4570000I-50000J0D01*
G01*
X7626000Y-4570000D02*
G75*
G02*
X7726000Y-4570000I50000J0D01*
G01*
X7726000Y-4824000D02*
G75*
G02*
X7626000Y-4824000I-50000J0D01*
G01*
X7626000Y-4824000D02*
G75*
G02*
X7726000Y-4824000I50000J0D01*
G01*
X7726000Y-5078000D02*
G75*
G02*
X7626000Y-5078000I-50000J0D01*
G01*
X7626000Y-5078000D02*
G75*
G02*
X7726000Y-5078000I50000J0D01*
G01*
X7726000Y-5332000D02*
G75*
G02*
X7626000Y-5332000I-50000J0D01*
G01*
X7626000Y-5332000D02*
G75*
G02*
X7726000Y-5332000I50000J0D01*
G01*
X7726000Y-5586000D02*
G75*
G02*
X7626000Y-5586000I-50000J0D01*
G01*
X7626000Y-5586000D02*
G75*
G02*
X7726000Y-5586000I50000J0D01*
G01*
X8100000Y-9790000D02*
G75*
G02*
X8000000Y-9790000I-50000J0D01*
G01*
X8000000Y-9790000D02*
G75*
G02*
X8100000Y-9790000I50000J0D01*
G01*
X8376200Y-9790000D02*
G75*
G02*
X8276200Y-9790000I-50000J0D01*
G01*
X8276200Y-9790000D02*
G75*
G02*
X8376200Y-9790000I50000J0D01*
G01*
X8388800Y-2690000D02*
G75*
G02*
X8288800Y-2690000I-50000J0D01*
G01*
X8288800Y-2690000D02*
G75*
G02*
X8388800Y-2690000I50000J0D01*
G01*
X8652400Y-9790000D02*
G75*
G02*
X8552400Y-9790000I-50000J0D01*
G01*
X8552400Y-9790000D02*
G75*
G02*
X8652400Y-9790000I50000J0D01*
G01*
X8900000Y-9790000D02*
G75*
G02*
X8800000Y-9790000I-50000J0D01*
G01*
X8800000Y-9790000D02*
G75*
G02*
X8900000Y-9790000I50000J0D01*
G01*
X8915000Y-2690000D02*
G75*
G02*
X8815000Y-2690000I-50000J0D01*
G01*
X8815000Y-2690000D02*
G75*
G02*
X8915000Y-2690000I50000J0D01*
G01*
X9250000Y-2030000D02*
G75*
G02*
X9150000Y-2030000I-50000J0D01*
G01*
X9150000Y-2030000D02*
G75*
G02*
X9250000Y-2030000I50000J0D01*
G01*
X9250000Y-2284000D02*
G75*
G02*
X9150000Y-2284000I-50000J0D01*
G01*
X9150000Y-2284000D02*
G75*
G02*
X9250000Y-2284000I50000J0D01*
G01*
X9250000Y-2538000D02*
G75*
G02*
X9150000Y-2538000I-50000J0D01*
G01*
X9150000Y-2538000D02*
G75*
G02*
X9250000Y-2538000I50000J0D01*
G01*
X9250000Y-2792000D02*
G75*
G02*
X9150000Y-2792000I-50000J0D01*
G01*
X9150000Y-2792000D02*
G75*
G02*
X9250000Y-2792000I50000J0D01*
G01*
X9250000Y-3046000D02*
G75*
G02*
X9150000Y-3046000I-50000J0D01*
G01*
X9150000Y-3046000D02*
G75*
G02*
X9250000Y-3046000I50000J0D01*
G01*
X9250000Y-3300000D02*
G75*
G02*
X9150000Y-3300000I-50000J0D01*
G01*
X9150000Y-3300000D02*
G75*
G02*
X9250000Y-3300000I50000J0D01*
G01*
X9250000Y-3554000D02*
G75*
G02*
X9150000Y-3554000I-50000J0D01*
G01*
X9150000Y-3554000D02*
G75*
G02*
X9250000Y-3554000I50000J0D01*
G01*
X9250000Y-3808000D02*
G75*
G02*
X9150000Y-3808000I-50000J0D01*
G01*
X9150000Y-3808000D02*
G75*
G02*
X9250000Y-3808000I50000J0D01*
G01*
X9250000Y-4062000D02*
G75*
G02*
X9150000Y-4062000I-50000J0D01*
G01*
X9150000Y-4062000D02*
G75*
G02*
X9250000Y-4062000I50000J0D01*
G01*
X9250000Y-4316000D02*
G75*
G02*
X9150000Y-4316000I-50000J0D01*
G01*
X9150000Y-4316000D02*
G75*
G02*
X9250000Y-4316000I50000J0D01*
G01*
X9250000Y-4570000D02*
G75*
G02*
X9150000Y-4570000I-50000J0D01*
G01*
X9150000Y-4570000D02*
G75*
G02*
X9250000Y-4570000I50000J0D01*
G01*
X9250000Y-4824000D02*
G75*
G02*
X9150000Y-4824000I-50000J0D01*
G01*
X9150000Y-4824000D02*
G75*
G02*
X9250000Y-4824000I50000J0D01*
G01*
X9250000Y-5078000D02*
G75*
G02*
X9150000Y-5078000I-50000J0D01*
G01*
X9150000Y-5078000D02*
G75*
G02*
X9250000Y-5078000I50000J0D01*
G01*
X9250000Y-5332000D02*
G75*
G02*
X9150000Y-5332000I-50000J0D01*
G01*
X9150000Y-5332000D02*
G75*
G02*
X9250000Y-5332000I50000J0D01*
G01*
X9250000Y-5586000D02*
G75*
G02*
X9150000Y-5586000I-50000J0D01*
G01*
X9150000Y-5586000D02*
G75*
G02*
X9250000Y-5586000I50000J0D01*
G01*
X9592500Y-9790000D02*
G75*
G02*
X9492500Y-9790000I-50000J0D01*
G01*
X9492500Y-9790000D02*
G75*
G02*
X9592500Y-9790000I50000J0D01*
G01*
X9868700Y-9790000D02*
G75*
G02*
X9768700Y-9790000I-50000J0D01*
G01*
X9768700Y-9790000D02*
G75*
G02*
X9868700Y-9790000I50000J0D01*
G01*
X9881300Y-2690000D02*
G75*
G02*
X9781300Y-2690000I-50000J0D01*
G01*
X9781300Y-2690000D02*
G75*
G02*
X9881300Y-2690000I50000J0D01*
G01*
X10144900Y-9790000D02*
G75*
G02*
X10044900Y-9790000I-50000J0D01*
G01*
X10044900Y-9790000D02*
G75*
G02*
X10144900Y-9790000I50000J0D01*
G01*
X10392500Y-9790000D02*
G75*
G02*
X10292500Y-9790000I-50000J0D01*
G01*
X10292500Y-9790000D02*
G75*
G02*
X10392500Y-9790000I50000J0D01*
G01*
X10407500Y-2690000D02*
G75*
G02*
X10307500Y-2690000I-50000J0D01*
G01*
X10307500Y-2690000D02*
G75*
G02*
X10407500Y-2690000I50000J0D01*
G01*
X11100000Y-9800000D02*
G75*
G02*
X11000000Y-9800000I-50000J0D01*
G01*
X11000000Y-9800000D02*
G75*
G02*
X11100000Y-9800000I50000J0D01*
G01*
X11376200Y-9800000D02*
G75*
G02*
X11276200Y-9800000I-50000J0D01*
G01*
X11276200Y-9800000D02*
G75*
G02*
X11376200Y-9800000I50000J0D01*
G01*
X11388800Y-2700000D02*
G75*
G02*
X11288800Y-2700000I-50000J0D01*
G01*
X11288800Y-2700000D02*
G75*
G02*
X11388800Y-2700000I50000J0D01*
G01*
X11652400Y-9800000D02*
G75*
G02*
X11552400Y-9800000I-50000J0D01*
G01*
X11552400Y-9800000D02*
G75*
G02*
X11652400Y-9800000I50000J0D01*
G01*
X11900000Y-9800000D02*
G75*
G02*
X11800000Y-9800000I-50000J0D01*
G01*
X11800000Y-9800000D02*
G75*
G02*
X11900000Y-9800000I50000J0D01*
G01*
X11915000Y-2700000D02*
G75*
G02*
X11815000Y-2700000I-50000J0D01*
G01*
X11815000Y-2700000D02*
G75*
G02*
X11915000Y-2700000I50000J0D01*
G01*
D10*
X5442500Y-3850000D02*
X5442500Y-4050000D01*
X5342500Y-3950000D02*
X5542500Y-3950000D01*
X5442500Y-8590000D02*
X5442500Y-8790000D01*
X5342500Y-8690000D02*
X5542500Y-8690000D01*
X6950000Y-3860000D02*
X6950000Y-4060000D01*
X6850000Y-3960000D02*
X7050000Y-3960000D01*
X6950000Y-8600000D02*
X6950000Y-8800000D01*
X6850000Y-8700000D02*
X7050000Y-8700000D01*
X8450000Y-3850000D02*
X8450000Y-4050000D01*
X8350000Y-3950000D02*
X8550000Y-3950000D01*
X8450000Y-8590000D02*
X8450000Y-8790000D01*
X8350000Y-8690000D02*
X8550000Y-8690000D01*
X9942500Y-3850000D02*
X9942500Y-4050000D01*
X9842500Y-3950000D02*
X10042500Y-3950000D01*
X9942500Y-8590000D02*
X9942500Y-8790000D01*
X9842500Y-8690000D02*
X10042500Y-8690000D01*
X11450000Y-3860000D02*
X11450000Y-4060000D01*
X11350000Y-3960000D02*
X11550000Y-3960000D01*
X11450000Y-8600000D02*
X11450000Y-8800000D01*
X11350000Y-8700000D02*
X11550000Y-8700000D01*
X5050777Y-11971484D02*
X5050777Y-11771484D01*
X5050777Y-11771484D02*
X5098396Y-11771484D01*
X5098396Y-11771484D02*
X5126967Y-11781008D01*
X5126967Y-11781008D02*
X5146015Y-11800055D01*
X5146015Y-11800055D02*
X5155539Y-11819103D01*
X5155539Y-11819103D02*
X5165063Y-11857198D01*
X5165063Y-11857198D02*
X5165063Y-11885769D01*
X5165063Y-11885769D02*
X5155539Y-11923865D01*
X5155539Y-11923865D02*
X5146015Y-11942912D01*
X5146015Y-11942912D02*
X5126967Y-11961960D01*
X5126967Y-11961960D02*
X5098396Y-11971484D01*
X5098396Y-11971484D02*
X5050777Y-11971484D01*
X5250777Y-11971484D02*
X5250777Y-11838150D01*
X5250777Y-11876246D02*
X5260301Y-11857198D01*
X5260301Y-11857198D02*
X5269824Y-11847674D01*
X5269824Y-11847674D02*
X5288872Y-11838150D01*
X5288872Y-11838150D02*
X5307920Y-11838150D01*
X5374586Y-11971484D02*
X5374586Y-11838150D01*
X5374586Y-11771484D02*
X5365063Y-11781008D01*
X5365063Y-11781008D02*
X5374586Y-11790531D01*
X5374586Y-11790531D02*
X5384110Y-11781008D01*
X5384110Y-11781008D02*
X5374586Y-11771484D01*
X5374586Y-11771484D02*
X5374586Y-11790531D01*
X5498396Y-11971484D02*
X5479348Y-11961960D01*
X5479348Y-11961960D02*
X5469824Y-11942912D01*
X5469824Y-11942912D02*
X5469824Y-11771484D01*
X5603158Y-11971484D02*
X5584110Y-11961960D01*
X5584110Y-11961960D02*
X5574586Y-11942912D01*
X5574586Y-11942912D02*
X5574586Y-11771484D01*
X5831729Y-11971484D02*
X5831729Y-11771484D01*
X5831729Y-11771484D02*
X5898396Y-11914341D01*
X5898396Y-11914341D02*
X5965062Y-11771484D01*
X5965062Y-11771484D02*
X5965062Y-11971484D01*
X6146015Y-11971484D02*
X6146015Y-11866722D01*
X6146015Y-11866722D02*
X6136491Y-11847674D01*
X6136491Y-11847674D02*
X6117443Y-11838150D01*
X6117443Y-11838150D02*
X6079348Y-11838150D01*
X6079348Y-11838150D02*
X6060301Y-11847674D01*
X6146015Y-11961960D02*
X6126967Y-11971484D01*
X6126967Y-11971484D02*
X6079348Y-11971484D01*
X6079348Y-11971484D02*
X6060301Y-11961960D01*
X6060301Y-11961960D02*
X6050777Y-11942912D01*
X6050777Y-11942912D02*
X6050777Y-11923865D01*
X6050777Y-11923865D02*
X6060301Y-11904817D01*
X6060301Y-11904817D02*
X6079348Y-11895293D01*
X6079348Y-11895293D02*
X6126967Y-11895293D01*
X6126967Y-11895293D02*
X6146015Y-11885769D01*
X6241253Y-11838150D02*
X6241253Y-12038150D01*
X6241253Y-11847674D02*
X6260301Y-11838150D01*
X6260301Y-11838150D02*
X6298396Y-11838150D01*
X6298396Y-11838150D02*
X6317443Y-11847674D01*
X6317443Y-11847674D02*
X6326967Y-11857198D01*
X6326967Y-11857198D02*
X6336491Y-11876246D01*
X6336491Y-11876246D02*
X6336491Y-11933388D01*
X6336491Y-11933388D02*
X6326967Y-11952436D01*
X6326967Y-11952436D02*
X6317443Y-11961960D01*
X6317443Y-11961960D02*
X6298396Y-11971484D01*
X6298396Y-11971484D02*
X6260301Y-11971484D01*
X6260301Y-11971484D02*
X6241253Y-11961960D01*
X6422205Y-11952436D02*
X6431729Y-11961960D01*
X6431729Y-11961960D02*
X6422205Y-11971484D01*
X6422205Y-11971484D02*
X6412682Y-11961960D01*
X6412682Y-11961960D02*
X6422205Y-11952436D01*
X6422205Y-11952436D02*
X6422205Y-11971484D01*
X6422205Y-11847674D02*
X6431729Y-11857198D01*
X6431729Y-11857198D02*
X6422205Y-11866722D01*
X6422205Y-11866722D02*
X6412682Y-11857198D01*
X6412682Y-11857198D02*
X6422205Y-11847674D01*
X6422205Y-11847674D02*
X6422205Y-11866722D01*
D11*
X4760000Y-12285000D02*
X4790000Y-12315000D01*
X4790000Y-12285000D02*
X4760000Y-12315000D01*
D10*
X5088872Y-12191484D02*
X5107920Y-12191484D01*
X5107920Y-12191484D02*
X5126967Y-12201008D01*
X5126967Y-12201008D02*
X5136491Y-12210531D01*
X5136491Y-12210531D02*
X5146015Y-12229579D01*
X5146015Y-12229579D02*
X5155539Y-12267674D01*
X5155539Y-12267674D02*
X5155539Y-12315293D01*
X5155539Y-12315293D02*
X5146015Y-12353388D01*
X5146015Y-12353388D02*
X5136491Y-12372436D01*
X5136491Y-12372436D02*
X5126967Y-12381960D01*
X5126967Y-12381960D02*
X5107920Y-12391484D01*
X5107920Y-12391484D02*
X5088872Y-12391484D01*
X5088872Y-12391484D02*
X5069824Y-12381960D01*
X5069824Y-12381960D02*
X5060301Y-12372436D01*
X5060301Y-12372436D02*
X5050777Y-12353388D01*
X5050777Y-12353388D02*
X5041253Y-12315293D01*
X5041253Y-12315293D02*
X5041253Y-12267674D01*
X5041253Y-12267674D02*
X5050777Y-12229579D01*
X5050777Y-12229579D02*
X5060301Y-12210531D01*
X5060301Y-12210531D02*
X5069824Y-12201008D01*
X5069824Y-12201008D02*
X5088872Y-12191484D01*
X5241253Y-12372436D02*
X5250777Y-12381960D01*
X5250777Y-12381960D02*
X5241253Y-12391484D01*
X5241253Y-12391484D02*
X5231729Y-12381960D01*
X5231729Y-12381960D02*
X5241253Y-12372436D01*
X5241253Y-12372436D02*
X5241253Y-12391484D01*
X5317444Y-12191484D02*
X5441253Y-12191484D01*
X5441253Y-12191484D02*
X5374586Y-12267674D01*
X5374586Y-12267674D02*
X5403158Y-12267674D01*
X5403158Y-12267674D02*
X5422205Y-12277198D01*
X5422205Y-12277198D02*
X5431729Y-12286722D01*
X5431729Y-12286722D02*
X5441253Y-12305769D01*
X5441253Y-12305769D02*
X5441253Y-12353388D01*
X5441253Y-12353388D02*
X5431729Y-12372436D01*
X5431729Y-12372436D02*
X5422205Y-12381960D01*
X5422205Y-12381960D02*
X5403158Y-12391484D01*
X5403158Y-12391484D02*
X5346015Y-12391484D01*
X5346015Y-12391484D02*
X5326967Y-12381960D01*
X5326967Y-12381960D02*
X5317444Y-12372436D01*
X5565063Y-12191484D02*
X5584110Y-12191484D01*
X5584110Y-12191484D02*
X5603158Y-12201008D01*
X5603158Y-12201008D02*
X5612682Y-12210531D01*
X5612682Y-12210531D02*
X5622205Y-12229579D01*
X5622205Y-12229579D02*
X5631729Y-12267674D01*
X5631729Y-12267674D02*
X5631729Y-12315293D01*
X5631729Y-12315293D02*
X5622205Y-12353388D01*
X5622205Y-12353388D02*
X5612682Y-12372436D01*
X5612682Y-12372436D02*
X5603158Y-12381960D01*
X5603158Y-12381960D02*
X5584110Y-12391484D01*
X5584110Y-12391484D02*
X5565063Y-12391484D01*
X5565063Y-12391484D02*
X5546015Y-12381960D01*
X5546015Y-12381960D02*
X5536491Y-12372436D01*
X5536491Y-12372436D02*
X5526967Y-12353388D01*
X5526967Y-12353388D02*
X5517444Y-12315293D01*
X5517444Y-12315293D02*
X5517444Y-12267674D01*
X5517444Y-12267674D02*
X5526967Y-12229579D01*
X5526967Y-12229579D02*
X5536491Y-12210531D01*
X5536491Y-12210531D02*
X5546015Y-12201008D01*
X5546015Y-12201008D02*
X5565063Y-12191484D01*
X5755539Y-12191484D02*
X5774586Y-12191484D01*
X5774586Y-12191484D02*
X5793634Y-12201008D01*
X5793634Y-12201008D02*
X5803158Y-12210531D01*
X5803158Y-12210531D02*
X5812682Y-12229579D01*
X5812682Y-12229579D02*
X5822205Y-12267674D01*
X5822205Y-12267674D02*
X5822205Y-12315293D01*
X5822205Y-12315293D02*
X5812682Y-12353388D01*
X5812682Y-12353388D02*
X5803158Y-12372436D01*
X5803158Y-12372436D02*
X5793634Y-12381960D01*
X5793634Y-12381960D02*
X5774586Y-12391484D01*
X5774586Y-12391484D02*
X5755539Y-12391484D01*
X5755539Y-12391484D02*
X5736491Y-12381960D01*
X5736491Y-12381960D02*
X5726967Y-12372436D01*
X5726967Y-12372436D02*
X5717443Y-12353388D01*
X5717443Y-12353388D02*
X5707920Y-12315293D01*
X5707920Y-12315293D02*
X5707920Y-12267674D01*
X5707920Y-12267674D02*
X5717443Y-12229579D01*
X5717443Y-12229579D02*
X5726967Y-12210531D01*
X5726967Y-12210531D02*
X5736491Y-12201008D01*
X5736491Y-12201008D02*
X5755539Y-12191484D01*
X5907920Y-12391484D02*
X5907920Y-12258150D01*
X5907920Y-12277198D02*
X5917443Y-12267674D01*
X5917443Y-12267674D02*
X5936491Y-12258150D01*
X5936491Y-12258150D02*
X5965063Y-12258150D01*
X5965063Y-12258150D02*
X5984110Y-12267674D01*
X5984110Y-12267674D02*
X5993634Y-12286722D01*
X5993634Y-12286722D02*
X5993634Y-12391484D01*
X5993634Y-12286722D02*
X6003158Y-12267674D01*
X6003158Y-12267674D02*
X6022205Y-12258150D01*
X6022205Y-12258150D02*
X6050777Y-12258150D01*
X6050777Y-12258150D02*
X6069824Y-12267674D01*
X6069824Y-12267674D02*
X6079348Y-12286722D01*
X6079348Y-12286722D02*
X6079348Y-12391484D01*
X6174586Y-12391484D02*
X6174586Y-12258150D01*
X6174586Y-12277198D02*
X6184110Y-12267674D01*
X6184110Y-12267674D02*
X6203158Y-12258150D01*
X6203158Y-12258150D02*
X6231729Y-12258150D01*
X6231729Y-12258150D02*
X6250777Y-12267674D01*
X6250777Y-12267674D02*
X6260301Y-12286722D01*
X6260301Y-12286722D02*
X6260301Y-12391484D01*
X6260301Y-12286722D02*
X6269824Y-12267674D01*
X6269824Y-12267674D02*
X6288872Y-12258150D01*
X6288872Y-12258150D02*
X6317443Y-12258150D01*
X6317443Y-12258150D02*
X6336491Y-12267674D01*
X6336491Y-12267674D02*
X6346015Y-12286722D01*
X6346015Y-12286722D02*
X6346015Y-12391484D01*
X6736491Y-12181960D02*
X6565063Y-12439103D01*
X6993634Y-12191484D02*
X7012682Y-12191484D01*
X7012682Y-12191484D02*
X7031729Y-12201008D01*
X7031729Y-12201008D02*
X7041253Y-12210531D01*
X7041253Y-12210531D02*
X7050777Y-12229579D01*
X7050777Y-12229579D02*
X7060301Y-12267674D01*
X7060301Y-12267674D02*
X7060301Y-12315293D01*
X7060301Y-12315293D02*
X7050777Y-12353388D01*
X7050777Y-12353388D02*
X7041253Y-12372436D01*
X7041253Y-12372436D02*
X7031729Y-12381960D01*
X7031729Y-12381960D02*
X7012682Y-12391484D01*
X7012682Y-12391484D02*
X6993634Y-12391484D01*
X6993634Y-12391484D02*
X6974586Y-12381960D01*
X6974586Y-12381960D02*
X6965063Y-12372436D01*
X6965063Y-12372436D02*
X6955539Y-12353388D01*
X6955539Y-12353388D02*
X6946015Y-12315293D01*
X6946015Y-12315293D02*
X6946015Y-12267674D01*
X6946015Y-12267674D02*
X6955539Y-12229579D01*
X6955539Y-12229579D02*
X6965063Y-12210531D01*
X6965063Y-12210531D02*
X6974586Y-12201008D01*
X6974586Y-12201008D02*
X6993634Y-12191484D01*
X7146015Y-12372436D02*
X7155539Y-12381960D01*
X7155539Y-12381960D02*
X7146015Y-12391484D01*
X7146015Y-12391484D02*
X7136491Y-12381960D01*
X7136491Y-12381960D02*
X7146015Y-12372436D01*
X7146015Y-12372436D02*
X7146015Y-12391484D01*
X7279348Y-12191484D02*
X7298396Y-12191484D01*
X7298396Y-12191484D02*
X7317444Y-12201008D01*
X7317444Y-12201008D02*
X7326967Y-12210531D01*
X7326967Y-12210531D02*
X7336491Y-12229579D01*
X7336491Y-12229579D02*
X7346015Y-12267674D01*
X7346015Y-12267674D02*
X7346015Y-12315293D01*
X7346015Y-12315293D02*
X7336491Y-12353388D01*
X7336491Y-12353388D02*
X7326967Y-12372436D01*
X7326967Y-12372436D02*
X7317444Y-12381960D01*
X7317444Y-12381960D02*
X7298396Y-12391484D01*
X7298396Y-12391484D02*
X7279348Y-12391484D01*
X7279348Y-12391484D02*
X7260301Y-12381960D01*
X7260301Y-12381960D02*
X7250777Y-12372436D01*
X7250777Y-12372436D02*
X7241253Y-12353388D01*
X7241253Y-12353388D02*
X7231729Y-12315293D01*
X7231729Y-12315293D02*
X7231729Y-12267674D01*
X7231729Y-12267674D02*
X7241253Y-12229579D01*
X7241253Y-12229579D02*
X7250777Y-12210531D01*
X7250777Y-12210531D02*
X7260301Y-12201008D01*
X7260301Y-12201008D02*
X7279348Y-12191484D01*
X7536491Y-12391484D02*
X7422206Y-12391484D01*
X7479348Y-12391484D02*
X7479348Y-12191484D01*
X7479348Y-12191484D02*
X7460301Y-12220055D01*
X7460301Y-12220055D02*
X7441253Y-12239103D01*
X7441253Y-12239103D02*
X7422206Y-12248627D01*
X7726967Y-12391484D02*
X7612682Y-12391484D01*
X7669825Y-12391484D02*
X7669825Y-12191484D01*
X7669825Y-12191484D02*
X7650777Y-12220055D01*
X7650777Y-12220055D02*
X7631729Y-12239103D01*
X7631729Y-12239103D02*
X7612682Y-12248627D01*
X7841253Y-12277198D02*
X7822206Y-12267674D01*
X7822206Y-12267674D02*
X7812682Y-12258150D01*
X7812682Y-12258150D02*
X7803158Y-12239103D01*
X7803158Y-12239103D02*
X7803158Y-12229579D01*
X7803158Y-12229579D02*
X7812682Y-12210531D01*
X7812682Y-12210531D02*
X7822206Y-12201008D01*
X7822206Y-12201008D02*
X7841253Y-12191484D01*
X7841253Y-12191484D02*
X7879348Y-12191484D01*
X7879348Y-12191484D02*
X7898396Y-12201008D01*
X7898396Y-12201008D02*
X7907920Y-12210531D01*
X7907920Y-12210531D02*
X7917444Y-12229579D01*
X7917444Y-12229579D02*
X7917444Y-12239103D01*
X7917444Y-12239103D02*
X7907920Y-12258150D01*
X7907920Y-12258150D02*
X7898396Y-12267674D01*
X7898396Y-12267674D02*
X7879348Y-12277198D01*
X7879348Y-12277198D02*
X7841253Y-12277198D01*
X7841253Y-12277198D02*
X7822206Y-12286722D01*
X7822206Y-12286722D02*
X7812682Y-12296246D01*
X7812682Y-12296246D02*
X7803158Y-12315293D01*
X7803158Y-12315293D02*
X7803158Y-12353388D01*
X7803158Y-12353388D02*
X7812682Y-12372436D01*
X7812682Y-12372436D02*
X7822206Y-12381960D01*
X7822206Y-12381960D02*
X7841253Y-12391484D01*
X7841253Y-12391484D02*
X7879348Y-12391484D01*
X7879348Y-12391484D02*
X7898396Y-12381960D01*
X7898396Y-12381960D02*
X7907920Y-12372436D01*
X7907920Y-12372436D02*
X7917444Y-12353388D01*
X7917444Y-12353388D02*
X7917444Y-12315293D01*
X7917444Y-12315293D02*
X7907920Y-12296246D01*
X7907920Y-12296246D02*
X7898396Y-12286722D01*
X7898396Y-12286722D02*
X7879348Y-12277198D01*
X7993634Y-12191484D02*
X7993634Y-12229579D01*
X8069825Y-12191484D02*
X8069825Y-12229579D01*
X8365063Y-12467674D02*
X8355539Y-12458150D01*
X8355539Y-12458150D02*
X8336491Y-12429579D01*
X8336491Y-12429579D02*
X8326968Y-12410531D01*
X8326968Y-12410531D02*
X8317444Y-12381960D01*
X8317444Y-12381960D02*
X8307920Y-12334341D01*
X8307920Y-12334341D02*
X8307920Y-12296246D01*
X8307920Y-12296246D02*
X8317444Y-12248627D01*
X8317444Y-12248627D02*
X8326968Y-12220055D01*
X8326968Y-12220055D02*
X8336491Y-12201008D01*
X8336491Y-12201008D02*
X8355539Y-12172436D01*
X8355539Y-12172436D02*
X8365063Y-12162912D01*
X8450777Y-12391484D02*
X8488872Y-12391484D01*
X8488872Y-12391484D02*
X8507920Y-12381960D01*
X8507920Y-12381960D02*
X8517444Y-12372436D01*
X8517444Y-12372436D02*
X8536491Y-12343865D01*
X8536491Y-12343865D02*
X8546015Y-12305769D01*
X8546015Y-12305769D02*
X8546015Y-12229579D01*
X8546015Y-12229579D02*
X8536491Y-12210531D01*
X8536491Y-12210531D02*
X8526968Y-12201008D01*
X8526968Y-12201008D02*
X8507920Y-12191484D01*
X8507920Y-12191484D02*
X8469825Y-12191484D01*
X8469825Y-12191484D02*
X8450777Y-12201008D01*
X8450777Y-12201008D02*
X8441253Y-12210531D01*
X8441253Y-12210531D02*
X8431730Y-12229579D01*
X8431730Y-12229579D02*
X8431730Y-12277198D01*
X8431730Y-12277198D02*
X8441253Y-12296246D01*
X8441253Y-12296246D02*
X8450777Y-12305769D01*
X8450777Y-12305769D02*
X8469825Y-12315293D01*
X8469825Y-12315293D02*
X8507920Y-12315293D01*
X8507920Y-12315293D02*
X8526968Y-12305769D01*
X8526968Y-12305769D02*
X8536491Y-12296246D01*
X8536491Y-12296246D02*
X8546015Y-12277198D01*
X8784111Y-12391484D02*
X8784111Y-12191484D01*
X8869825Y-12391484D02*
X8869825Y-12286722D01*
X8869825Y-12286722D02*
X8860301Y-12267674D01*
X8860301Y-12267674D02*
X8841253Y-12258150D01*
X8841253Y-12258150D02*
X8812682Y-12258150D01*
X8812682Y-12258150D02*
X8793634Y-12267674D01*
X8793634Y-12267674D02*
X8784111Y-12277198D01*
X8993634Y-12391484D02*
X8974587Y-12381960D01*
X8974587Y-12381960D02*
X8965063Y-12372436D01*
X8965063Y-12372436D02*
X8955539Y-12353388D01*
X8955539Y-12353388D02*
X8955539Y-12296246D01*
X8955539Y-12296246D02*
X8965063Y-12277198D01*
X8965063Y-12277198D02*
X8974587Y-12267674D01*
X8974587Y-12267674D02*
X8993634Y-12258150D01*
X8993634Y-12258150D02*
X9022206Y-12258150D01*
X9022206Y-12258150D02*
X9041253Y-12267674D01*
X9041253Y-12267674D02*
X9050777Y-12277198D01*
X9050777Y-12277198D02*
X9060301Y-12296246D01*
X9060301Y-12296246D02*
X9060301Y-12353388D01*
X9060301Y-12353388D02*
X9050777Y-12372436D01*
X9050777Y-12372436D02*
X9041253Y-12381960D01*
X9041253Y-12381960D02*
X9022206Y-12391484D01*
X9022206Y-12391484D02*
X8993634Y-12391484D01*
X9174587Y-12391484D02*
X9155539Y-12381960D01*
X9155539Y-12381960D02*
X9146015Y-12362912D01*
X9146015Y-12362912D02*
X9146015Y-12191484D01*
X9326968Y-12381960D02*
X9307920Y-12391484D01*
X9307920Y-12391484D02*
X9269825Y-12391484D01*
X9269825Y-12391484D02*
X9250777Y-12381960D01*
X9250777Y-12381960D02*
X9241253Y-12362912D01*
X9241253Y-12362912D02*
X9241253Y-12286722D01*
X9241253Y-12286722D02*
X9250777Y-12267674D01*
X9250777Y-12267674D02*
X9269825Y-12258150D01*
X9269825Y-12258150D02*
X9307920Y-12258150D01*
X9307920Y-12258150D02*
X9326968Y-12267674D01*
X9326968Y-12267674D02*
X9336492Y-12286722D01*
X9336492Y-12286722D02*
X9336492Y-12305769D01*
X9336492Y-12305769D02*
X9241253Y-12324817D01*
X9412682Y-12381960D02*
X9431730Y-12391484D01*
X9431730Y-12391484D02*
X9469825Y-12391484D01*
X9469825Y-12391484D02*
X9488873Y-12381960D01*
X9488873Y-12381960D02*
X9498396Y-12362912D01*
X9498396Y-12362912D02*
X9498396Y-12353388D01*
X9498396Y-12353388D02*
X9488873Y-12334341D01*
X9488873Y-12334341D02*
X9469825Y-12324817D01*
X9469825Y-12324817D02*
X9441253Y-12324817D01*
X9441253Y-12324817D02*
X9422206Y-12315293D01*
X9422206Y-12315293D02*
X9412682Y-12296246D01*
X9412682Y-12296246D02*
X9412682Y-12286722D01*
X9412682Y-12286722D02*
X9422206Y-12267674D01*
X9422206Y-12267674D02*
X9441253Y-12258150D01*
X9441253Y-12258150D02*
X9469825Y-12258150D01*
X9469825Y-12258150D02*
X9488873Y-12267674D01*
X9565063Y-12467674D02*
X9574587Y-12458150D01*
X9574587Y-12458150D02*
X9593634Y-12429579D01*
X9593634Y-12429579D02*
X9603158Y-12410531D01*
X9603158Y-12410531D02*
X9612682Y-12381960D01*
X9612682Y-12381960D02*
X9622206Y-12334341D01*
X9622206Y-12334341D02*
X9622206Y-12296246D01*
X9622206Y-12296246D02*
X9612682Y-12248627D01*
X9612682Y-12248627D02*
X9603158Y-12220055D01*
X9603158Y-12220055D02*
X9593634Y-12201008D01*
X9593634Y-12201008D02*
X9574587Y-12172436D01*
X9574587Y-12172436D02*
X9565063Y-12162912D01*
D11*
X4790000Y-12564000D02*
G75*
G02*
X4690000Y-12564000I-50000J0D01*
G01*
X4690000Y-12564000D02*
G75*
G02*
X4790000Y-12564000I50000J0D01*
G01*
D10*
X5155539Y-12655484D02*
X5041253Y-12655484D01*
X5098396Y-12655484D02*
X5098396Y-12455484D01*
X5098396Y-12455484D02*
X5079348Y-12484055D01*
X5079348Y-12484055D02*
X5060301Y-12503103D01*
X5060301Y-12503103D02*
X5041253Y-12512627D01*
X5241253Y-12636436D02*
X5250777Y-12645960D01*
X5250777Y-12645960D02*
X5241253Y-12655484D01*
X5241253Y-12655484D02*
X5231729Y-12645960D01*
X5231729Y-12645960D02*
X5241253Y-12636436D01*
X5241253Y-12636436D02*
X5241253Y-12655484D01*
X5374586Y-12455484D02*
X5393634Y-12455484D01*
X5393634Y-12455484D02*
X5412682Y-12465008D01*
X5412682Y-12465008D02*
X5422205Y-12474531D01*
X5422205Y-12474531D02*
X5431729Y-12493579D01*
X5431729Y-12493579D02*
X5441253Y-12531674D01*
X5441253Y-12531674D02*
X5441253Y-12579293D01*
X5441253Y-12579293D02*
X5431729Y-12617388D01*
X5431729Y-12617388D02*
X5422205Y-12636436D01*
X5422205Y-12636436D02*
X5412682Y-12645960D01*
X5412682Y-12645960D02*
X5393634Y-12655484D01*
X5393634Y-12655484D02*
X5374586Y-12655484D01*
X5374586Y-12655484D02*
X5355539Y-12645960D01*
X5355539Y-12645960D02*
X5346015Y-12636436D01*
X5346015Y-12636436D02*
X5336491Y-12617388D01*
X5336491Y-12617388D02*
X5326967Y-12579293D01*
X5326967Y-12579293D02*
X5326967Y-12531674D01*
X5326967Y-12531674D02*
X5336491Y-12493579D01*
X5336491Y-12493579D02*
X5346015Y-12474531D01*
X5346015Y-12474531D02*
X5355539Y-12465008D01*
X5355539Y-12465008D02*
X5374586Y-12455484D01*
X5565063Y-12455484D02*
X5584110Y-12455484D01*
X5584110Y-12455484D02*
X5603158Y-12465008D01*
X5603158Y-12465008D02*
X5612682Y-12474531D01*
X5612682Y-12474531D02*
X5622205Y-12493579D01*
X5622205Y-12493579D02*
X5631729Y-12531674D01*
X5631729Y-12531674D02*
X5631729Y-12579293D01*
X5631729Y-12579293D02*
X5622205Y-12617388D01*
X5622205Y-12617388D02*
X5612682Y-12636436D01*
X5612682Y-12636436D02*
X5603158Y-12645960D01*
X5603158Y-12645960D02*
X5584110Y-12655484D01*
X5584110Y-12655484D02*
X5565063Y-12655484D01*
X5565063Y-12655484D02*
X5546015Y-12645960D01*
X5546015Y-12645960D02*
X5536491Y-12636436D01*
X5536491Y-12636436D02*
X5526967Y-12617388D01*
X5526967Y-12617388D02*
X5517444Y-12579293D01*
X5517444Y-12579293D02*
X5517444Y-12531674D01*
X5517444Y-12531674D02*
X5526967Y-12493579D01*
X5526967Y-12493579D02*
X5536491Y-12474531D01*
X5536491Y-12474531D02*
X5546015Y-12465008D01*
X5546015Y-12465008D02*
X5565063Y-12455484D01*
X5755539Y-12455484D02*
X5774586Y-12455484D01*
X5774586Y-12455484D02*
X5793634Y-12465008D01*
X5793634Y-12465008D02*
X5803158Y-12474531D01*
X5803158Y-12474531D02*
X5812682Y-12493579D01*
X5812682Y-12493579D02*
X5822205Y-12531674D01*
X5822205Y-12531674D02*
X5822205Y-12579293D01*
X5822205Y-12579293D02*
X5812682Y-12617388D01*
X5812682Y-12617388D02*
X5803158Y-12636436D01*
X5803158Y-12636436D02*
X5793634Y-12645960D01*
X5793634Y-12645960D02*
X5774586Y-12655484D01*
X5774586Y-12655484D02*
X5755539Y-12655484D01*
X5755539Y-12655484D02*
X5736491Y-12645960D01*
X5736491Y-12645960D02*
X5726967Y-12636436D01*
X5726967Y-12636436D02*
X5717443Y-12617388D01*
X5717443Y-12617388D02*
X5707920Y-12579293D01*
X5707920Y-12579293D02*
X5707920Y-12531674D01*
X5707920Y-12531674D02*
X5717443Y-12493579D01*
X5717443Y-12493579D02*
X5726967Y-12474531D01*
X5726967Y-12474531D02*
X5736491Y-12465008D01*
X5736491Y-12465008D02*
X5755539Y-12455484D01*
X5907920Y-12655484D02*
X5907920Y-12522150D01*
X5907920Y-12541198D02*
X5917443Y-12531674D01*
X5917443Y-12531674D02*
X5936491Y-12522150D01*
X5936491Y-12522150D02*
X5965063Y-12522150D01*
X5965063Y-12522150D02*
X5984110Y-12531674D01*
X5984110Y-12531674D02*
X5993634Y-12550722D01*
X5993634Y-12550722D02*
X5993634Y-12655484D01*
X5993634Y-12550722D02*
X6003158Y-12531674D01*
X6003158Y-12531674D02*
X6022205Y-12522150D01*
X6022205Y-12522150D02*
X6050777Y-12522150D01*
X6050777Y-12522150D02*
X6069824Y-12531674D01*
X6069824Y-12531674D02*
X6079348Y-12550722D01*
X6079348Y-12550722D02*
X6079348Y-12655484D01*
X6174586Y-12655484D02*
X6174586Y-12522150D01*
X6174586Y-12541198D02*
X6184110Y-12531674D01*
X6184110Y-12531674D02*
X6203158Y-12522150D01*
X6203158Y-12522150D02*
X6231729Y-12522150D01*
X6231729Y-12522150D02*
X6250777Y-12531674D01*
X6250777Y-12531674D02*
X6260301Y-12550722D01*
X6260301Y-12550722D02*
X6260301Y-12655484D01*
X6260301Y-12550722D02*
X6269824Y-12531674D01*
X6269824Y-12531674D02*
X6288872Y-12522150D01*
X6288872Y-12522150D02*
X6317443Y-12522150D01*
X6317443Y-12522150D02*
X6336491Y-12531674D01*
X6336491Y-12531674D02*
X6346015Y-12550722D01*
X6346015Y-12550722D02*
X6346015Y-12655484D01*
X6736491Y-12445960D02*
X6565063Y-12703103D01*
X6993634Y-12455484D02*
X7012682Y-12455484D01*
X7012682Y-12455484D02*
X7031729Y-12465008D01*
X7031729Y-12465008D02*
X7041253Y-12474531D01*
X7041253Y-12474531D02*
X7050777Y-12493579D01*
X7050777Y-12493579D02*
X7060301Y-12531674D01*
X7060301Y-12531674D02*
X7060301Y-12579293D01*
X7060301Y-12579293D02*
X7050777Y-12617388D01*
X7050777Y-12617388D02*
X7041253Y-12636436D01*
X7041253Y-12636436D02*
X7031729Y-12645960D01*
X7031729Y-12645960D02*
X7012682Y-12655484D01*
X7012682Y-12655484D02*
X6993634Y-12655484D01*
X6993634Y-12655484D02*
X6974586Y-12645960D01*
X6974586Y-12645960D02*
X6965063Y-12636436D01*
X6965063Y-12636436D02*
X6955539Y-12617388D01*
X6955539Y-12617388D02*
X6946015Y-12579293D01*
X6946015Y-12579293D02*
X6946015Y-12531674D01*
X6946015Y-12531674D02*
X6955539Y-12493579D01*
X6955539Y-12493579D02*
X6965063Y-12474531D01*
X6965063Y-12474531D02*
X6974586Y-12465008D01*
X6974586Y-12465008D02*
X6993634Y-12455484D01*
X7146015Y-12636436D02*
X7155539Y-12645960D01*
X7155539Y-12645960D02*
X7146015Y-12655484D01*
X7146015Y-12655484D02*
X7136491Y-12645960D01*
X7136491Y-12645960D02*
X7146015Y-12636436D01*
X7146015Y-12636436D02*
X7146015Y-12655484D01*
X7279348Y-12455484D02*
X7298396Y-12455484D01*
X7298396Y-12455484D02*
X7317444Y-12465008D01*
X7317444Y-12465008D02*
X7326967Y-12474531D01*
X7326967Y-12474531D02*
X7336491Y-12493579D01*
X7336491Y-12493579D02*
X7346015Y-12531674D01*
X7346015Y-12531674D02*
X7346015Y-12579293D01*
X7346015Y-12579293D02*
X7336491Y-12617388D01*
X7336491Y-12617388D02*
X7326967Y-12636436D01*
X7326967Y-12636436D02*
X7317444Y-12645960D01*
X7317444Y-12645960D02*
X7298396Y-12655484D01*
X7298396Y-12655484D02*
X7279348Y-12655484D01*
X7279348Y-12655484D02*
X7260301Y-12645960D01*
X7260301Y-12645960D02*
X7250777Y-12636436D01*
X7250777Y-12636436D02*
X7241253Y-12617388D01*
X7241253Y-12617388D02*
X7231729Y-12579293D01*
X7231729Y-12579293D02*
X7231729Y-12531674D01*
X7231729Y-12531674D02*
X7241253Y-12493579D01*
X7241253Y-12493579D02*
X7250777Y-12474531D01*
X7250777Y-12474531D02*
X7260301Y-12465008D01*
X7260301Y-12465008D02*
X7279348Y-12455484D01*
X7412682Y-12455484D02*
X7536491Y-12455484D01*
X7536491Y-12455484D02*
X7469825Y-12531674D01*
X7469825Y-12531674D02*
X7498396Y-12531674D01*
X7498396Y-12531674D02*
X7517444Y-12541198D01*
X7517444Y-12541198D02*
X7526967Y-12550722D01*
X7526967Y-12550722D02*
X7536491Y-12569769D01*
X7536491Y-12569769D02*
X7536491Y-12617388D01*
X7536491Y-12617388D02*
X7526967Y-12636436D01*
X7526967Y-12636436D02*
X7517444Y-12645960D01*
X7517444Y-12645960D02*
X7498396Y-12655484D01*
X7498396Y-12655484D02*
X7441253Y-12655484D01*
X7441253Y-12655484D02*
X7422206Y-12645960D01*
X7422206Y-12645960D02*
X7412682Y-12636436D01*
X7631729Y-12655484D02*
X7669825Y-12655484D01*
X7669825Y-12655484D02*
X7688872Y-12645960D01*
X7688872Y-12645960D02*
X7698396Y-12636436D01*
X7698396Y-12636436D02*
X7717444Y-12607865D01*
X7717444Y-12607865D02*
X7726967Y-12569769D01*
X7726967Y-12569769D02*
X7726967Y-12493579D01*
X7726967Y-12493579D02*
X7717444Y-12474531D01*
X7717444Y-12474531D02*
X7707920Y-12465008D01*
X7707920Y-12465008D02*
X7688872Y-12455484D01*
X7688872Y-12455484D02*
X7650777Y-12455484D01*
X7650777Y-12455484D02*
X7631729Y-12465008D01*
X7631729Y-12465008D02*
X7622206Y-12474531D01*
X7622206Y-12474531D02*
X7612682Y-12493579D01*
X7612682Y-12493579D02*
X7612682Y-12541198D01*
X7612682Y-12541198D02*
X7622206Y-12560246D01*
X7622206Y-12560246D02*
X7631729Y-12569769D01*
X7631729Y-12569769D02*
X7650777Y-12579293D01*
X7650777Y-12579293D02*
X7688872Y-12579293D01*
X7688872Y-12579293D02*
X7707920Y-12569769D01*
X7707920Y-12569769D02*
X7717444Y-12560246D01*
X7717444Y-12560246D02*
X7726967Y-12541198D01*
X7898396Y-12522150D02*
X7898396Y-12655484D01*
X7850777Y-12445960D02*
X7803158Y-12588817D01*
X7803158Y-12588817D02*
X7926967Y-12588817D01*
X7993634Y-12455484D02*
X7993634Y-12493579D01*
X8069825Y-12455484D02*
X8069825Y-12493579D01*
X8365063Y-12731674D02*
X8355539Y-12722150D01*
X8355539Y-12722150D02*
X8336491Y-12693579D01*
X8336491Y-12693579D02*
X8326968Y-12674531D01*
X8326968Y-12674531D02*
X8317444Y-12645960D01*
X8317444Y-12645960D02*
X8307920Y-12598341D01*
X8307920Y-12598341D02*
X8307920Y-12560246D01*
X8307920Y-12560246D02*
X8317444Y-12512627D01*
X8317444Y-12512627D02*
X8326968Y-12484055D01*
X8326968Y-12484055D02*
X8336491Y-12465008D01*
X8336491Y-12465008D02*
X8355539Y-12436436D01*
X8355539Y-12436436D02*
X8365063Y-12426912D01*
X8526968Y-12455484D02*
X8488872Y-12455484D01*
X8488872Y-12455484D02*
X8469825Y-12465008D01*
X8469825Y-12465008D02*
X8460301Y-12474531D01*
X8460301Y-12474531D02*
X8441253Y-12503103D01*
X8441253Y-12503103D02*
X8431730Y-12541198D01*
X8431730Y-12541198D02*
X8431730Y-12617388D01*
X8431730Y-12617388D02*
X8441253Y-12636436D01*
X8441253Y-12636436D02*
X8450777Y-12645960D01*
X8450777Y-12645960D02*
X8469825Y-12655484D01*
X8469825Y-12655484D02*
X8507920Y-12655484D01*
X8507920Y-12655484D02*
X8526968Y-12645960D01*
X8526968Y-12645960D02*
X8536491Y-12636436D01*
X8536491Y-12636436D02*
X8546015Y-12617388D01*
X8546015Y-12617388D02*
X8546015Y-12569769D01*
X8546015Y-12569769D02*
X8536491Y-12550722D01*
X8536491Y-12550722D02*
X8526968Y-12541198D01*
X8526968Y-12541198D02*
X8507920Y-12531674D01*
X8507920Y-12531674D02*
X8469825Y-12531674D01*
X8469825Y-12531674D02*
X8450777Y-12541198D01*
X8450777Y-12541198D02*
X8441253Y-12550722D01*
X8441253Y-12550722D02*
X8431730Y-12569769D01*
X8669825Y-12455484D02*
X8688872Y-12455484D01*
X8688872Y-12455484D02*
X8707920Y-12465008D01*
X8707920Y-12465008D02*
X8717444Y-12474531D01*
X8717444Y-12474531D02*
X8726968Y-12493579D01*
X8726968Y-12493579D02*
X8736491Y-12531674D01*
X8736491Y-12531674D02*
X8736491Y-12579293D01*
X8736491Y-12579293D02*
X8726968Y-12617388D01*
X8726968Y-12617388D02*
X8717444Y-12636436D01*
X8717444Y-12636436D02*
X8707920Y-12645960D01*
X8707920Y-12645960D02*
X8688872Y-12655484D01*
X8688872Y-12655484D02*
X8669825Y-12655484D01*
X8669825Y-12655484D02*
X8650777Y-12645960D01*
X8650777Y-12645960D02*
X8641253Y-12636436D01*
X8641253Y-12636436D02*
X8631730Y-12617388D01*
X8631730Y-12617388D02*
X8622206Y-12579293D01*
X8622206Y-12579293D02*
X8622206Y-12531674D01*
X8622206Y-12531674D02*
X8631730Y-12493579D01*
X8631730Y-12493579D02*
X8641253Y-12474531D01*
X8641253Y-12474531D02*
X8650777Y-12465008D01*
X8650777Y-12465008D02*
X8669825Y-12455484D01*
X8974587Y-12655484D02*
X8974587Y-12455484D01*
X9060301Y-12655484D02*
X9060301Y-12550722D01*
X9060301Y-12550722D02*
X9050777Y-12531674D01*
X9050777Y-12531674D02*
X9031730Y-12522150D01*
X9031730Y-12522150D02*
X9003158Y-12522150D01*
X9003158Y-12522150D02*
X8984111Y-12531674D01*
X8984111Y-12531674D02*
X8974587Y-12541198D01*
X9184111Y-12655484D02*
X9165063Y-12645960D01*
X9165063Y-12645960D02*
X9155539Y-12636436D01*
X9155539Y-12636436D02*
X9146015Y-12617388D01*
X9146015Y-12617388D02*
X9146015Y-12560246D01*
X9146015Y-12560246D02*
X9155539Y-12541198D01*
X9155539Y-12541198D02*
X9165063Y-12531674D01*
X9165063Y-12531674D02*
X9184111Y-12522150D01*
X9184111Y-12522150D02*
X9212682Y-12522150D01*
X9212682Y-12522150D02*
X9231730Y-12531674D01*
X9231730Y-12531674D02*
X9241253Y-12541198D01*
X9241253Y-12541198D02*
X9250777Y-12560246D01*
X9250777Y-12560246D02*
X9250777Y-12617388D01*
X9250777Y-12617388D02*
X9241253Y-12636436D01*
X9241253Y-12636436D02*
X9231730Y-12645960D01*
X9231730Y-12645960D02*
X9212682Y-12655484D01*
X9212682Y-12655484D02*
X9184111Y-12655484D01*
X9365063Y-12655484D02*
X9346015Y-12645960D01*
X9346015Y-12645960D02*
X9336492Y-12626912D01*
X9336492Y-12626912D02*
X9336492Y-12455484D01*
X9517444Y-12645960D02*
X9498396Y-12655484D01*
X9498396Y-12655484D02*
X9460301Y-12655484D01*
X9460301Y-12655484D02*
X9441253Y-12645960D01*
X9441253Y-12645960D02*
X9431730Y-12626912D01*
X9431730Y-12626912D02*
X9431730Y-12550722D01*
X9431730Y-12550722D02*
X9441253Y-12531674D01*
X9441253Y-12531674D02*
X9460301Y-12522150D01*
X9460301Y-12522150D02*
X9498396Y-12522150D01*
X9498396Y-12522150D02*
X9517444Y-12531674D01*
X9517444Y-12531674D02*
X9526968Y-12550722D01*
X9526968Y-12550722D02*
X9526968Y-12569769D01*
X9526968Y-12569769D02*
X9431730Y-12588817D01*
X9603158Y-12645960D02*
X9622206Y-12655484D01*
X9622206Y-12655484D02*
X9660301Y-12655484D01*
X9660301Y-12655484D02*
X9679349Y-12645960D01*
X9679349Y-12645960D02*
X9688873Y-12626912D01*
X9688873Y-12626912D02*
X9688873Y-12617388D01*
X9688873Y-12617388D02*
X9679349Y-12598341D01*
X9679349Y-12598341D02*
X9660301Y-12588817D01*
X9660301Y-12588817D02*
X9631730Y-12588817D01*
X9631730Y-12588817D02*
X9612682Y-12579293D01*
X9612682Y-12579293D02*
X9603158Y-12560246D01*
X9603158Y-12560246D02*
X9603158Y-12550722D01*
X9603158Y-12550722D02*
X9612682Y-12531674D01*
X9612682Y-12531674D02*
X9631730Y-12522150D01*
X9631730Y-12522150D02*
X9660301Y-12522150D01*
X9660301Y-12522150D02*
X9679349Y-12531674D01*
X9755539Y-12731674D02*
X9765063Y-12722150D01*
X9765063Y-12722150D02*
X9784111Y-12693579D01*
X9784111Y-12693579D02*
X9793634Y-12674531D01*
X9793634Y-12674531D02*
X9803158Y-12645960D01*
X9803158Y-12645960D02*
X9812682Y-12598341D01*
X9812682Y-12598341D02*
X9812682Y-12560246D01*
X9812682Y-12560246D02*
X9803158Y-12512627D01*
X9803158Y-12512627D02*
X9793634Y-12484055D01*
X9793634Y-12484055D02*
X9784111Y-12465008D01*
X9784111Y-12465008D02*
X9765063Y-12436436D01*
X9765063Y-12436436D02*
X9755539Y-12426912D01*
X4690000Y-12728000D02*
X4690000Y-12928000D01*
X4590000Y-12828000D02*
X4790000Y-12828000D01*
X5041253Y-12738531D02*
X5050777Y-12729008D01*
X5050777Y-12729008D02*
X5069824Y-12719484D01*
X5069824Y-12719484D02*
X5117444Y-12719484D01*
X5117444Y-12719484D02*
X5136491Y-12729008D01*
X5136491Y-12729008D02*
X5146015Y-12738531D01*
X5146015Y-12738531D02*
X5155539Y-12757579D01*
X5155539Y-12757579D02*
X5155539Y-12776627D01*
X5155539Y-12776627D02*
X5146015Y-12805198D01*
X5146015Y-12805198D02*
X5031729Y-12919484D01*
X5031729Y-12919484D02*
X5155539Y-12919484D01*
X5241253Y-12900436D02*
X5250777Y-12909960D01*
X5250777Y-12909960D02*
X5241253Y-12919484D01*
X5241253Y-12919484D02*
X5231729Y-12909960D01*
X5231729Y-12909960D02*
X5241253Y-12900436D01*
X5241253Y-12900436D02*
X5241253Y-12919484D01*
X5374586Y-12719484D02*
X5393634Y-12719484D01*
X5393634Y-12719484D02*
X5412682Y-12729008D01*
X5412682Y-12729008D02*
X5422205Y-12738531D01*
X5422205Y-12738531D02*
X5431729Y-12757579D01*
X5431729Y-12757579D02*
X5441253Y-12795674D01*
X5441253Y-12795674D02*
X5441253Y-12843293D01*
X5441253Y-12843293D02*
X5431729Y-12881388D01*
X5431729Y-12881388D02*
X5422205Y-12900436D01*
X5422205Y-12900436D02*
X5412682Y-12909960D01*
X5412682Y-12909960D02*
X5393634Y-12919484D01*
X5393634Y-12919484D02*
X5374586Y-12919484D01*
X5374586Y-12919484D02*
X5355539Y-12909960D01*
X5355539Y-12909960D02*
X5346015Y-12900436D01*
X5346015Y-12900436D02*
X5336491Y-12881388D01*
X5336491Y-12881388D02*
X5326967Y-12843293D01*
X5326967Y-12843293D02*
X5326967Y-12795674D01*
X5326967Y-12795674D02*
X5336491Y-12757579D01*
X5336491Y-12757579D02*
X5346015Y-12738531D01*
X5346015Y-12738531D02*
X5355539Y-12729008D01*
X5355539Y-12729008D02*
X5374586Y-12719484D01*
X5565063Y-12719484D02*
X5584110Y-12719484D01*
X5584110Y-12719484D02*
X5603158Y-12729008D01*
X5603158Y-12729008D02*
X5612682Y-12738531D01*
X5612682Y-12738531D02*
X5622205Y-12757579D01*
X5622205Y-12757579D02*
X5631729Y-12795674D01*
X5631729Y-12795674D02*
X5631729Y-12843293D01*
X5631729Y-12843293D02*
X5622205Y-12881388D01*
X5622205Y-12881388D02*
X5612682Y-12900436D01*
X5612682Y-12900436D02*
X5603158Y-12909960D01*
X5603158Y-12909960D02*
X5584110Y-12919484D01*
X5584110Y-12919484D02*
X5565063Y-12919484D01*
X5565063Y-12919484D02*
X5546015Y-12909960D01*
X5546015Y-12909960D02*
X5536491Y-12900436D01*
X5536491Y-12900436D02*
X5526967Y-12881388D01*
X5526967Y-12881388D02*
X5517444Y-12843293D01*
X5517444Y-12843293D02*
X5517444Y-12795674D01*
X5517444Y-12795674D02*
X5526967Y-12757579D01*
X5526967Y-12757579D02*
X5536491Y-12738531D01*
X5536491Y-12738531D02*
X5546015Y-12729008D01*
X5546015Y-12729008D02*
X5565063Y-12719484D01*
X5755539Y-12719484D02*
X5774586Y-12719484D01*
X5774586Y-12719484D02*
X5793634Y-12729008D01*
X5793634Y-12729008D02*
X5803158Y-12738531D01*
X5803158Y-12738531D02*
X5812682Y-12757579D01*
X5812682Y-12757579D02*
X5822205Y-12795674D01*
X5822205Y-12795674D02*
X5822205Y-12843293D01*
X5822205Y-12843293D02*
X5812682Y-12881388D01*
X5812682Y-12881388D02*
X5803158Y-12900436D01*
X5803158Y-12900436D02*
X5793634Y-12909960D01*
X5793634Y-12909960D02*
X5774586Y-12919484D01*
X5774586Y-12919484D02*
X5755539Y-12919484D01*
X5755539Y-12919484D02*
X5736491Y-12909960D01*
X5736491Y-12909960D02*
X5726967Y-12900436D01*
X5726967Y-12900436D02*
X5717443Y-12881388D01*
X5717443Y-12881388D02*
X5707920Y-12843293D01*
X5707920Y-12843293D02*
X5707920Y-12795674D01*
X5707920Y-12795674D02*
X5717443Y-12757579D01*
X5717443Y-12757579D02*
X5726967Y-12738531D01*
X5726967Y-12738531D02*
X5736491Y-12729008D01*
X5736491Y-12729008D02*
X5755539Y-12719484D01*
X5907920Y-12919484D02*
X5907920Y-12786150D01*
X5907920Y-12805198D02*
X5917443Y-12795674D01*
X5917443Y-12795674D02*
X5936491Y-12786150D01*
X5936491Y-12786150D02*
X5965063Y-12786150D01*
X5965063Y-12786150D02*
X5984110Y-12795674D01*
X5984110Y-12795674D02*
X5993634Y-12814722D01*
X5993634Y-12814722D02*
X5993634Y-12919484D01*
X5993634Y-12814722D02*
X6003158Y-12795674D01*
X6003158Y-12795674D02*
X6022205Y-12786150D01*
X6022205Y-12786150D02*
X6050777Y-12786150D01*
X6050777Y-12786150D02*
X6069824Y-12795674D01*
X6069824Y-12795674D02*
X6079348Y-12814722D01*
X6079348Y-12814722D02*
X6079348Y-12919484D01*
X6174586Y-12919484D02*
X6174586Y-12786150D01*
X6174586Y-12805198D02*
X6184110Y-12795674D01*
X6184110Y-12795674D02*
X6203158Y-12786150D01*
X6203158Y-12786150D02*
X6231729Y-12786150D01*
X6231729Y-12786150D02*
X6250777Y-12795674D01*
X6250777Y-12795674D02*
X6260301Y-12814722D01*
X6260301Y-12814722D02*
X6260301Y-12919484D01*
X6260301Y-12814722D02*
X6269824Y-12795674D01*
X6269824Y-12795674D02*
X6288872Y-12786150D01*
X6288872Y-12786150D02*
X6317443Y-12786150D01*
X6317443Y-12786150D02*
X6336491Y-12795674D01*
X6336491Y-12795674D02*
X6346015Y-12814722D01*
X6346015Y-12814722D02*
X6346015Y-12919484D01*
X6736491Y-12709960D02*
X6565063Y-12967103D01*
X6993634Y-12719484D02*
X7012682Y-12719484D01*
X7012682Y-12719484D02*
X7031729Y-12729008D01*
X7031729Y-12729008D02*
X7041253Y-12738531D01*
X7041253Y-12738531D02*
X7050777Y-12757579D01*
X7050777Y-12757579D02*
X7060301Y-12795674D01*
X7060301Y-12795674D02*
X7060301Y-12843293D01*
X7060301Y-12843293D02*
X7050777Y-12881388D01*
X7050777Y-12881388D02*
X7041253Y-12900436D01*
X7041253Y-12900436D02*
X7031729Y-12909960D01*
X7031729Y-12909960D02*
X7012682Y-12919484D01*
X7012682Y-12919484D02*
X6993634Y-12919484D01*
X6993634Y-12919484D02*
X6974586Y-12909960D01*
X6974586Y-12909960D02*
X6965063Y-12900436D01*
X6965063Y-12900436D02*
X6955539Y-12881388D01*
X6955539Y-12881388D02*
X6946015Y-12843293D01*
X6946015Y-12843293D02*
X6946015Y-12795674D01*
X6946015Y-12795674D02*
X6955539Y-12757579D01*
X6955539Y-12757579D02*
X6965063Y-12738531D01*
X6965063Y-12738531D02*
X6974586Y-12729008D01*
X6974586Y-12729008D02*
X6993634Y-12719484D01*
X7146015Y-12900436D02*
X7155539Y-12909960D01*
X7155539Y-12909960D02*
X7146015Y-12919484D01*
X7146015Y-12919484D02*
X7136491Y-12909960D01*
X7136491Y-12909960D02*
X7146015Y-12900436D01*
X7146015Y-12900436D02*
X7146015Y-12919484D01*
X7279348Y-12719484D02*
X7298396Y-12719484D01*
X7298396Y-12719484D02*
X7317444Y-12729008D01*
X7317444Y-12729008D02*
X7326967Y-12738531D01*
X7326967Y-12738531D02*
X7336491Y-12757579D01*
X7336491Y-12757579D02*
X7346015Y-12795674D01*
X7346015Y-12795674D02*
X7346015Y-12843293D01*
X7346015Y-12843293D02*
X7336491Y-12881388D01*
X7336491Y-12881388D02*
X7326967Y-12900436D01*
X7326967Y-12900436D02*
X7317444Y-12909960D01*
X7317444Y-12909960D02*
X7298396Y-12919484D01*
X7298396Y-12919484D02*
X7279348Y-12919484D01*
X7279348Y-12919484D02*
X7260301Y-12909960D01*
X7260301Y-12909960D02*
X7250777Y-12900436D01*
X7250777Y-12900436D02*
X7241253Y-12881388D01*
X7241253Y-12881388D02*
X7231729Y-12843293D01*
X7231729Y-12843293D02*
X7231729Y-12795674D01*
X7231729Y-12795674D02*
X7241253Y-12757579D01*
X7241253Y-12757579D02*
X7250777Y-12738531D01*
X7250777Y-12738531D02*
X7260301Y-12729008D01*
X7260301Y-12729008D02*
X7279348Y-12719484D01*
X7412682Y-12719484D02*
X7546015Y-12719484D01*
X7546015Y-12719484D02*
X7460301Y-12919484D01*
X7650777Y-12805198D02*
X7631729Y-12795674D01*
X7631729Y-12795674D02*
X7622206Y-12786150D01*
X7622206Y-12786150D02*
X7612682Y-12767103D01*
X7612682Y-12767103D02*
X7612682Y-12757579D01*
X7612682Y-12757579D02*
X7622206Y-12738531D01*
X7622206Y-12738531D02*
X7631729Y-12729008D01*
X7631729Y-12729008D02*
X7650777Y-12719484D01*
X7650777Y-12719484D02*
X7688872Y-12719484D01*
X7688872Y-12719484D02*
X7707920Y-12729008D01*
X7707920Y-12729008D02*
X7717444Y-12738531D01*
X7717444Y-12738531D02*
X7726967Y-12757579D01*
X7726967Y-12757579D02*
X7726967Y-12767103D01*
X7726967Y-12767103D02*
X7717444Y-12786150D01*
X7717444Y-12786150D02*
X7707920Y-12795674D01*
X7707920Y-12795674D02*
X7688872Y-12805198D01*
X7688872Y-12805198D02*
X7650777Y-12805198D01*
X7650777Y-12805198D02*
X7631729Y-12814722D01*
X7631729Y-12814722D02*
X7622206Y-12824246D01*
X7622206Y-12824246D02*
X7612682Y-12843293D01*
X7612682Y-12843293D02*
X7612682Y-12881388D01*
X7612682Y-12881388D02*
X7622206Y-12900436D01*
X7622206Y-12900436D02*
X7631729Y-12909960D01*
X7631729Y-12909960D02*
X7650777Y-12919484D01*
X7650777Y-12919484D02*
X7688872Y-12919484D01*
X7688872Y-12919484D02*
X7707920Y-12909960D01*
X7707920Y-12909960D02*
X7717444Y-12900436D01*
X7717444Y-12900436D02*
X7726967Y-12881388D01*
X7726967Y-12881388D02*
X7726967Y-12843293D01*
X7726967Y-12843293D02*
X7717444Y-12824246D01*
X7717444Y-12824246D02*
X7707920Y-12814722D01*
X7707920Y-12814722D02*
X7688872Y-12805198D01*
X7793634Y-12719484D02*
X7926967Y-12719484D01*
X7926967Y-12719484D02*
X7841253Y-12919484D01*
X7993634Y-12719484D02*
X7993634Y-12757579D01*
X8069825Y-12719484D02*
X8069825Y-12757579D01*
X8365063Y-12995674D02*
X8355539Y-12986150D01*
X8355539Y-12986150D02*
X8336491Y-12957579D01*
X8336491Y-12957579D02*
X8326968Y-12938531D01*
X8326968Y-12938531D02*
X8317444Y-12909960D01*
X8317444Y-12909960D02*
X8307920Y-12862341D01*
X8307920Y-12862341D02*
X8307920Y-12824246D01*
X8307920Y-12824246D02*
X8317444Y-12776627D01*
X8317444Y-12776627D02*
X8326968Y-12748055D01*
X8326968Y-12748055D02*
X8336491Y-12729008D01*
X8336491Y-12729008D02*
X8355539Y-12700436D01*
X8355539Y-12700436D02*
X8365063Y-12690912D01*
X8546015Y-12919484D02*
X8431730Y-12919484D01*
X8488872Y-12919484D02*
X8488872Y-12719484D01*
X8488872Y-12719484D02*
X8469825Y-12748055D01*
X8469825Y-12748055D02*
X8450777Y-12767103D01*
X8450777Y-12767103D02*
X8431730Y-12776627D01*
X8669825Y-12719484D02*
X8688872Y-12719484D01*
X8688872Y-12719484D02*
X8707920Y-12729008D01*
X8707920Y-12729008D02*
X8717444Y-12738531D01*
X8717444Y-12738531D02*
X8726968Y-12757579D01*
X8726968Y-12757579D02*
X8736491Y-12795674D01*
X8736491Y-12795674D02*
X8736491Y-12843293D01*
X8736491Y-12843293D02*
X8726968Y-12881388D01*
X8726968Y-12881388D02*
X8717444Y-12900436D01*
X8717444Y-12900436D02*
X8707920Y-12909960D01*
X8707920Y-12909960D02*
X8688872Y-12919484D01*
X8688872Y-12919484D02*
X8669825Y-12919484D01*
X8669825Y-12919484D02*
X8650777Y-12909960D01*
X8650777Y-12909960D02*
X8641253Y-12900436D01*
X8641253Y-12900436D02*
X8631730Y-12881388D01*
X8631730Y-12881388D02*
X8622206Y-12843293D01*
X8622206Y-12843293D02*
X8622206Y-12795674D01*
X8622206Y-12795674D02*
X8631730Y-12757579D01*
X8631730Y-12757579D02*
X8641253Y-12738531D01*
X8641253Y-12738531D02*
X8650777Y-12729008D01*
X8650777Y-12729008D02*
X8669825Y-12719484D01*
X8974587Y-12919484D02*
X8974587Y-12719484D01*
X9060301Y-12919484D02*
X9060301Y-12814722D01*
X9060301Y-12814722D02*
X9050777Y-12795674D01*
X9050777Y-12795674D02*
X9031730Y-12786150D01*
X9031730Y-12786150D02*
X9003158Y-12786150D01*
X9003158Y-12786150D02*
X8984111Y-12795674D01*
X8984111Y-12795674D02*
X8974587Y-12805198D01*
X9184111Y-12919484D02*
X9165063Y-12909960D01*
X9165063Y-12909960D02*
X9155539Y-12900436D01*
X9155539Y-12900436D02*
X9146015Y-12881388D01*
X9146015Y-12881388D02*
X9146015Y-12824246D01*
X9146015Y-12824246D02*
X9155539Y-12805198D01*
X9155539Y-12805198D02*
X9165063Y-12795674D01*
X9165063Y-12795674D02*
X9184111Y-12786150D01*
X9184111Y-12786150D02*
X9212682Y-12786150D01*
X9212682Y-12786150D02*
X9231730Y-12795674D01*
X9231730Y-12795674D02*
X9241253Y-12805198D01*
X9241253Y-12805198D02*
X9250777Y-12824246D01*
X9250777Y-12824246D02*
X9250777Y-12881388D01*
X9250777Y-12881388D02*
X9241253Y-12900436D01*
X9241253Y-12900436D02*
X9231730Y-12909960D01*
X9231730Y-12909960D02*
X9212682Y-12919484D01*
X9212682Y-12919484D02*
X9184111Y-12919484D01*
X9365063Y-12919484D02*
X9346015Y-12909960D01*
X9346015Y-12909960D02*
X9336492Y-12890912D01*
X9336492Y-12890912D02*
X9336492Y-12719484D01*
X9517444Y-12909960D02*
X9498396Y-12919484D01*
X9498396Y-12919484D02*
X9460301Y-12919484D01*
X9460301Y-12919484D02*
X9441253Y-12909960D01*
X9441253Y-12909960D02*
X9431730Y-12890912D01*
X9431730Y-12890912D02*
X9431730Y-12814722D01*
X9431730Y-12814722D02*
X9441253Y-12795674D01*
X9441253Y-12795674D02*
X9460301Y-12786150D01*
X9460301Y-12786150D02*
X9498396Y-12786150D01*
X9498396Y-12786150D02*
X9517444Y-12795674D01*
X9517444Y-12795674D02*
X9526968Y-12814722D01*
X9526968Y-12814722D02*
X9526968Y-12833769D01*
X9526968Y-12833769D02*
X9431730Y-12852817D01*
X9603158Y-12909960D02*
X9622206Y-12919484D01*
X9622206Y-12919484D02*
X9660301Y-12919484D01*
X9660301Y-12919484D02*
X9679349Y-12909960D01*
X9679349Y-12909960D02*
X9688873Y-12890912D01*
X9688873Y-12890912D02*
X9688873Y-12881388D01*
X9688873Y-12881388D02*
X9679349Y-12862341D01*
X9679349Y-12862341D02*
X9660301Y-12852817D01*
X9660301Y-12852817D02*
X9631730Y-12852817D01*
X9631730Y-12852817D02*
X9612682Y-12843293D01*
X9612682Y-12843293D02*
X9603158Y-12824246D01*
X9603158Y-12824246D02*
X9603158Y-12814722D01*
X9603158Y-12814722D02*
X9612682Y-12795674D01*
X9612682Y-12795674D02*
X9631730Y-12786150D01*
X9631730Y-12786150D02*
X9660301Y-12786150D01*
X9660301Y-12786150D02*
X9679349Y-12795674D01*
X9755539Y-12995674D02*
X9765063Y-12986150D01*
X9765063Y-12986150D02*
X9784111Y-12957579D01*
X9784111Y-12957579D02*
X9793634Y-12938531D01*
X9793634Y-12938531D02*
X9803158Y-12909960D01*
X9803158Y-12909960D02*
X9812682Y-12862341D01*
X9812682Y-12862341D02*
X9812682Y-12824246D01*
X9812682Y-12824246D02*
X9803158Y-12776627D01*
X9803158Y-12776627D02*
X9793634Y-12748055D01*
X9793634Y-12748055D02*
X9784111Y-12729008D01*
X9784111Y-12729008D02*
X9765063Y-12700436D01*
X9765063Y-12700436D02*
X9755539Y-12690912D01*
M02*
